%TF.GenerationSoftware,KiCad,Pcbnew,9.0.5*%
%TF.CreationDate,2025-10-27T11:22:18+00:00*%
%TF.ProjectId,177x,31373778-2e6b-4696-9361-645f70636258,03*%
%TF.SameCoordinates,Original*%
%TF.FileFunction,Legend,Top*%
%TF.FilePolarity,Positive*%
%FSLAX46Y46*%
G04 Gerber Fmt 4.6, Leading zero omitted, Abs format (unit mm)*
G04 Created by KiCad (PCBNEW 9.0.5) date 2025-10-27 11:22:18*
%MOMM*%
%LPD*%
G01*
G04 APERTURE LIST*
%ADD10C,0.150000*%
%ADD11C,0.125000*%
%ADD12C,0.120000*%
G04 APERTURE END LIST*
D10*
X103950000Y-36386000D02*
X111950000Y-36386000D01*
X111950000Y-44386000D01*
X103950000Y-44386000D01*
X103950000Y-36386000D01*
G36*
X103950000Y-36386000D02*
G01*
X111950000Y-36386000D01*
X111950000Y-44386000D01*
X103950000Y-44386000D01*
X103950000Y-36386000D01*
G37*
D11*
X112886049Y-41673857D02*
X113443192Y-41673857D01*
X113443192Y-41673857D02*
X113143192Y-42016714D01*
X113143192Y-42016714D02*
X113271763Y-42016714D01*
X113271763Y-42016714D02*
X113357478Y-42059571D01*
X113357478Y-42059571D02*
X113400335Y-42102428D01*
X113400335Y-42102428D02*
X113443192Y-42188142D01*
X113443192Y-42188142D02*
X113443192Y-42402428D01*
X113443192Y-42402428D02*
X113400335Y-42488142D01*
X113400335Y-42488142D02*
X113357478Y-42531000D01*
X113357478Y-42531000D02*
X113271763Y-42573857D01*
X113271763Y-42573857D02*
X113014620Y-42573857D01*
X113014620Y-42573857D02*
X112928906Y-42531000D01*
X112928906Y-42531000D02*
X112886049Y-42488142D01*
X113957478Y-42059571D02*
X113871763Y-42016714D01*
X113871763Y-42016714D02*
X113828906Y-41973857D01*
X113828906Y-41973857D02*
X113786049Y-41888142D01*
X113786049Y-41888142D02*
X113786049Y-41845285D01*
X113786049Y-41845285D02*
X113828906Y-41759571D01*
X113828906Y-41759571D02*
X113871763Y-41716714D01*
X113871763Y-41716714D02*
X113957478Y-41673857D01*
X113957478Y-41673857D02*
X114128906Y-41673857D01*
X114128906Y-41673857D02*
X114214621Y-41716714D01*
X114214621Y-41716714D02*
X114257478Y-41759571D01*
X114257478Y-41759571D02*
X114300335Y-41845285D01*
X114300335Y-41845285D02*
X114300335Y-41888142D01*
X114300335Y-41888142D02*
X114257478Y-41973857D01*
X114257478Y-41973857D02*
X114214621Y-42016714D01*
X114214621Y-42016714D02*
X114128906Y-42059571D01*
X114128906Y-42059571D02*
X113957478Y-42059571D01*
X113957478Y-42059571D02*
X113871763Y-42102428D01*
X113871763Y-42102428D02*
X113828906Y-42145285D01*
X113828906Y-42145285D02*
X113786049Y-42231000D01*
X113786049Y-42231000D02*
X113786049Y-42402428D01*
X113786049Y-42402428D02*
X113828906Y-42488142D01*
X113828906Y-42488142D02*
X113871763Y-42531000D01*
X113871763Y-42531000D02*
X113957478Y-42573857D01*
X113957478Y-42573857D02*
X114128906Y-42573857D01*
X114128906Y-42573857D02*
X114214621Y-42531000D01*
X114214621Y-42531000D02*
X114257478Y-42488142D01*
X114257478Y-42488142D02*
X114300335Y-42402428D01*
X114300335Y-42402428D02*
X114300335Y-42231000D01*
X114300335Y-42231000D02*
X114257478Y-42145285D01*
X114257478Y-42145285D02*
X114214621Y-42102428D01*
X114214621Y-42102428D02*
X114128906Y-42059571D01*
X101599664Y-39219571D02*
X101642521Y-39176714D01*
X101642521Y-39176714D02*
X101728236Y-39133857D01*
X101728236Y-39133857D02*
X101942521Y-39133857D01*
X101942521Y-39133857D02*
X102028236Y-39176714D01*
X102028236Y-39176714D02*
X102071093Y-39219571D01*
X102071093Y-39219571D02*
X102113950Y-39305285D01*
X102113950Y-39305285D02*
X102113950Y-39391000D01*
X102113950Y-39391000D02*
X102071093Y-39519571D01*
X102071093Y-39519571D02*
X101556807Y-40033857D01*
X101556807Y-40033857D02*
X102113950Y-40033857D01*
X112886049Y-39133857D02*
X113443192Y-39133857D01*
X113443192Y-39133857D02*
X113143192Y-39476714D01*
X113143192Y-39476714D02*
X113271763Y-39476714D01*
X113271763Y-39476714D02*
X113357478Y-39519571D01*
X113357478Y-39519571D02*
X113400335Y-39562428D01*
X113400335Y-39562428D02*
X113443192Y-39648142D01*
X113443192Y-39648142D02*
X113443192Y-39862428D01*
X113443192Y-39862428D02*
X113400335Y-39948142D01*
X113400335Y-39948142D02*
X113357478Y-39991000D01*
X113357478Y-39991000D02*
X113271763Y-40033857D01*
X113271763Y-40033857D02*
X113014620Y-40033857D01*
X113014620Y-40033857D02*
X112928906Y-39991000D01*
X112928906Y-39991000D02*
X112886049Y-39948142D01*
X113871763Y-40033857D02*
X114043192Y-40033857D01*
X114043192Y-40033857D02*
X114128906Y-39991000D01*
X114128906Y-39991000D02*
X114171763Y-39948142D01*
X114171763Y-39948142D02*
X114257478Y-39819571D01*
X114257478Y-39819571D02*
X114300335Y-39648142D01*
X114300335Y-39648142D02*
X114300335Y-39305285D01*
X114300335Y-39305285D02*
X114257478Y-39219571D01*
X114257478Y-39219571D02*
X114214621Y-39176714D01*
X114214621Y-39176714D02*
X114128906Y-39133857D01*
X114128906Y-39133857D02*
X113957478Y-39133857D01*
X113957478Y-39133857D02*
X113871763Y-39176714D01*
X113871763Y-39176714D02*
X113828906Y-39219571D01*
X113828906Y-39219571D02*
X113786049Y-39305285D01*
X113786049Y-39305285D02*
X113786049Y-39519571D01*
X113786049Y-39519571D02*
X113828906Y-39605285D01*
X113828906Y-39605285D02*
X113871763Y-39648142D01*
X113871763Y-39648142D02*
X113957478Y-39691000D01*
X113957478Y-39691000D02*
X114128906Y-39691000D01*
X114128906Y-39691000D02*
X114214621Y-39648142D01*
X114214621Y-39648142D02*
X114257478Y-39605285D01*
X114257478Y-39605285D02*
X114300335Y-39519571D01*
X102978571Y-45536028D02*
X103107143Y-45578885D01*
X103107143Y-45578885D02*
X103150000Y-45621742D01*
X103150000Y-45621742D02*
X103192857Y-45707457D01*
X103192857Y-45707457D02*
X103192857Y-45836028D01*
X103192857Y-45836028D02*
X103150000Y-45921742D01*
X103150000Y-45921742D02*
X103107143Y-45964600D01*
X103107143Y-45964600D02*
X103021428Y-46007457D01*
X103021428Y-46007457D02*
X102678571Y-46007457D01*
X102678571Y-46007457D02*
X102678571Y-45107457D01*
X102678571Y-45107457D02*
X102978571Y-45107457D01*
X102978571Y-45107457D02*
X103064286Y-45150314D01*
X103064286Y-45150314D02*
X103107143Y-45193171D01*
X103107143Y-45193171D02*
X103150000Y-45278885D01*
X103150000Y-45278885D02*
X103150000Y-45364600D01*
X103150000Y-45364600D02*
X103107143Y-45450314D01*
X103107143Y-45450314D02*
X103064286Y-45493171D01*
X103064286Y-45493171D02*
X102978571Y-45536028D01*
X102978571Y-45536028D02*
X102678571Y-45536028D01*
X103878571Y-45536028D02*
X104007143Y-45578885D01*
X104007143Y-45578885D02*
X104050000Y-45621742D01*
X104050000Y-45621742D02*
X104092857Y-45707457D01*
X104092857Y-45707457D02*
X104092857Y-45836028D01*
X104092857Y-45836028D02*
X104050000Y-45921742D01*
X104050000Y-45921742D02*
X104007143Y-45964600D01*
X104007143Y-45964600D02*
X103921428Y-46007457D01*
X103921428Y-46007457D02*
X103578571Y-46007457D01*
X103578571Y-46007457D02*
X103578571Y-45107457D01*
X103578571Y-45107457D02*
X103878571Y-45107457D01*
X103878571Y-45107457D02*
X103964286Y-45150314D01*
X103964286Y-45150314D02*
X104007143Y-45193171D01*
X104007143Y-45193171D02*
X104050000Y-45278885D01*
X104050000Y-45278885D02*
X104050000Y-45364600D01*
X104050000Y-45364600D02*
X104007143Y-45450314D01*
X104007143Y-45450314D02*
X103964286Y-45493171D01*
X103964286Y-45493171D02*
X103878571Y-45536028D01*
X103878571Y-45536028D02*
X103578571Y-45536028D01*
X104992857Y-45921742D02*
X104950000Y-45964600D01*
X104950000Y-45964600D02*
X104821428Y-46007457D01*
X104821428Y-46007457D02*
X104735714Y-46007457D01*
X104735714Y-46007457D02*
X104607143Y-45964600D01*
X104607143Y-45964600D02*
X104521428Y-45878885D01*
X104521428Y-45878885D02*
X104478571Y-45793171D01*
X104478571Y-45793171D02*
X104435714Y-45621742D01*
X104435714Y-45621742D02*
X104435714Y-45493171D01*
X104435714Y-45493171D02*
X104478571Y-45321742D01*
X104478571Y-45321742D02*
X104521428Y-45236028D01*
X104521428Y-45236028D02*
X104607143Y-45150314D01*
X104607143Y-45150314D02*
X104735714Y-45107457D01*
X104735714Y-45107457D02*
X104821428Y-45107457D01*
X104821428Y-45107457D02*
X104950000Y-45150314D01*
X104950000Y-45150314D02*
X104992857Y-45193171D01*
X106064285Y-46007457D02*
X106064285Y-45107457D01*
X106064285Y-45107457D02*
X106364285Y-45750314D01*
X106364285Y-45750314D02*
X106664285Y-45107457D01*
X106664285Y-45107457D02*
X106664285Y-46007457D01*
X107092856Y-46007457D02*
X107092856Y-45407457D01*
X107092856Y-45107457D02*
X107049999Y-45150314D01*
X107049999Y-45150314D02*
X107092856Y-45193171D01*
X107092856Y-45193171D02*
X107135713Y-45150314D01*
X107135713Y-45150314D02*
X107092856Y-45107457D01*
X107092856Y-45107457D02*
X107092856Y-45193171D01*
X107907142Y-45964600D02*
X107821427Y-46007457D01*
X107821427Y-46007457D02*
X107649999Y-46007457D01*
X107649999Y-46007457D02*
X107564284Y-45964600D01*
X107564284Y-45964600D02*
X107521427Y-45921742D01*
X107521427Y-45921742D02*
X107478570Y-45836028D01*
X107478570Y-45836028D02*
X107478570Y-45578885D01*
X107478570Y-45578885D02*
X107521427Y-45493171D01*
X107521427Y-45493171D02*
X107564284Y-45450314D01*
X107564284Y-45450314D02*
X107649999Y-45407457D01*
X107649999Y-45407457D02*
X107821427Y-45407457D01*
X107821427Y-45407457D02*
X107907142Y-45450314D01*
X108292856Y-46007457D02*
X108292856Y-45407457D01*
X108292856Y-45578885D02*
X108335713Y-45493171D01*
X108335713Y-45493171D02*
X108378571Y-45450314D01*
X108378571Y-45450314D02*
X108464285Y-45407457D01*
X108464285Y-45407457D02*
X108549999Y-45407457D01*
X108978571Y-46007457D02*
X108892856Y-45964600D01*
X108892856Y-45964600D02*
X108849999Y-45921742D01*
X108849999Y-45921742D02*
X108807142Y-45836028D01*
X108807142Y-45836028D02*
X108807142Y-45578885D01*
X108807142Y-45578885D02*
X108849999Y-45493171D01*
X108849999Y-45493171D02*
X108892856Y-45450314D01*
X108892856Y-45450314D02*
X108978571Y-45407457D01*
X108978571Y-45407457D02*
X109107142Y-45407457D01*
X109107142Y-45407457D02*
X109192856Y-45450314D01*
X109192856Y-45450314D02*
X109235714Y-45493171D01*
X109235714Y-45493171D02*
X109278571Y-45578885D01*
X109278571Y-45578885D02*
X109278571Y-45836028D01*
X109278571Y-45836028D02*
X109235714Y-45921742D01*
X109235714Y-45921742D02*
X109192856Y-45964600D01*
X109192856Y-45964600D02*
X109107142Y-46007457D01*
X109107142Y-46007457D02*
X108978571Y-46007457D01*
X110821428Y-46007457D02*
X110307142Y-46007457D01*
X110564285Y-46007457D02*
X110564285Y-45107457D01*
X110564285Y-45107457D02*
X110478571Y-45236028D01*
X110478571Y-45236028D02*
X110392856Y-45321742D01*
X110392856Y-45321742D02*
X110307142Y-45364600D01*
X111121428Y-45107457D02*
X111721428Y-45107457D01*
X111721428Y-45107457D02*
X111335714Y-46007457D01*
X111978571Y-45107457D02*
X112578571Y-45107457D01*
X112578571Y-45107457D02*
X112192857Y-46007457D01*
X112835714Y-46007457D02*
X113307143Y-45407457D01*
X112835714Y-45407457D02*
X113307143Y-46007457D01*
X103428570Y-47456407D02*
X103428570Y-46556407D01*
X103428570Y-46556407D02*
X103642856Y-46556407D01*
X103642856Y-46556407D02*
X103771427Y-46599264D01*
X103771427Y-46599264D02*
X103857142Y-46684978D01*
X103857142Y-46684978D02*
X103899999Y-46770692D01*
X103899999Y-46770692D02*
X103942856Y-46942121D01*
X103942856Y-46942121D02*
X103942856Y-47070692D01*
X103942856Y-47070692D02*
X103899999Y-47242121D01*
X103899999Y-47242121D02*
X103857142Y-47327835D01*
X103857142Y-47327835D02*
X103771427Y-47413550D01*
X103771427Y-47413550D02*
X103642856Y-47456407D01*
X103642856Y-47456407D02*
X103428570Y-47456407D01*
X104328570Y-47456407D02*
X104328570Y-46856407D01*
X104328570Y-46556407D02*
X104285713Y-46599264D01*
X104285713Y-46599264D02*
X104328570Y-46642121D01*
X104328570Y-46642121D02*
X104371427Y-46599264D01*
X104371427Y-46599264D02*
X104328570Y-46556407D01*
X104328570Y-46556407D02*
X104328570Y-46642121D01*
X104714284Y-47413550D02*
X104799998Y-47456407D01*
X104799998Y-47456407D02*
X104971427Y-47456407D01*
X104971427Y-47456407D02*
X105057141Y-47413550D01*
X105057141Y-47413550D02*
X105099998Y-47327835D01*
X105099998Y-47327835D02*
X105099998Y-47284978D01*
X105099998Y-47284978D02*
X105057141Y-47199264D01*
X105057141Y-47199264D02*
X104971427Y-47156407D01*
X104971427Y-47156407D02*
X104842856Y-47156407D01*
X104842856Y-47156407D02*
X104757141Y-47113550D01*
X104757141Y-47113550D02*
X104714284Y-47027835D01*
X104714284Y-47027835D02*
X104714284Y-46984978D01*
X104714284Y-46984978D02*
X104757141Y-46899264D01*
X104757141Y-46899264D02*
X104842856Y-46856407D01*
X104842856Y-46856407D02*
X104971427Y-46856407D01*
X104971427Y-46856407D02*
X105057141Y-46899264D01*
X105871427Y-47413550D02*
X105785712Y-47456407D01*
X105785712Y-47456407D02*
X105614284Y-47456407D01*
X105614284Y-47456407D02*
X105528569Y-47413550D01*
X105528569Y-47413550D02*
X105485712Y-47370692D01*
X105485712Y-47370692D02*
X105442855Y-47284978D01*
X105442855Y-47284978D02*
X105442855Y-47027835D01*
X105442855Y-47027835D02*
X105485712Y-46942121D01*
X105485712Y-46942121D02*
X105528569Y-46899264D01*
X105528569Y-46899264D02*
X105614284Y-46856407D01*
X105614284Y-46856407D02*
X105785712Y-46856407D01*
X105785712Y-46856407D02*
X105871427Y-46899264D01*
X106942855Y-47456407D02*
X106942855Y-46556407D01*
X107371426Y-46856407D02*
X107371426Y-47456407D01*
X107371426Y-46942121D02*
X107414283Y-46899264D01*
X107414283Y-46899264D02*
X107499998Y-46856407D01*
X107499998Y-46856407D02*
X107628569Y-46856407D01*
X107628569Y-46856407D02*
X107714283Y-46899264D01*
X107714283Y-46899264D02*
X107757141Y-46984978D01*
X107757141Y-46984978D02*
X107757141Y-47456407D01*
X108057141Y-46856407D02*
X108399998Y-46856407D01*
X108185712Y-46556407D02*
X108185712Y-47327835D01*
X108185712Y-47327835D02*
X108228569Y-47413550D01*
X108228569Y-47413550D02*
X108314284Y-47456407D01*
X108314284Y-47456407D02*
X108399998Y-47456407D01*
X109042855Y-47413550D02*
X108957141Y-47456407D01*
X108957141Y-47456407D02*
X108785713Y-47456407D01*
X108785713Y-47456407D02*
X108699998Y-47413550D01*
X108699998Y-47413550D02*
X108657141Y-47327835D01*
X108657141Y-47327835D02*
X108657141Y-46984978D01*
X108657141Y-46984978D02*
X108699998Y-46899264D01*
X108699998Y-46899264D02*
X108785713Y-46856407D01*
X108785713Y-46856407D02*
X108957141Y-46856407D01*
X108957141Y-46856407D02*
X109042855Y-46899264D01*
X109042855Y-46899264D02*
X109085713Y-46984978D01*
X109085713Y-46984978D02*
X109085713Y-47070692D01*
X109085713Y-47070692D02*
X108657141Y-47156407D01*
X109471427Y-47456407D02*
X109471427Y-46856407D01*
X109471427Y-47027835D02*
X109514284Y-46942121D01*
X109514284Y-46942121D02*
X109557142Y-46899264D01*
X109557142Y-46899264D02*
X109642856Y-46856407D01*
X109642856Y-46856407D02*
X109728570Y-46856407D01*
X109899999Y-46856407D02*
X110242856Y-46856407D01*
X110028570Y-47456407D02*
X110028570Y-46684978D01*
X110028570Y-46684978D02*
X110071427Y-46599264D01*
X110071427Y-46599264D02*
X110157142Y-46556407D01*
X110157142Y-46556407D02*
X110242856Y-46556407D01*
X110928571Y-47456407D02*
X110928571Y-46984978D01*
X110928571Y-46984978D02*
X110885713Y-46899264D01*
X110885713Y-46899264D02*
X110799999Y-46856407D01*
X110799999Y-46856407D02*
X110628571Y-46856407D01*
X110628571Y-46856407D02*
X110542856Y-46899264D01*
X110928571Y-47413550D02*
X110842856Y-47456407D01*
X110842856Y-47456407D02*
X110628571Y-47456407D01*
X110628571Y-47456407D02*
X110542856Y-47413550D01*
X110542856Y-47413550D02*
X110499999Y-47327835D01*
X110499999Y-47327835D02*
X110499999Y-47242121D01*
X110499999Y-47242121D02*
X110542856Y-47156407D01*
X110542856Y-47156407D02*
X110628571Y-47113550D01*
X110628571Y-47113550D02*
X110842856Y-47113550D01*
X110842856Y-47113550D02*
X110928571Y-47070692D01*
X111742857Y-47413550D02*
X111657142Y-47456407D01*
X111657142Y-47456407D02*
X111485714Y-47456407D01*
X111485714Y-47456407D02*
X111399999Y-47413550D01*
X111399999Y-47413550D02*
X111357142Y-47370692D01*
X111357142Y-47370692D02*
X111314285Y-47284978D01*
X111314285Y-47284978D02*
X111314285Y-47027835D01*
X111314285Y-47027835D02*
X111357142Y-46942121D01*
X111357142Y-46942121D02*
X111399999Y-46899264D01*
X111399999Y-46899264D02*
X111485714Y-46856407D01*
X111485714Y-46856407D02*
X111657142Y-46856407D01*
X111657142Y-46856407D02*
X111742857Y-46899264D01*
X112471428Y-47413550D02*
X112385714Y-47456407D01*
X112385714Y-47456407D02*
X112214286Y-47456407D01*
X112214286Y-47456407D02*
X112128571Y-47413550D01*
X112128571Y-47413550D02*
X112085714Y-47327835D01*
X112085714Y-47327835D02*
X112085714Y-46984978D01*
X112085714Y-46984978D02*
X112128571Y-46899264D01*
X112128571Y-46899264D02*
X112214286Y-46856407D01*
X112214286Y-46856407D02*
X112385714Y-46856407D01*
X112385714Y-46856407D02*
X112471428Y-46899264D01*
X112471428Y-46899264D02*
X112514286Y-46984978D01*
X112514286Y-46984978D02*
X112514286Y-47070692D01*
X112514286Y-47070692D02*
X112085714Y-47156407D01*
X105807142Y-48905357D02*
X105807142Y-48005357D01*
X105807142Y-48005357D02*
X106107142Y-48648214D01*
X106107142Y-48648214D02*
X106407142Y-48005357D01*
X106407142Y-48005357D02*
X106407142Y-48905357D01*
X106964285Y-48905357D02*
X106878570Y-48862500D01*
X106878570Y-48862500D02*
X106835713Y-48819642D01*
X106835713Y-48819642D02*
X106792856Y-48733928D01*
X106792856Y-48733928D02*
X106792856Y-48476785D01*
X106792856Y-48476785D02*
X106835713Y-48391071D01*
X106835713Y-48391071D02*
X106878570Y-48348214D01*
X106878570Y-48348214D02*
X106964285Y-48305357D01*
X106964285Y-48305357D02*
X107092856Y-48305357D01*
X107092856Y-48305357D02*
X107178570Y-48348214D01*
X107178570Y-48348214D02*
X107221428Y-48391071D01*
X107221428Y-48391071D02*
X107264285Y-48476785D01*
X107264285Y-48476785D02*
X107264285Y-48733928D01*
X107264285Y-48733928D02*
X107221428Y-48819642D01*
X107221428Y-48819642D02*
X107178570Y-48862500D01*
X107178570Y-48862500D02*
X107092856Y-48905357D01*
X107092856Y-48905357D02*
X106964285Y-48905357D01*
X108035714Y-48905357D02*
X108035714Y-48005357D01*
X108035714Y-48862500D02*
X107949999Y-48905357D01*
X107949999Y-48905357D02*
X107778571Y-48905357D01*
X107778571Y-48905357D02*
X107692856Y-48862500D01*
X107692856Y-48862500D02*
X107649999Y-48819642D01*
X107649999Y-48819642D02*
X107607142Y-48733928D01*
X107607142Y-48733928D02*
X107607142Y-48476785D01*
X107607142Y-48476785D02*
X107649999Y-48391071D01*
X107649999Y-48391071D02*
X107692856Y-48348214D01*
X107692856Y-48348214D02*
X107778571Y-48305357D01*
X107778571Y-48305357D02*
X107949999Y-48305357D01*
X107949999Y-48305357D02*
X108035714Y-48348214D01*
X108850000Y-48305357D02*
X108850000Y-48905357D01*
X108464285Y-48305357D02*
X108464285Y-48776785D01*
X108464285Y-48776785D02*
X108507142Y-48862500D01*
X108507142Y-48862500D02*
X108592857Y-48905357D01*
X108592857Y-48905357D02*
X108721428Y-48905357D01*
X108721428Y-48905357D02*
X108807142Y-48862500D01*
X108807142Y-48862500D02*
X108850000Y-48819642D01*
X109407143Y-48905357D02*
X109321428Y-48862500D01*
X109321428Y-48862500D02*
X109278571Y-48776785D01*
X109278571Y-48776785D02*
X109278571Y-48005357D01*
X110092857Y-48862500D02*
X110007143Y-48905357D01*
X110007143Y-48905357D02*
X109835715Y-48905357D01*
X109835715Y-48905357D02*
X109750000Y-48862500D01*
X109750000Y-48862500D02*
X109707143Y-48776785D01*
X109707143Y-48776785D02*
X109707143Y-48433928D01*
X109707143Y-48433928D02*
X109750000Y-48348214D01*
X109750000Y-48348214D02*
X109835715Y-48305357D01*
X109835715Y-48305357D02*
X110007143Y-48305357D01*
X110007143Y-48305357D02*
X110092857Y-48348214D01*
X110092857Y-48348214D02*
X110135715Y-48433928D01*
X110135715Y-48433928D02*
X110135715Y-48519642D01*
X110135715Y-48519642D02*
X109707143Y-48605357D01*
X101556807Y-41673857D02*
X102113950Y-41673857D01*
X102113950Y-41673857D02*
X101813950Y-42016714D01*
X101813950Y-42016714D02*
X101942521Y-42016714D01*
X101942521Y-42016714D02*
X102028236Y-42059571D01*
X102028236Y-42059571D02*
X102071093Y-42102428D01*
X102071093Y-42102428D02*
X102113950Y-42188142D01*
X102113950Y-42188142D02*
X102113950Y-42402428D01*
X102113950Y-42402428D02*
X102071093Y-42488142D01*
X102071093Y-42488142D02*
X102028236Y-42531000D01*
X102028236Y-42531000D02*
X101942521Y-42573857D01*
X101942521Y-42573857D02*
X101685378Y-42573857D01*
X101685378Y-42573857D02*
X101599664Y-42531000D01*
X101599664Y-42531000D02*
X101556807Y-42488142D01*
X113357478Y-36893857D02*
X113357478Y-37493857D01*
X113143192Y-36551000D02*
X112928906Y-37193857D01*
X112928906Y-37193857D02*
X113486049Y-37193857D01*
X114000335Y-36593857D02*
X114086049Y-36593857D01*
X114086049Y-36593857D02*
X114171763Y-36636714D01*
X114171763Y-36636714D02*
X114214621Y-36679571D01*
X114214621Y-36679571D02*
X114257478Y-36765285D01*
X114257478Y-36765285D02*
X114300335Y-36936714D01*
X114300335Y-36936714D02*
X114300335Y-37151000D01*
X114300335Y-37151000D02*
X114257478Y-37322428D01*
X114257478Y-37322428D02*
X114214621Y-37408142D01*
X114214621Y-37408142D02*
X114171763Y-37451000D01*
X114171763Y-37451000D02*
X114086049Y-37493857D01*
X114086049Y-37493857D02*
X114000335Y-37493857D01*
X114000335Y-37493857D02*
X113914621Y-37451000D01*
X113914621Y-37451000D02*
X113871763Y-37408142D01*
X113871763Y-37408142D02*
X113828906Y-37322428D01*
X113828906Y-37322428D02*
X113786049Y-37151000D01*
X113786049Y-37151000D02*
X113786049Y-36936714D01*
X113786049Y-36936714D02*
X113828906Y-36765285D01*
X113828906Y-36765285D02*
X113871763Y-36679571D01*
X113871763Y-36679571D02*
X113914621Y-36636714D01*
X113914621Y-36636714D02*
X114000335Y-36593857D01*
X102113950Y-37493857D02*
X101599664Y-37493857D01*
X101856807Y-37493857D02*
X101856807Y-36593857D01*
X101856807Y-36593857D02*
X101771093Y-36722428D01*
X101771093Y-36722428D02*
X101685378Y-36808142D01*
X101685378Y-36808142D02*
X101599664Y-36851000D01*
X101750895Y-49178005D02*
X101750895Y-48278005D01*
X102693752Y-49092290D02*
X102650895Y-49135148D01*
X102650895Y-49135148D02*
X102522323Y-49178005D01*
X102522323Y-49178005D02*
X102436609Y-49178005D01*
X102436609Y-49178005D02*
X102308038Y-49135148D01*
X102308038Y-49135148D02*
X102222323Y-49049433D01*
X102222323Y-49049433D02*
X102179466Y-48963719D01*
X102179466Y-48963719D02*
X102136609Y-48792290D01*
X102136609Y-48792290D02*
X102136609Y-48663719D01*
X102136609Y-48663719D02*
X102179466Y-48492290D01*
X102179466Y-48492290D02*
X102222323Y-48406576D01*
X102222323Y-48406576D02*
X102308038Y-48320862D01*
X102308038Y-48320862D02*
X102436609Y-48278005D01*
X102436609Y-48278005D02*
X102522323Y-48278005D01*
X102522323Y-48278005D02*
X102650895Y-48320862D01*
X102650895Y-48320862D02*
X102693752Y-48363719D01*
X103550895Y-49178005D02*
X103036609Y-49178005D01*
X103293752Y-49178005D02*
X103293752Y-48278005D01*
X103293752Y-48278005D02*
X103208038Y-48406576D01*
X103208038Y-48406576D02*
X103122323Y-48492290D01*
X103122323Y-48492290D02*
X103036609Y-48535148D01*
D12*
%TO.C,IC1*%
X98950000Y-49724000D02*
X98950000Y-85404000D01*
X98950000Y-85404000D02*
X111870000Y-85404000D01*
X104410000Y-49724000D02*
X98950000Y-49724000D01*
X111870000Y-49724000D02*
X106410000Y-49724000D01*
X111870000Y-85404000D02*
X111870000Y-49724000D01*
X96460000Y-49664000D02*
X114360000Y-49664000D01*
X114360000Y-85464000D01*
X96460000Y-85464000D01*
X96460000Y-49664000D01*
X106410000Y-49724000D02*
G75*
G02*
X104410000Y-49724000I-1000000J0D01*
G01*
%TD*%
M02*
