%TF.GenerationSoftware,KiCad,Pcbnew,9.0.5*%
%TF.CreationDate,2025-10-27T11:22:18+00:00*%
%TF.ProjectId,177x,31373778-2e6b-4696-9361-645f70636258,03*%
%TF.SameCoordinates,Original*%
%TF.FileFunction,Copper,L1,Top*%
%TF.FilePolarity,Positive*%
%FSLAX46Y46*%
G04 Gerber Fmt 4.6, Leading zero omitted, Abs format (unit mm)*
G04 Created by KiCad (PCBNEW 9.0.5) date 2025-10-27 11:22:18*
%MOMM*%
%LPD*%
G01*
G04 APERTURE LIST*
G04 Aperture macros list*
%AMRoundRect*
0 Rectangle with rounded corners*
0 $1 Rounding radius*
0 $2 $3 $4 $5 $6 $7 $8 $9 X,Y pos of 4 corners*
0 Add a 4 corners polygon primitive as box body*
4,1,4,$2,$3,$4,$5,$6,$7,$8,$9,$2,$3,0*
0 Add four circle primitives for the rounded corners*
1,1,$1+$1,$2,$3*
1,1,$1+$1,$4,$5*
1,1,$1+$1,$6,$7*
1,1,$1+$1,$8,$9*
0 Add four rect primitives between the rounded corners*
20,1,$1+$1,$2,$3,$4,$5,0*
20,1,$1+$1,$4,$5,$6,$7,0*
20,1,$1+$1,$6,$7,$8,$9,0*
20,1,$1+$1,$8,$9,$2,$3,0*%
G04 Aperture macros list end*
%TA.AperFunction,ComponentPad*%
%ADD10RoundRect,0.250000X-0.550000X-0.550000X0.550000X-0.550000X0.550000X0.550000X-0.550000X0.550000X0*%
%TD*%
%TA.AperFunction,ComponentPad*%
%ADD11C,1.600000*%
%TD*%
%TA.AperFunction,ComponentPad*%
%ADD12R,1.600000X1.600000*%
%TD*%
%TA.AperFunction,ViaPad*%
%ADD13C,0.800000*%
%TD*%
%TA.AperFunction,Conductor*%
%ADD14C,0.500000*%
%TD*%
%TA.AperFunction,Conductor*%
%ADD15C,0.250000*%
%TD*%
G04 APERTURE END LIST*
D10*
%TO.P,IC1,1,~{CS}*%
%TO.N,Net-(IC1-~{CS})*%
X97790000Y-51054000D03*
D11*
%TO.P,IC1,2,R/~{W}*%
%TO.N,Net-(IC1-R{slash}~{W})*%
X97790000Y-53594000D03*
%TO.P,IC1,3,A0*%
%TO.N,/A0*%
X97790000Y-56134000D03*
%TO.P,IC1,4,A1*%
%TO.N,/A1*%
X97790000Y-58674000D03*
%TO.P,IC1,5,DAL0*%
%TO.N,/D0*%
X97790000Y-61214000D03*
%TO.P,IC1,6,DAL1*%
%TO.N,/D1*%
X97790000Y-63754000D03*
%TO.P,IC1,7,DAL2*%
%TO.N,/D2*%
X97790000Y-66294000D03*
%TO.P,IC1,8,DAL3*%
%TO.N,/D3*%
X97790000Y-68834000D03*
%TO.P,IC1,9,DAL4*%
%TO.N,/D4*%
X97790000Y-71374000D03*
%TO.P,IC1,10,DAL5*%
%TO.N,/D5*%
X97790000Y-73914000D03*
%TO.P,IC1,11,DAL6*%
%TO.N,/D6*%
X97790000Y-76454000D03*
%TO.P,IC1,12,DAL7*%
%TO.N,/D7*%
X97790000Y-78994000D03*
%TO.P,IC1,13,~{MR}*%
%TO.N,Net-(IC1-~{MR})*%
X97790000Y-81534000D03*
%TO.P,IC1,14,GND*%
%TO.N,GND*%
X97790000Y-84074000D03*
%TO.P,IC1,15,VCC*%
%TO.N,+5V*%
X113030000Y-84074000D03*
%TO.P,IC1,16,STEP*%
%TO.N,/STEP*%
X113030000Y-81534000D03*
%TO.P,IC1,17,DIRC*%
%TO.N,/DIR*%
X113030000Y-78994000D03*
%TO.P,IC1,18,CLK*%
%TO.N,/CLK*%
X113030000Y-76454000D03*
%TO.P,IC1,19,~{RD}*%
%TO.N,/RD_DATA*%
X113030000Y-73914000D03*
%TO.P,IC1,20,MO*%
%TO.N,/MO*%
X113030000Y-71374000D03*
%TO.P,IC1,21,WG*%
%TO.N,/WR_EN*%
X113030000Y-68834000D03*
%TO.P,IC1,22,WD*%
%TO.N,/WR_DATA*%
X113030000Y-66294000D03*
%TO.P,IC1,23,~{TR00}*%
%TO.N,/~{TRK0}*%
X113030000Y-63754000D03*
%TO.P,IC1,24,~{IP}*%
%TO.N,/~{INDEX}*%
X113030000Y-61214000D03*
%TO.P,IC1,25,~{WPRT}*%
%TO.N,/~{WR_PROT}*%
X113030000Y-58674000D03*
%TO.P,IC1,26,~{DDEN}*%
%TO.N,Net-(IC1-~{DDEN})*%
X113030000Y-56134000D03*
%TO.P,IC1,27,DRQ*%
%TO.N,Net-(IC1-DRQ)*%
X113030000Y-53594000D03*
%TO.P,IC1,28,INTRQ*%
%TO.N,Net-(IC1-INTRQ)*%
X113030000Y-51054000D03*
%TD*%
D12*
%TO.P,J1,1,Pin_1*%
%TO.N,Net-(IC3-Q1)*%
X100330000Y-37084000D03*
D11*
%TO.P,J1,2,Pin_2*%
%TO.N,Net-(IC3-Q0)*%
X100330000Y-39624000D03*
%TO.P,J1,3,Pin_3*%
%TO.N,Net-(J1-Pin_3)*%
X100330000Y-42164000D03*
%TO.P,J1,4,Pin_4*%
%TO.N,Net-(IC3-Mr)*%
X100330000Y-44704000D03*
%TO.P,J1,5,Pin_5*%
%TO.N,unconnected-(J1-Pin_5-Pad5)*%
X100330000Y-47244000D03*
%TO.P,J1,6,Pin_6*%
%TO.N,Net-(J1-Pin_6)*%
X100330000Y-49784000D03*
%TO.P,J1,7,Pin_7*%
%TO.N,Net-(J1-Pin_7)*%
X100330000Y-52324000D03*
%TO.P,J1,8,Pin_8*%
%TO.N,unconnected-(J1-Pin_8-Pad8)*%
X100330000Y-54864000D03*
%TO.P,J1,9,Pin_9*%
%TO.N,Net-(J1-Pin_9)*%
X100330000Y-57404000D03*
%TO.P,J1,10,Pin_10*%
%TO.N,Net-(IC3-Cp)*%
X100330000Y-59944000D03*
%TO.P,J1,11,Pin_11*%
%TO.N,Net-(J1-Pin_11)*%
X100330000Y-62484000D03*
%TO.P,J1,12,Pin_12*%
%TO.N,/D0*%
X100330000Y-65024000D03*
%TO.P,J1,13,Pin_13*%
%TO.N,/D1*%
X100330000Y-67564000D03*
%TO.P,J1,14,Pin_14*%
%TO.N,/D2*%
X100330000Y-70104000D03*
%TO.P,J1,15,Pin_15*%
%TO.N,/D3*%
X100330000Y-72644000D03*
%TO.P,J1,16,Pin_16*%
%TO.N,/D4*%
X100330000Y-75184000D03*
%TO.P,J1,17,Pin_17*%
%TO.N,/D5*%
X100330000Y-77724000D03*
%TO.P,J1,18,Pin_18*%
%TO.N,/D6*%
X100330000Y-80264000D03*
%TO.P,J1,19,Pin_19*%
%TO.N,/D7*%
X100330000Y-82804000D03*
%TO.P,J1,20,Pin_20*%
%TO.N,GND*%
X100330000Y-85344000D03*
%TD*%
%TO.P,J2,1,Pin_1*%
%TO.N,/A0*%
X115570000Y-85344000D03*
%TO.P,J2,2,Pin_2*%
%TO.N,/A1*%
X115570000Y-82804000D03*
%TO.P,J2,3,Pin_3*%
%TO.N,unconnected-(J2-Pin_3-Pad3)*%
X115570000Y-80264000D03*
%TO.P,J2,4,Pin_4*%
%TO.N,Net-(IC3-E1)*%
X115570000Y-77724000D03*
%TO.P,J2,5,Pin_5*%
%TO.N,unconnected-(J2-Pin_5-Pad5)*%
X115570000Y-75184000D03*
%TO.P,J2,6,Pin_6*%
%TO.N,unconnected-(J2-Pin_6-Pad6)*%
X115570000Y-72644000D03*
%TO.P,J2,7,Pin_7*%
%TO.N,/RD_DATA*%
X115570000Y-70104000D03*
%TO.P,J2,8,Pin_8*%
%TO.N,unconnected-(J2-Pin_8-Pad8)*%
X115570000Y-67564000D03*
%TO.P,J2,9,Pin_9*%
%TO.N,/WR_DATA*%
X115570000Y-65024000D03*
%TO.P,J2,10,Pin_10*%
%TO.N,unconnected-(J2-Pin_10-Pad10)*%
X115570000Y-62484000D03*
%TO.P,J2,11,Pin_11*%
%TO.N,/~{TRK0}*%
X115570000Y-59944000D03*
%TO.P,J2,12,Pin_12*%
%TO.N,unconnected-(J2-Pin_12-Pad12)*%
X115570000Y-57404000D03*
%TO.P,J2,13,Pin_13*%
%TO.N,/~{WR_PROT}*%
X115570000Y-54864000D03*
%TO.P,J2,14,Pin_14*%
%TO.N,/~{INDEX}*%
X115570000Y-52324000D03*
%TO.P,J2,15,Pin_15*%
%TO.N,/WR_EN*%
X115570000Y-49784000D03*
%TO.P,J2,16,Pin_16*%
%TO.N,/STEP*%
X115570000Y-47244000D03*
%TO.P,J2,17,Pin_17*%
%TO.N,/DIR*%
X115570000Y-44704000D03*
%TO.P,J2,18,Pin_18*%
%TO.N,/MO*%
X115570000Y-42164000D03*
%TO.P,J2,19,Pin_19*%
%TO.N,unconnected-(J2-Pin_19-Pad19)*%
X115570000Y-39624000D03*
%TO.P,J2,20,Pin_20*%
%TO.N,+5V*%
X115570000Y-37084000D03*
%TD*%
D13*
%TO.N,+5V*%
X110236000Y-53340000D03*
X104394000Y-70866000D03*
%TO.N,GND*%
X105410000Y-73914000D03*
X106426000Y-52324000D03*
X107950000Y-72136000D03*
X102616000Y-37084000D03*
X99314000Y-51054000D03*
X112014000Y-77724000D03*
X106680000Y-84836000D03*
X106934000Y-65532000D03*
X106680000Y-82677000D03*
%TO.N,/DIR*%
X110998000Y-71882000D03*
%TO.N,/A1*%
X103378000Y-83820000D03*
%TO.N,/~{INDEX}*%
X113665000Y-54864000D03*
%TO.N,/STEP*%
X114808000Y-73914000D03*
%TO.N,/WR_EN*%
X113665000Y-52324000D03*
%TO.N,Net-(IC1-~{DDEN})*%
X110744000Y-80137000D03*
%TO.N,Net-(IC1-DRQ)*%
X112268000Y-48514000D03*
%TO.N,Net-(IC1-INTRQ)*%
X113030000Y-47244000D03*
%TO.N,Net-(IC3-E2)*%
X101600000Y-55626000D03*
X105156000Y-81407000D03*
%TO.N,Net-(IC3-Cp)*%
X106680000Y-59690000D03*
X105918000Y-64008000D03*
%TO.N,Net-(IC3-Q1)*%
X104834000Y-66040000D03*
%TO.N,Net-(IC3-Mr)*%
X104902000Y-75692000D03*
%TO.N,Net-(IC3-Q0)*%
X104648000Y-67310000D03*
%TO.N,Net-(IC2-Pad1)*%
X105156000Y-54864000D03*
X105285000Y-61722000D03*
%TO.N,Net-(J1-Pin_11)*%
X108964769Y-64260473D03*
X107188000Y-50546000D03*
%TO.N,Net-(J1-Pin_3)*%
X108204000Y-69596000D03*
%TD*%
D14*
%TO.N,+5V*%
X109982000Y-70866000D02*
X108966000Y-70866000D01*
X109728000Y-84074000D02*
X108966000Y-83312000D01*
X110236000Y-53340000D02*
X110236000Y-48092041D01*
X110236000Y-53340000D02*
X110236000Y-70612000D01*
X114300000Y-44028042D02*
X114300000Y-38354000D01*
X113030000Y-84074000D02*
X109728000Y-84074000D01*
X110236000Y-48092041D02*
X114300000Y-44028042D01*
X114300000Y-38354000D02*
X115570000Y-37084000D01*
X110236000Y-70612000D02*
X109982000Y-70866000D01*
X108966000Y-70866000D02*
X108966000Y-83312000D01*
X104394000Y-70866000D02*
X108966000Y-70866000D01*
%TO.N,GND*%
X106680000Y-73914000D02*
X106680000Y-72136000D01*
X108204000Y-54102000D02*
X108204000Y-63246000D01*
X105410000Y-73914000D02*
X106680000Y-73914000D01*
X106934000Y-64516000D02*
X106934000Y-65532000D01*
X106680000Y-82677000D02*
X106680000Y-84836000D01*
X106426000Y-52324000D02*
X108204000Y-54102000D01*
X106668269Y-84836323D02*
X106680000Y-84848054D01*
X106680000Y-72136000D02*
X107950000Y-72136000D01*
X108204000Y-63246000D02*
X106934000Y-64516000D01*
X106680000Y-82677000D02*
X106680000Y-73914000D01*
D15*
%TO.N,/D0*%
X99060000Y-62484000D02*
X99060000Y-63754000D01*
X99060000Y-63754000D02*
X100330000Y-65024000D01*
X97790000Y-61214000D02*
X99060000Y-62484000D01*
%TO.N,/D5*%
X99060000Y-76454000D02*
X100330000Y-77724000D01*
X97790000Y-73914000D02*
X99060000Y-75184000D01*
X99060000Y-75184000D02*
X99060000Y-76454000D01*
%TO.N,/~{TRK0}*%
X114300000Y-62441359D02*
X114300000Y-61826637D01*
X114300000Y-61826637D02*
X115570000Y-60556637D01*
X113005403Y-63735956D02*
X114300000Y-62441359D01*
%TO.N,/D3*%
X97790000Y-68834000D02*
X99060000Y-70104000D01*
X99060000Y-70104000D02*
X99060000Y-71374000D01*
X99060000Y-71374000D02*
X100330000Y-72644000D01*
%TO.N,/D7*%
X99060000Y-80264000D02*
X99060000Y-81534000D01*
X97790000Y-78994000D02*
X99060000Y-80264000D01*
X99060000Y-81534000D02*
X100330000Y-82804000D01*
%TO.N,/D1*%
X97765403Y-63735956D02*
X99035403Y-65005956D01*
X99035403Y-66269403D02*
X100330000Y-67564000D01*
X99035403Y-65005956D02*
X99035403Y-66269403D01*
%TO.N,/RD_DATA*%
X114300000Y-72644000D02*
X114300000Y-71374000D01*
X114300000Y-71374000D02*
X115570000Y-70104000D01*
X113030000Y-73914000D02*
X114300000Y-72644000D01*
%TO.N,/DIR*%
X111453000Y-71427000D02*
X110998000Y-71882000D01*
X111453000Y-47689628D02*
X111453000Y-71427000D01*
X114438630Y-44704000D02*
X111453000Y-47689628D01*
X115570000Y-44704000D02*
X114438630Y-44704000D01*
%TO.N,/A1*%
X101854000Y-83058000D02*
X101854000Y-61722000D01*
X102616000Y-83820000D02*
X101854000Y-83058000D01*
X101854000Y-61722000D02*
X101346000Y-61214000D01*
X99568000Y-61214000D02*
X99060000Y-60706000D01*
X101346000Y-61214000D02*
X99568000Y-61214000D01*
X99060000Y-60706000D02*
X99060000Y-59944000D01*
X99060000Y-59944000D02*
X97790000Y-58674000D01*
X103378000Y-83820000D02*
X102616000Y-83820000D01*
%TO.N,/A0*%
X104394000Y-82550000D02*
X104902000Y-83058000D01*
X102305000Y-60198000D02*
X102305000Y-81788000D01*
X99060000Y-57404000D02*
X99060000Y-58166000D01*
X104902000Y-84836000D02*
X105628000Y-85562000D01*
X99568000Y-58674000D02*
X100781000Y-58674000D01*
X102305000Y-81788000D02*
X103067000Y-82550000D01*
X104902000Y-83058000D02*
X104902000Y-84836000D01*
X103067000Y-82550000D02*
X104394000Y-82550000D01*
X99060000Y-58166000D02*
X99568000Y-58674000D01*
X105628000Y-85562000D02*
X115352000Y-85562000D01*
X97790000Y-56134000D02*
X99060000Y-57404000D01*
X100781000Y-58674000D02*
X102305000Y-60198000D01*
%TO.N,/D6*%
X99060000Y-78994000D02*
X100330000Y-80264000D01*
X99060000Y-77724000D02*
X99060000Y-78994000D01*
X97790000Y-76454000D02*
X99060000Y-77724000D01*
%TO.N,/D4*%
X99060000Y-72644000D02*
X99060000Y-73914000D01*
X99060000Y-73914000D02*
X100330000Y-75184000D01*
X97790000Y-71374000D02*
X99060000Y-72644000D01*
%TO.N,/~{WR_PROT}*%
X115570000Y-54864000D02*
X114300000Y-56134000D01*
X114300000Y-57404000D02*
X113030000Y-58674000D01*
X114300000Y-56134000D02*
X114300000Y-57404000D01*
%TO.N,/~{INDEX}*%
X113665000Y-54864000D02*
X115570000Y-52959000D01*
%TO.N,/STEP*%
X114300000Y-74422000D02*
X114808000Y-73914000D01*
X114300000Y-80264000D02*
X114300000Y-74422000D01*
X113030000Y-81534000D02*
X114300000Y-80264000D01*
%TO.N,/WR_DATA*%
X114300000Y-65024000D02*
X113030000Y-66294000D01*
X115570000Y-65024000D02*
X114300000Y-65024000D01*
%TO.N,/WR_EN*%
X113665000Y-52324000D02*
X115570000Y-50419000D01*
%TO.N,/D2*%
X97790000Y-66294000D02*
X99060000Y-67564000D01*
X99060000Y-67564000D02*
X99060000Y-68834000D01*
X99060000Y-68834000D02*
X100330000Y-70104000D01*
%TO.N,Net-(IC1-~{DDEN})*%
X110744000Y-73931000D02*
X110744000Y-80137000D01*
X111904000Y-72771000D02*
X110744000Y-73931000D01*
X113030000Y-56134000D02*
X111904000Y-57260000D01*
X111904000Y-57260000D02*
X111904000Y-72771000D01*
%TO.N,Net-(IC1-DRQ)*%
X113030000Y-53594000D02*
X111904000Y-52468000D01*
X111904000Y-48878000D02*
X112268000Y-48514000D01*
X111904000Y-52468000D02*
X111904000Y-48878000D01*
%TO.N,Net-(IC1-INTRQ)*%
X113030000Y-51054000D02*
X113030000Y-47244000D01*
%TO.N,Net-(IC3-E2)*%
X102756000Y-80658000D02*
X102756000Y-60011190D01*
X105156000Y-81407000D02*
X103505000Y-81407000D01*
X101911000Y-55937000D02*
X101600000Y-55626000D01*
X102756000Y-60011190D02*
X101911000Y-59166190D01*
X101911000Y-59166190D02*
X101911000Y-55937000D01*
X103505000Y-81407000D02*
X102756000Y-80658000D01*
%TO.N,Net-(IC3-Cp)*%
X106680000Y-59690000D02*
X106459242Y-59910758D01*
X106459242Y-63466758D02*
X105918000Y-64008000D01*
X106459242Y-59910758D02*
X106459242Y-63466758D01*
%TO.N,Net-(IC3-Q1)*%
X101907000Y-42719380D02*
X101907000Y-38661000D01*
X103715000Y-58418950D02*
X103715000Y-54701570D01*
X102358000Y-43170380D02*
X101907000Y-42719380D01*
X102813000Y-45273570D02*
X102358000Y-44818570D01*
X104560000Y-59263950D02*
X103715000Y-58418950D01*
X104560000Y-59263950D02*
X104560000Y-65766000D01*
X101907000Y-38661000D02*
X100330000Y-37084000D01*
X103715000Y-54701570D02*
X102809000Y-53795570D01*
X102809000Y-53795570D02*
X102809000Y-45277570D01*
X102809000Y-45277570D02*
X102813000Y-45273570D01*
X102358000Y-44818570D02*
X102358000Y-43170380D01*
X104560000Y-65766000D02*
X104834000Y-66040000D01*
%TO.N,Net-(IC3-Mr)*%
X101456000Y-45830000D02*
X100330000Y-44704000D01*
X101456000Y-54356000D02*
X101456000Y-45830000D01*
X103886000Y-75692000D02*
X104902000Y-75692000D01*
X102362000Y-55262000D02*
X101456000Y-54356000D01*
X102362000Y-58979380D02*
X102362000Y-55262000D01*
X103207000Y-59824380D02*
X103207000Y-75013000D01*
X103207000Y-75013000D02*
X103886000Y-75692000D01*
X103207000Y-59824380D02*
X102362000Y-58979380D01*
%TO.N,Net-(IC3-Q0)*%
X104109000Y-59450760D02*
X103264000Y-58605760D01*
X103264000Y-54888380D02*
X102358000Y-53982380D01*
X101456000Y-40750000D02*
X100330000Y-39624000D01*
X103264000Y-58605760D02*
X103264000Y-54888380D01*
X101456000Y-42906190D02*
X101456000Y-40750000D01*
X104648000Y-67310000D02*
X104109000Y-66771000D01*
X102358000Y-45456380D02*
X101907000Y-45005380D01*
X101907000Y-45005380D02*
X101907000Y-43357190D01*
X101907000Y-43357190D02*
X101456000Y-42906190D01*
X102358000Y-53982380D02*
X102358000Y-45456380D01*
X104109000Y-66771000D02*
X104109000Y-59450760D01*
%TO.N,Net-(IC2-Pad1)*%
X105011000Y-61448000D02*
X105011000Y-59077140D01*
X104394000Y-54864000D02*
X105156000Y-54864000D01*
X105011000Y-59077140D02*
X104166000Y-58232140D01*
X104166000Y-55092000D02*
X104394000Y-54864000D01*
X104166000Y-58232140D02*
X104166000Y-55092000D01*
X105285000Y-61722000D02*
X105011000Y-61448000D01*
%TO.N,Net-(J1-Pin_11)*%
X108966000Y-52324000D02*
X108966000Y-64510485D01*
X107188000Y-50546000D02*
X108966000Y-52324000D01*
%TO.N,Net-(J1-Pin_3)*%
X103658000Y-68860000D02*
X104394000Y-69596000D01*
X103658000Y-59637570D02*
X103658000Y-68860000D01*
X101456000Y-45192190D02*
X101907000Y-45643190D01*
X101456000Y-43544000D02*
X101456000Y-45192190D01*
X104394000Y-69596000D02*
X108204000Y-69596000D01*
X101907000Y-45643190D02*
X101907000Y-54169190D01*
X101907000Y-54169190D02*
X102813000Y-55075190D01*
X102813000Y-55075190D02*
X102813000Y-58792570D01*
X100330000Y-42418000D02*
X101456000Y-43544000D01*
X102813000Y-58792570D02*
X103658000Y-59637570D01*
%TD*%
%TA.AperFunction,Conductor*%
%TO.N,GND*%
G36*
X101229479Y-61557806D02*
G01*
X101510194Y-61838521D01*
X101528500Y-61882715D01*
X101528500Y-83100851D01*
X101528501Y-83100859D01*
X101550680Y-83183635D01*
X101550684Y-83183644D01*
X101593532Y-83257858D01*
X101593539Y-83257867D01*
X102353347Y-84017673D01*
X102353352Y-84017679D01*
X102355535Y-84019862D01*
X102416138Y-84080465D01*
X102453248Y-84101890D01*
X102453249Y-84101891D01*
X102453250Y-84101891D01*
X102490363Y-84123319D01*
X102573141Y-84145500D01*
X102573147Y-84145501D01*
X102662678Y-84145501D01*
X102662694Y-84145500D01*
X102836445Y-84145500D01*
X102880639Y-84163806D01*
X102890569Y-84176746D01*
X102897480Y-84188716D01*
X102897481Y-84188717D01*
X102897484Y-84188721D01*
X102959540Y-84250776D01*
X103009284Y-84300520D01*
X103122414Y-84365835D01*
X103146216Y-84379577D01*
X103146219Y-84379578D01*
X103155068Y-84381949D01*
X103298943Y-84420500D01*
X103298944Y-84420500D01*
X103457056Y-84420500D01*
X103457057Y-84420500D01*
X103609784Y-84379577D01*
X103746716Y-84300520D01*
X103858520Y-84188716D01*
X103937577Y-84051784D01*
X103978500Y-83899057D01*
X103978500Y-83740943D01*
X103947031Y-83623500D01*
X103937578Y-83588219D01*
X103937577Y-83588216D01*
X103929927Y-83574966D01*
X103858520Y-83451284D01*
X103746716Y-83339480D01*
X103640080Y-83277914D01*
X103609783Y-83260422D01*
X103609780Y-83260421D01*
X103457063Y-83219501D01*
X103457058Y-83219500D01*
X103457057Y-83219500D01*
X103298943Y-83219500D01*
X103298942Y-83219500D01*
X103298936Y-83219501D01*
X103146219Y-83260421D01*
X103146216Y-83260422D01*
X103063877Y-83307961D01*
X103009284Y-83339480D01*
X103009283Y-83339481D01*
X103009279Y-83339484D01*
X102897484Y-83451278D01*
X102897481Y-83451282D01*
X102897480Y-83451284D01*
X102890570Y-83463250D01*
X102883870Y-83468391D01*
X102880639Y-83476194D01*
X102865565Y-83482437D01*
X102852621Y-83492370D01*
X102836445Y-83494500D01*
X102776714Y-83494500D01*
X102732520Y-83476194D01*
X102197806Y-82941479D01*
X102179500Y-82897285D01*
X102179500Y-82273714D01*
X102197806Y-82229520D01*
X102242000Y-82211214D01*
X102286194Y-82229520D01*
X102804347Y-82747673D01*
X102804352Y-82747679D01*
X102806535Y-82749862D01*
X102867138Y-82810465D01*
X102904248Y-82831890D01*
X102904249Y-82831891D01*
X102904250Y-82831891D01*
X102941363Y-82853319D01*
X103024141Y-82875500D01*
X103024147Y-82875501D01*
X103113678Y-82875501D01*
X103113694Y-82875500D01*
X104233285Y-82875500D01*
X104277479Y-82893806D01*
X104558194Y-83174521D01*
X104576500Y-83218715D01*
X104576500Y-84878851D01*
X104576501Y-84878859D01*
X104598680Y-84961635D01*
X104598684Y-84961644D01*
X104641532Y-85035858D01*
X104641539Y-85035867D01*
X105428132Y-85822460D01*
X105428141Y-85822467D01*
X105502355Y-85865315D01*
X105502358Y-85865316D01*
X105502361Y-85865318D01*
X105502362Y-85865318D01*
X105502364Y-85865319D01*
X105553018Y-85878891D01*
X105585147Y-85887500D01*
X114696457Y-85887500D01*
X114740651Y-85905806D01*
X114748424Y-85915277D01*
X114792860Y-85981781D01*
X114932218Y-86121139D01*
X115048795Y-86199033D01*
X115075371Y-86238807D01*
X115066039Y-86285723D01*
X115026265Y-86312299D01*
X115014072Y-86313500D01*
X101349867Y-86313500D01*
X101305673Y-86295194D01*
X101287367Y-86251000D01*
X101305673Y-86206806D01*
X101321578Y-86190900D01*
X101321585Y-86190892D01*
X101441858Y-86025351D01*
X101534753Y-85843033D01*
X101534757Y-85843025D01*
X101597988Y-85648421D01*
X101629999Y-85446313D01*
X101630000Y-85446309D01*
X101630000Y-85241690D01*
X101629999Y-85241686D01*
X101597988Y-85039578D01*
X101534757Y-84844974D01*
X101534753Y-84844966D01*
X101441859Y-84662649D01*
X101409474Y-84618076D01*
X100730000Y-85297551D01*
X100730000Y-85291339D01*
X100702741Y-85189606D01*
X100650080Y-85098394D01*
X100575606Y-85023920D01*
X100484394Y-84971259D01*
X100382661Y-84944000D01*
X100376445Y-84944000D01*
X101055922Y-84264523D01*
X101011350Y-84232140D01*
X100829033Y-84139246D01*
X100829025Y-84139242D01*
X100634421Y-84076011D01*
X100432313Y-84044000D01*
X100227686Y-84044000D01*
X100025578Y-84076011D01*
X99830974Y-84139242D01*
X99830966Y-84139246D01*
X99648654Y-84232138D01*
X99648651Y-84232140D01*
X99604077Y-84264524D01*
X100283553Y-84944000D01*
X100277339Y-84944000D01*
X100175606Y-84971259D01*
X100084394Y-85023920D01*
X100009920Y-85098394D01*
X99957259Y-85189606D01*
X99930000Y-85291339D01*
X99930000Y-85297553D01*
X99250524Y-84618077D01*
X99218140Y-84662651D01*
X99218138Y-84662654D01*
X99125246Y-84844966D01*
X99125242Y-84844974D01*
X99062011Y-85039578D01*
X99030000Y-85241686D01*
X99030000Y-85446313D01*
X99062011Y-85648421D01*
X99125242Y-85843025D01*
X99125246Y-85843033D01*
X99218141Y-86025351D01*
X99338414Y-86190892D01*
X99338421Y-86190900D01*
X99354327Y-86206806D01*
X99372633Y-86251000D01*
X99354327Y-86295194D01*
X99310133Y-86313500D01*
X96883000Y-86313500D01*
X96838806Y-86295194D01*
X96820500Y-86251000D01*
X96820500Y-85093866D01*
X96838806Y-85049672D01*
X96883000Y-85031366D01*
X96927194Y-85049672D01*
X96927195Y-85049673D01*
X96943100Y-85065579D01*
X96943107Y-85065585D01*
X97108648Y-85185858D01*
X97290966Y-85278753D01*
X97290974Y-85278757D01*
X97485578Y-85341988D01*
X97687686Y-85373999D01*
X97687690Y-85374000D01*
X97892310Y-85374000D01*
X97892313Y-85373999D01*
X98094421Y-85341988D01*
X98289025Y-85278757D01*
X98289033Y-85278753D01*
X98471351Y-85185858D01*
X98515922Y-85153474D01*
X97836447Y-84474000D01*
X97842661Y-84474000D01*
X97944394Y-84446741D01*
X98035606Y-84394080D01*
X98110080Y-84319606D01*
X98162741Y-84228394D01*
X98190000Y-84126661D01*
X98190000Y-84120447D01*
X98869474Y-84799922D01*
X98901858Y-84755351D01*
X98994753Y-84573033D01*
X98994757Y-84573025D01*
X99057988Y-84378421D01*
X99073804Y-84278567D01*
X99073805Y-84278564D01*
X99089998Y-84176325D01*
X99090000Y-84176309D01*
X99090000Y-83971690D01*
X99089999Y-83971686D01*
X99057988Y-83769578D01*
X98994757Y-83574974D01*
X98994753Y-83574966D01*
X98901859Y-83392649D01*
X98869474Y-83348076D01*
X98190000Y-84027551D01*
X98190000Y-84021339D01*
X98162741Y-83919606D01*
X98110080Y-83828394D01*
X98035606Y-83753920D01*
X97944394Y-83701259D01*
X97842661Y-83674000D01*
X97836446Y-83674000D01*
X98515922Y-82994523D01*
X98471350Y-82962140D01*
X98289033Y-82869246D01*
X98289025Y-82869242D01*
X98094421Y-82806011D01*
X97892313Y-82774000D01*
X97687686Y-82774000D01*
X97485578Y-82806011D01*
X97290974Y-82869242D01*
X97290966Y-82869246D01*
X97108648Y-82962141D01*
X96943107Y-83082414D01*
X96943099Y-83082421D01*
X96927194Y-83098327D01*
X96883000Y-83116633D01*
X96838806Y-83098327D01*
X96820500Y-83054133D01*
X96820500Y-82089928D01*
X96838806Y-82045734D01*
X96883000Y-82027428D01*
X96927194Y-82045734D01*
X96934965Y-82055203D01*
X97012861Y-82171782D01*
X97152218Y-82311139D01*
X97316086Y-82420632D01*
X97498165Y-82496051D01*
X97691459Y-82534500D01*
X97888541Y-82534500D01*
X98081835Y-82496051D01*
X98263914Y-82420632D01*
X98427782Y-82311139D01*
X98567139Y-82171782D01*
X98676632Y-82007914D01*
X98752051Y-81825835D01*
X98752375Y-81824205D01*
X98752687Y-81823737D01*
X98752941Y-81822902D01*
X98753194Y-81822978D01*
X98778944Y-81784429D01*
X98825859Y-81775090D01*
X98857869Y-81792197D01*
X99399893Y-82334220D01*
X99418199Y-82378414D01*
X99413442Y-82402331D01*
X99367949Y-82512164D01*
X99329500Y-82705458D01*
X99329500Y-82902541D01*
X99367948Y-83095833D01*
X99376564Y-83116633D01*
X99443368Y-83277914D01*
X99552861Y-83441782D01*
X99692218Y-83581139D01*
X99856086Y-83690632D01*
X100038165Y-83766051D01*
X100231459Y-83804500D01*
X100428541Y-83804500D01*
X100621835Y-83766051D01*
X100803914Y-83690632D01*
X100967782Y-83581139D01*
X101107139Y-83441782D01*
X101216632Y-83277914D01*
X101292051Y-83095835D01*
X101330500Y-82902541D01*
X101330500Y-82705459D01*
X101292051Y-82512165D01*
X101216632Y-82330086D01*
X101107139Y-82166218D01*
X100967782Y-82026861D01*
X100939427Y-82007915D01*
X100877562Y-81966578D01*
X100803914Y-81917368D01*
X100621835Y-81841949D01*
X100621833Y-81841948D01*
X100428541Y-81803500D01*
X100231459Y-81803500D01*
X100038164Y-81841949D01*
X99928331Y-81887442D01*
X99880496Y-81887441D01*
X99860220Y-81873893D01*
X99403806Y-81417479D01*
X99385500Y-81373285D01*
X99385500Y-80857343D01*
X99403806Y-80813149D01*
X99448000Y-80794843D01*
X99492194Y-80813149D01*
X99499965Y-80822617D01*
X99552861Y-80901782D01*
X99692218Y-81041139D01*
X99856086Y-81150632D01*
X100038165Y-81226051D01*
X100231459Y-81264500D01*
X100428541Y-81264500D01*
X100621835Y-81226051D01*
X100803914Y-81150632D01*
X100967782Y-81041139D01*
X101107139Y-80901782D01*
X101216632Y-80737914D01*
X101292051Y-80555835D01*
X101330500Y-80362541D01*
X101330500Y-80165459D01*
X101292051Y-79972165D01*
X101216632Y-79790086D01*
X101107139Y-79626218D01*
X100967782Y-79486861D01*
X100939427Y-79467915D01*
X100803915Y-79377369D01*
X100803916Y-79377369D01*
X100803914Y-79377368D01*
X100621835Y-79301949D01*
X100621833Y-79301948D01*
X100428541Y-79263500D01*
X100231459Y-79263500D01*
X100038164Y-79301949D01*
X99928331Y-79347442D01*
X99880496Y-79347441D01*
X99860220Y-79333893D01*
X99403806Y-78877479D01*
X99385500Y-78833285D01*
X99385500Y-78317343D01*
X99403806Y-78273149D01*
X99448000Y-78254843D01*
X99492194Y-78273149D01*
X99499965Y-78282617D01*
X99552861Y-78361782D01*
X99692218Y-78501139D01*
X99856086Y-78610632D01*
X100038165Y-78686051D01*
X100231459Y-78724500D01*
X100428541Y-78724500D01*
X100621835Y-78686051D01*
X100803914Y-78610632D01*
X100967782Y-78501139D01*
X101107139Y-78361782D01*
X101216632Y-78197914D01*
X101292051Y-78015835D01*
X101330500Y-77822541D01*
X101330500Y-77625459D01*
X101292051Y-77432165D01*
X101216632Y-77250086D01*
X101107139Y-77086218D01*
X100967782Y-76946861D01*
X100939427Y-76927915D01*
X100803915Y-76837369D01*
X100803916Y-76837369D01*
X100803914Y-76837368D01*
X100621835Y-76761949D01*
X100621833Y-76761948D01*
X100428541Y-76723500D01*
X100231459Y-76723500D01*
X100038164Y-76761949D01*
X99928331Y-76807442D01*
X99880496Y-76807441D01*
X99860220Y-76793893D01*
X99403806Y-76337479D01*
X99385500Y-76293285D01*
X99385500Y-75777343D01*
X99403806Y-75733149D01*
X99448000Y-75714843D01*
X99492194Y-75733149D01*
X99499965Y-75742617D01*
X99552861Y-75821782D01*
X99692218Y-75961139D01*
X99856086Y-76070632D01*
X100038165Y-76146051D01*
X100231459Y-76184500D01*
X100428541Y-76184500D01*
X100621835Y-76146051D01*
X100803914Y-76070632D01*
X100967782Y-75961139D01*
X101107139Y-75821782D01*
X101216632Y-75657914D01*
X101292051Y-75475835D01*
X101330500Y-75282541D01*
X101330500Y-75085459D01*
X101292051Y-74892165D01*
X101216632Y-74710086D01*
X101107139Y-74546218D01*
X100967782Y-74406861D01*
X100939427Y-74387915D01*
X100803915Y-74297369D01*
X100803916Y-74297369D01*
X100803914Y-74297368D01*
X100663083Y-74239034D01*
X100621833Y-74221948D01*
X100428541Y-74183500D01*
X100231459Y-74183500D01*
X100038164Y-74221949D01*
X99928331Y-74267442D01*
X99880496Y-74267441D01*
X99860220Y-74253893D01*
X99403806Y-73797479D01*
X99385500Y-73753285D01*
X99385500Y-73237343D01*
X99403806Y-73193149D01*
X99448000Y-73174843D01*
X99492194Y-73193149D01*
X99499965Y-73202617D01*
X99523168Y-73237343D01*
X99544021Y-73268553D01*
X99552861Y-73281782D01*
X99692218Y-73421139D01*
X99856086Y-73530632D01*
X100038165Y-73606051D01*
X100231459Y-73644500D01*
X100428541Y-73644500D01*
X100621835Y-73606051D01*
X100803914Y-73530632D01*
X100967782Y-73421139D01*
X101107139Y-73281782D01*
X101216632Y-73117914D01*
X101292051Y-72935835D01*
X101330500Y-72742541D01*
X101330500Y-72545459D01*
X101292051Y-72352165D01*
X101216632Y-72170086D01*
X101107139Y-72006218D01*
X100967782Y-71866861D01*
X100803914Y-71757368D01*
X100621835Y-71681949D01*
X100621833Y-71681948D01*
X100428541Y-71643500D01*
X100231459Y-71643500D01*
X100038164Y-71681949D01*
X99928331Y-71727442D01*
X99880496Y-71727441D01*
X99860220Y-71713893D01*
X99403806Y-71257479D01*
X99385500Y-71213285D01*
X99385500Y-70697343D01*
X99403806Y-70653149D01*
X99448000Y-70634843D01*
X99492194Y-70653149D01*
X99499965Y-70662617D01*
X99552861Y-70741782D01*
X99692218Y-70881139D01*
X99856086Y-70990632D01*
X100038165Y-71066051D01*
X100231459Y-71104500D01*
X100428541Y-71104500D01*
X100621835Y-71066051D01*
X100803914Y-70990632D01*
X100967782Y-70881139D01*
X101107139Y-70741782D01*
X101216632Y-70577914D01*
X101292051Y-70395835D01*
X101330500Y-70202541D01*
X101330500Y-70005459D01*
X101292051Y-69812165D01*
X101216632Y-69630086D01*
X101107139Y-69466218D01*
X100967782Y-69326861D01*
X100939427Y-69307915D01*
X100856035Y-69252194D01*
X100803914Y-69217368D01*
X100621835Y-69141949D01*
X100621833Y-69141948D01*
X100428541Y-69103500D01*
X100231459Y-69103500D01*
X100038164Y-69141949D01*
X99928331Y-69187442D01*
X99880496Y-69187441D01*
X99860220Y-69173893D01*
X99403806Y-68717479D01*
X99385500Y-68673285D01*
X99385500Y-68157343D01*
X99403806Y-68113149D01*
X99448000Y-68094843D01*
X99492194Y-68113149D01*
X99499965Y-68122617D01*
X99552861Y-68201782D01*
X99692218Y-68341139D01*
X99856086Y-68450632D01*
X100038165Y-68526051D01*
X100231459Y-68564500D01*
X100428541Y-68564500D01*
X100621835Y-68526051D01*
X100803914Y-68450632D01*
X100967782Y-68341139D01*
X101107139Y-68201782D01*
X101216632Y-68037914D01*
X101292051Y-67855835D01*
X101330500Y-67662541D01*
X101330500Y-67465459D01*
X101292051Y-67272165D01*
X101216632Y-67090086D01*
X101107139Y-66926218D01*
X100967782Y-66786861D01*
X100939427Y-66767915D01*
X100803915Y-66677369D01*
X100803916Y-66677369D01*
X100803914Y-66677368D01*
X100621835Y-66601949D01*
X100621833Y-66601948D01*
X100428541Y-66563500D01*
X100231459Y-66563500D01*
X100038164Y-66601949D01*
X99928331Y-66647442D01*
X99880496Y-66647441D01*
X99860220Y-66633893D01*
X99379209Y-66152882D01*
X99360903Y-66108688D01*
X99360903Y-65580531D01*
X99379209Y-65536337D01*
X99423403Y-65518031D01*
X99467597Y-65536337D01*
X99475368Y-65545806D01*
X99552861Y-65661782D01*
X99692218Y-65801139D01*
X99856086Y-65910632D01*
X100038165Y-65986051D01*
X100231459Y-66024500D01*
X100428541Y-66024500D01*
X100621835Y-65986051D01*
X100803914Y-65910632D01*
X100967782Y-65801139D01*
X101107139Y-65661782D01*
X101216632Y-65497914D01*
X101292051Y-65315835D01*
X101330500Y-65122541D01*
X101330500Y-64925459D01*
X101292051Y-64732165D01*
X101216632Y-64550086D01*
X101107139Y-64386218D01*
X100967782Y-64246861D01*
X100939427Y-64227915D01*
X100885848Y-64192114D01*
X100803914Y-64137368D01*
X100621835Y-64061949D01*
X100621833Y-64061948D01*
X100428541Y-64023500D01*
X100231459Y-64023500D01*
X100038164Y-64061949D01*
X99928331Y-64107442D01*
X99880496Y-64107441D01*
X99860220Y-64093893D01*
X99403806Y-63637479D01*
X99385500Y-63593285D01*
X99385500Y-63077343D01*
X99403806Y-63033149D01*
X99448000Y-63014843D01*
X99492194Y-63033149D01*
X99499965Y-63042617D01*
X99552861Y-63121782D01*
X99692218Y-63261139D01*
X99856086Y-63370632D01*
X100038165Y-63446051D01*
X100231459Y-63484500D01*
X100428541Y-63484500D01*
X100621835Y-63446051D01*
X100803914Y-63370632D01*
X100967782Y-63261139D01*
X101107139Y-63121782D01*
X101216632Y-62957914D01*
X101292051Y-62775835D01*
X101330500Y-62582541D01*
X101330500Y-62385459D01*
X101292051Y-62192165D01*
X101216632Y-62010086D01*
X101107139Y-61846218D01*
X100967782Y-61706861D01*
X100959007Y-61700998D01*
X100926883Y-61679533D01*
X100888619Y-61653966D01*
X100862044Y-61614193D01*
X100871376Y-61567277D01*
X100911150Y-61540701D01*
X100923343Y-61539500D01*
X101185285Y-61539500D01*
X101229479Y-61557806D01*
G37*
%TD.AperFunction*%
%TA.AperFunction,Conductor*%
G36*
X115058266Y-36132806D02*
G01*
X115076572Y-36177000D01*
X115058266Y-36221194D01*
X115048795Y-36228967D01*
X114932218Y-36306860D01*
X114792860Y-36446218D01*
X114683369Y-36610084D01*
X114607948Y-36792166D01*
X114569500Y-36985458D01*
X114569500Y-37182541D01*
X114606925Y-37370688D01*
X114597593Y-37417604D01*
X114589820Y-37427075D01*
X113939515Y-38077380D01*
X113939508Y-38077389D01*
X113880202Y-38180109D01*
X113878072Y-38188060D01*
X113878071Y-38188064D01*
X113849500Y-38294686D01*
X113849500Y-43815549D01*
X113831194Y-43859743D01*
X109875515Y-47815421D01*
X109875508Y-47815430D01*
X109816202Y-47918150D01*
X109814072Y-47926101D01*
X109814071Y-47926105D01*
X109785500Y-48032727D01*
X109785500Y-52915376D01*
X109767194Y-52959570D01*
X109755484Y-52971279D01*
X109755481Y-52971283D01*
X109755480Y-52971284D01*
X109731993Y-53011964D01*
X109676422Y-53108216D01*
X109676421Y-53108219D01*
X109635501Y-53260936D01*
X109635500Y-53260944D01*
X109635500Y-53419055D01*
X109635501Y-53419063D01*
X109676421Y-53571780D01*
X109676422Y-53571783D01*
X109676423Y-53571784D01*
X109755480Y-53708716D01*
X109755484Y-53708720D01*
X109767194Y-53720430D01*
X109785500Y-53764624D01*
X109785500Y-70353000D01*
X109767194Y-70397194D01*
X109723000Y-70415500D01*
X104818624Y-70415500D01*
X104774430Y-70397194D01*
X104762720Y-70385484D01*
X104762716Y-70385480D01*
X104666464Y-70329909D01*
X104625783Y-70306422D01*
X104625780Y-70306421D01*
X104473063Y-70265501D01*
X104473058Y-70265500D01*
X104473057Y-70265500D01*
X104314943Y-70265500D01*
X104314942Y-70265500D01*
X104314936Y-70265501D01*
X104162219Y-70306421D01*
X104162216Y-70306422D01*
X104072213Y-70358386D01*
X104025284Y-70385480D01*
X104025283Y-70385481D01*
X104025279Y-70385484D01*
X103913484Y-70497279D01*
X103913481Y-70497283D01*
X103834422Y-70634216D01*
X103834421Y-70634219D01*
X103793501Y-70786936D01*
X103793500Y-70786944D01*
X103793500Y-70945055D01*
X103793501Y-70945063D01*
X103834421Y-71097780D01*
X103834422Y-71097783D01*
X103847026Y-71119613D01*
X103913480Y-71234716D01*
X104025284Y-71346520D01*
X104162216Y-71425577D01*
X104162219Y-71425578D01*
X104255681Y-71450621D01*
X104314943Y-71466500D01*
X104314944Y-71466500D01*
X104473056Y-71466500D01*
X104473057Y-71466500D01*
X104625784Y-71425577D01*
X104762716Y-71346520D01*
X104774430Y-71334806D01*
X104818624Y-71316500D01*
X108453000Y-71316500D01*
X108497194Y-71334806D01*
X108515500Y-71379000D01*
X108515500Y-83371313D01*
X108531680Y-83431696D01*
X108535726Y-83446793D01*
X108543604Y-83476194D01*
X108546202Y-83485890D01*
X108546203Y-83485892D01*
X108605508Y-83588610D01*
X108605515Y-83588619D01*
X109451380Y-84434485D01*
X109451384Y-84434488D01*
X109451386Y-84434490D01*
X109554113Y-84493799D01*
X109554115Y-84493799D01*
X109554116Y-84493800D01*
X109562184Y-84495961D01*
X109578326Y-84500286D01*
X109668691Y-84524500D01*
X112094316Y-84524500D01*
X112138510Y-84542806D01*
X112146283Y-84552277D01*
X112228474Y-84675285D01*
X112252861Y-84711782D01*
X112392218Y-84851139D01*
X112556086Y-84960632D01*
X112738165Y-85036051D01*
X112931459Y-85074500D01*
X113128541Y-85074500D01*
X113321835Y-85036051D01*
X113503914Y-84960632D01*
X113667782Y-84851139D01*
X113807139Y-84711782D01*
X113916632Y-84547914D01*
X113992051Y-84365835D01*
X114030500Y-84172541D01*
X114030500Y-83975459D01*
X113992051Y-83782165D01*
X113916632Y-83600086D01*
X113807139Y-83436218D01*
X113667782Y-83296861D01*
X113639427Y-83277915D01*
X113503915Y-83187369D01*
X113503916Y-83187369D01*
X113503914Y-83187368D01*
X113354299Y-83125396D01*
X113321833Y-83111948D01*
X113128541Y-83073500D01*
X112931459Y-83073500D01*
X112738166Y-83111948D01*
X112597334Y-83170282D01*
X112565099Y-83183635D01*
X112556084Y-83187369D01*
X112392218Y-83296860D01*
X112252860Y-83436218D01*
X112146283Y-83595723D01*
X112106509Y-83622299D01*
X112094316Y-83623500D01*
X109940492Y-83623500D01*
X109896298Y-83605194D01*
X109434806Y-83143702D01*
X109416500Y-83099508D01*
X109416500Y-71379000D01*
X109434806Y-71334806D01*
X109479000Y-71316500D01*
X110041309Y-71316500D01*
X110131673Y-71292286D01*
X110131674Y-71292286D01*
X110155880Y-71285801D01*
X110155880Y-71285800D01*
X110155887Y-71285799D01*
X110258614Y-71226489D01*
X110596489Y-70888614D01*
X110655799Y-70785887D01*
X110662286Y-70761673D01*
X110686500Y-70671309D01*
X110686500Y-53764624D01*
X110704806Y-53720430D01*
X110716520Y-53708716D01*
X110795577Y-53571784D01*
X110836500Y-53419057D01*
X110836500Y-53260943D01*
X110795577Y-53108216D01*
X110716520Y-52971284D01*
X110704806Y-52959570D01*
X110686500Y-52915376D01*
X110686500Y-48304532D01*
X110704806Y-48260338D01*
X111020806Y-47944338D01*
X111065000Y-47926032D01*
X111109194Y-47944338D01*
X111127500Y-47988532D01*
X111127500Y-71219000D01*
X111109194Y-71263194D01*
X111065000Y-71281500D01*
X110918943Y-71281500D01*
X110918942Y-71281500D01*
X110918936Y-71281501D01*
X110766219Y-71322421D01*
X110766216Y-71322422D01*
X110669964Y-71377993D01*
X110629284Y-71401480D01*
X110629283Y-71401481D01*
X110629279Y-71401484D01*
X110517484Y-71513279D01*
X110517481Y-71513283D01*
X110517480Y-71513284D01*
X110504215Y-71536260D01*
X110438422Y-71650216D01*
X110438421Y-71650219D01*
X110397501Y-71802936D01*
X110397500Y-71802944D01*
X110397500Y-71961055D01*
X110397501Y-71961063D01*
X110438421Y-72113780D01*
X110438422Y-72113783D01*
X110438423Y-72113784D01*
X110517480Y-72250716D01*
X110629284Y-72362520D01*
X110766216Y-72441577D01*
X110766219Y-72441578D01*
X110859681Y-72466621D01*
X110918943Y-72482500D01*
X110918944Y-72482500D01*
X111077056Y-72482500D01*
X111077057Y-72482500D01*
X111229784Y-72441577D01*
X111366716Y-72362520D01*
X111471806Y-72257430D01*
X111516000Y-72239124D01*
X111560194Y-72257430D01*
X111578500Y-72301624D01*
X111578500Y-72610284D01*
X111560194Y-72654478D01*
X110483539Y-73731132D01*
X110483532Y-73731141D01*
X110440684Y-73805356D01*
X110440682Y-73805361D01*
X110432755Y-73834945D01*
X110418501Y-73888140D01*
X110418500Y-73888148D01*
X110418500Y-79595445D01*
X110400194Y-79639639D01*
X110387253Y-79649569D01*
X110377620Y-79655131D01*
X110375282Y-79656481D01*
X110375278Y-79656484D01*
X110263484Y-79768279D01*
X110263481Y-79768283D01*
X110184422Y-79905216D01*
X110184421Y-79905219D01*
X110143501Y-80057936D01*
X110143500Y-80057944D01*
X110143500Y-80216055D01*
X110143501Y-80216063D01*
X110184421Y-80368780D01*
X110184422Y-80368783D01*
X110184423Y-80368784D01*
X110263480Y-80505716D01*
X110375284Y-80617520D01*
X110512216Y-80696577D01*
X110512219Y-80696578D01*
X110605681Y-80721621D01*
X110664943Y-80737500D01*
X110664944Y-80737500D01*
X110823056Y-80737500D01*
X110823057Y-80737500D01*
X110975784Y-80696577D01*
X111112716Y-80617520D01*
X111224520Y-80505716D01*
X111303577Y-80368784D01*
X111344500Y-80216057D01*
X111344500Y-80057943D01*
X111303577Y-79905216D01*
X111224520Y-79768284D01*
X111178859Y-79722623D01*
X111112721Y-79656484D01*
X111112717Y-79656481D01*
X111112716Y-79656480D01*
X111100749Y-79649570D01*
X111071630Y-79611621D01*
X111069500Y-79595445D01*
X111069500Y-74091713D01*
X111087805Y-74047520D01*
X112098715Y-73036609D01*
X112098720Y-73036606D01*
X112103860Y-73031465D01*
X112103862Y-73031465D01*
X112164465Y-72970862D01*
X112172292Y-72957304D01*
X112197584Y-72913500D01*
X112197584Y-72913497D01*
X112207318Y-72896639D01*
X112229501Y-72813853D01*
X112229501Y-72728147D01*
X112229501Y-72724323D01*
X112229500Y-72724305D01*
X112229500Y-72139309D01*
X112247806Y-72095115D01*
X112292000Y-72076809D01*
X112336194Y-72095115D01*
X112392218Y-72151139D01*
X112556086Y-72260632D01*
X112738165Y-72336051D01*
X112931459Y-72374500D01*
X113128541Y-72374500D01*
X113321835Y-72336051D01*
X113503914Y-72260632D01*
X113667782Y-72151139D01*
X113807139Y-72011782D01*
X113860033Y-71932619D01*
X113899807Y-71906044D01*
X113946723Y-71915376D01*
X113973299Y-71955150D01*
X113974500Y-71967343D01*
X113974500Y-72483284D01*
X113956194Y-72527478D01*
X113499778Y-72983893D01*
X113455584Y-73002199D01*
X113431667Y-72997442D01*
X113321835Y-72951949D01*
X113128541Y-72913500D01*
X112931459Y-72913500D01*
X112738166Y-72951948D01*
X112628334Y-72997442D01*
X112589753Y-73013423D01*
X112556084Y-73027369D01*
X112392218Y-73136860D01*
X112252860Y-73276218D01*
X112143369Y-73440084D01*
X112067948Y-73622166D01*
X112029500Y-73815458D01*
X112029500Y-74012541D01*
X112067948Y-74205833D01*
X112074702Y-74222138D01*
X112143368Y-74387914D01*
X112252861Y-74551782D01*
X112392218Y-74691139D01*
X112556086Y-74800632D01*
X112738165Y-74876051D01*
X112931459Y-74914500D01*
X113128541Y-74914500D01*
X113321835Y-74876051D01*
X113503914Y-74800632D01*
X113667782Y-74691139D01*
X113807139Y-74551782D01*
X113860033Y-74472619D01*
X113899807Y-74446044D01*
X113946723Y-74455376D01*
X113973299Y-74495150D01*
X113974500Y-74507343D01*
X113974500Y-75860656D01*
X113956194Y-75904850D01*
X113912000Y-75923156D01*
X113867806Y-75904850D01*
X113860033Y-75895379D01*
X113807139Y-75816218D01*
X113667781Y-75676860D01*
X113503915Y-75567369D01*
X113503916Y-75567369D01*
X113503914Y-75567368D01*
X113321835Y-75491949D01*
X113321833Y-75491948D01*
X113128541Y-75453500D01*
X112931459Y-75453500D01*
X112738166Y-75491948D01*
X112556084Y-75567369D01*
X112392218Y-75676860D01*
X112252860Y-75816218D01*
X112143369Y-75980084D01*
X112067948Y-76162166D01*
X112029500Y-76355458D01*
X112029500Y-76552541D01*
X112067948Y-76745833D01*
X112085034Y-76787083D01*
X112143368Y-76927914D01*
X112252861Y-77091782D01*
X112392218Y-77231139D01*
X112556086Y-77340632D01*
X112738165Y-77416051D01*
X112931459Y-77454500D01*
X113128541Y-77454500D01*
X113321835Y-77416051D01*
X113503914Y-77340632D01*
X113667782Y-77231139D01*
X113807139Y-77091782D01*
X113860033Y-77012619D01*
X113899807Y-76986044D01*
X113946723Y-76995376D01*
X113973299Y-77035150D01*
X113974500Y-77047343D01*
X113974500Y-78400656D01*
X113956194Y-78444850D01*
X113912000Y-78463156D01*
X113867806Y-78444850D01*
X113860033Y-78435379D01*
X113807139Y-78356218D01*
X113667781Y-78216860D01*
X113503915Y-78107369D01*
X113503916Y-78107369D01*
X113503914Y-78107368D01*
X113321835Y-78031949D01*
X113321833Y-78031948D01*
X113128541Y-77993500D01*
X112931459Y-77993500D01*
X112738166Y-78031948D01*
X112556084Y-78107369D01*
X112392218Y-78216860D01*
X112252860Y-78356218D01*
X112143369Y-78520084D01*
X112067948Y-78702166D01*
X112029500Y-78895458D01*
X112029500Y-79092541D01*
X112067948Y-79285833D01*
X112085034Y-79327083D01*
X112143368Y-79467914D01*
X112252861Y-79631782D01*
X112392218Y-79771139D01*
X112556086Y-79880632D01*
X112738165Y-79956051D01*
X112931459Y-79994500D01*
X113128541Y-79994500D01*
X113321835Y-79956051D01*
X113503914Y-79880632D01*
X113667782Y-79771139D01*
X113807139Y-79631782D01*
X113860033Y-79552619D01*
X113899807Y-79526044D01*
X113946723Y-79535376D01*
X113973299Y-79575150D01*
X113974500Y-79587343D01*
X113974500Y-80103284D01*
X113956194Y-80147478D01*
X113499778Y-80603893D01*
X113455584Y-80622199D01*
X113431667Y-80617442D01*
X113321835Y-80571949D01*
X113128541Y-80533500D01*
X112931459Y-80533500D01*
X112738166Y-80571948D01*
X112628334Y-80617442D01*
X112589753Y-80633423D01*
X112556084Y-80647369D01*
X112392218Y-80756860D01*
X112252860Y-80896218D01*
X112143369Y-81060084D01*
X112067948Y-81242166D01*
X112029500Y-81435458D01*
X112029500Y-81632541D01*
X112067948Y-81825833D01*
X112085034Y-81867083D01*
X112143368Y-82007914D01*
X112252861Y-82171782D01*
X112392218Y-82311139D01*
X112556086Y-82420632D01*
X112738165Y-82496051D01*
X112931459Y-82534500D01*
X113128541Y-82534500D01*
X113321835Y-82496051D01*
X113503914Y-82420632D01*
X113667782Y-82311139D01*
X113807139Y-82171782D01*
X113916632Y-82007914D01*
X113992051Y-81825835D01*
X114030500Y-81632541D01*
X114030500Y-81435459D01*
X113992051Y-81242165D01*
X113946557Y-81132331D01*
X113946558Y-81084496D01*
X113960106Y-81064220D01*
X114239121Y-80785205D01*
X114502131Y-80522195D01*
X114546324Y-80503890D01*
X114590518Y-80522196D01*
X114606944Y-80552925D01*
X114607056Y-80552892D01*
X114607226Y-80553454D01*
X114607622Y-80554195D01*
X114607949Y-80555835D01*
X114666246Y-80696577D01*
X114683367Y-80737912D01*
X114683368Y-80737915D01*
X114789143Y-80896218D01*
X114792861Y-80901782D01*
X114932218Y-81041139D01*
X115096086Y-81150632D01*
X115278165Y-81226051D01*
X115471459Y-81264500D01*
X115668541Y-81264500D01*
X115861835Y-81226051D01*
X116043914Y-81150632D01*
X116207782Y-81041139D01*
X116347139Y-80901782D01*
X116425033Y-80785204D01*
X116464807Y-80758629D01*
X116511723Y-80767961D01*
X116538299Y-80807735D01*
X116539500Y-80819928D01*
X116539500Y-82248071D01*
X116521194Y-82292265D01*
X116477000Y-82310571D01*
X116432806Y-82292265D01*
X116425033Y-82282794D01*
X116347139Y-82166218D01*
X116207781Y-82026860D01*
X116117562Y-81966578D01*
X116043914Y-81917368D01*
X115861835Y-81841949D01*
X115861833Y-81841948D01*
X115668541Y-81803500D01*
X115471459Y-81803500D01*
X115278166Y-81841948D01*
X115168334Y-81887442D01*
X115129753Y-81903423D01*
X115096084Y-81917369D01*
X114932218Y-82026860D01*
X114792860Y-82166218D01*
X114683369Y-82330084D01*
X114607948Y-82512166D01*
X114569500Y-82705458D01*
X114569500Y-82902541D01*
X114607948Y-83095833D01*
X114616564Y-83116633D01*
X114683368Y-83277914D01*
X114792861Y-83441782D01*
X114932218Y-83581139D01*
X115096086Y-83690632D01*
X115278165Y-83766051D01*
X115471459Y-83804500D01*
X115668541Y-83804500D01*
X115861835Y-83766051D01*
X116043914Y-83690632D01*
X116207782Y-83581139D01*
X116347139Y-83441782D01*
X116425033Y-83325204D01*
X116464807Y-83298629D01*
X116511723Y-83307961D01*
X116538299Y-83347735D01*
X116539500Y-83359928D01*
X116539500Y-84788071D01*
X116521194Y-84832265D01*
X116477000Y-84850571D01*
X116432806Y-84832265D01*
X116425033Y-84822794D01*
X116347139Y-84706218D01*
X116207781Y-84566860D01*
X116098437Y-84493799D01*
X116043914Y-84457368D01*
X115861835Y-84381949D01*
X115861833Y-84381948D01*
X115668541Y-84343500D01*
X115471459Y-84343500D01*
X115278166Y-84381948D01*
X115096084Y-84457369D01*
X114932218Y-84566860D01*
X114792860Y-84706218D01*
X114683368Y-84870084D01*
X114683367Y-84870087D01*
X114607948Y-85052168D01*
X114603506Y-85074499D01*
X114581356Y-85185858D01*
X114581289Y-85186193D01*
X114554713Y-85225967D01*
X114519990Y-85236500D01*
X105788715Y-85236500D01*
X105744521Y-85218194D01*
X105245806Y-84719479D01*
X105227500Y-84675285D01*
X105227500Y-83015148D01*
X105227498Y-83015140D01*
X105205319Y-82932365D01*
X105205318Y-82932362D01*
X105185066Y-82897285D01*
X105162465Y-82858138D01*
X105101862Y-82797535D01*
X104853940Y-82549613D01*
X104593867Y-82289539D01*
X104593858Y-82289532D01*
X104519644Y-82246684D01*
X104519635Y-82246680D01*
X104436859Y-82224501D01*
X104436854Y-82224500D01*
X104436853Y-82224500D01*
X104436852Y-82224500D01*
X103227714Y-82224500D01*
X103183520Y-82206194D01*
X102648806Y-81671479D01*
X102630500Y-81627285D01*
X102630500Y-81143715D01*
X102648806Y-81099521D01*
X102693000Y-81081215D01*
X102737194Y-81099521D01*
X103305132Y-81667460D01*
X103305141Y-81667467D01*
X103379355Y-81710315D01*
X103379358Y-81710316D01*
X103379361Y-81710318D01*
X103379362Y-81710318D01*
X103379364Y-81710319D01*
X103430018Y-81723891D01*
X103462147Y-81732500D01*
X103547853Y-81732500D01*
X104614445Y-81732500D01*
X104658639Y-81750806D01*
X104668569Y-81763746D01*
X104675119Y-81775090D01*
X104675481Y-81775717D01*
X104675484Y-81775721D01*
X104741712Y-81841948D01*
X104787284Y-81887520D01*
X104924216Y-81966577D01*
X104924219Y-81966578D01*
X105017681Y-81991621D01*
X105076943Y-82007500D01*
X105076944Y-82007500D01*
X105235056Y-82007500D01*
X105235057Y-82007500D01*
X105387784Y-81966577D01*
X105524716Y-81887520D01*
X105636520Y-81775716D01*
X105715577Y-81638784D01*
X105756500Y-81486057D01*
X105756500Y-81327943D01*
X105715577Y-81175216D01*
X105636520Y-81038284D01*
X105524716Y-80926480D01*
X105428464Y-80870909D01*
X105387783Y-80847422D01*
X105387780Y-80847421D01*
X105235063Y-80806501D01*
X105235058Y-80806500D01*
X105235057Y-80806500D01*
X105076943Y-80806500D01*
X105076942Y-80806500D01*
X105076936Y-80806501D01*
X104924219Y-80847421D01*
X104924216Y-80847422D01*
X104839700Y-80896218D01*
X104787284Y-80926480D01*
X104787283Y-80926481D01*
X104787279Y-80926484D01*
X104675484Y-81038278D01*
X104675481Y-81038282D01*
X104675480Y-81038284D01*
X104668570Y-81050250D01*
X104630621Y-81079370D01*
X104614445Y-81081500D01*
X103665715Y-81081500D01*
X103621521Y-81063194D01*
X103099806Y-80541479D01*
X103081500Y-80497285D01*
X103081500Y-75498715D01*
X103099806Y-75454521D01*
X103144000Y-75436215D01*
X103188194Y-75454521D01*
X103686132Y-75952460D01*
X103686141Y-75952467D01*
X103760355Y-75995315D01*
X103760358Y-75995316D01*
X103760361Y-75995318D01*
X103760362Y-75995318D01*
X103760364Y-75995319D01*
X103811018Y-76008891D01*
X103843147Y-76017500D01*
X103928853Y-76017500D01*
X104360445Y-76017500D01*
X104404639Y-76035806D01*
X104414569Y-76048746D01*
X104421480Y-76060716D01*
X104421481Y-76060717D01*
X104421484Y-76060721D01*
X104480556Y-76119792D01*
X104533284Y-76172520D01*
X104670216Y-76251577D01*
X104670219Y-76251578D01*
X104763681Y-76276621D01*
X104822943Y-76292500D01*
X104822944Y-76292500D01*
X104981056Y-76292500D01*
X104981057Y-76292500D01*
X105133784Y-76251577D01*
X105270716Y-76172520D01*
X105382520Y-76060716D01*
X105461577Y-75923784D01*
X105502500Y-75771057D01*
X105502500Y-75612943D01*
X105461577Y-75460216D01*
X105382520Y-75323284D01*
X105270716Y-75211480D01*
X105174464Y-75155909D01*
X105133783Y-75132422D01*
X105133780Y-75132421D01*
X104981063Y-75091501D01*
X104981058Y-75091500D01*
X104981057Y-75091500D01*
X104822943Y-75091500D01*
X104822942Y-75091500D01*
X104822936Y-75091501D01*
X104670219Y-75132421D01*
X104670216Y-75132422D01*
X104573964Y-75187993D01*
X104533284Y-75211480D01*
X104533283Y-75211481D01*
X104533279Y-75211484D01*
X104421484Y-75323278D01*
X104421481Y-75323282D01*
X104421480Y-75323284D01*
X104414570Y-75335250D01*
X104376621Y-75364370D01*
X104360445Y-75366500D01*
X104046715Y-75366500D01*
X104002521Y-75348194D01*
X103550806Y-74896479D01*
X103532500Y-74852285D01*
X103532500Y-69345715D01*
X103550806Y-69301521D01*
X103595000Y-69283215D01*
X103639194Y-69301521D01*
X104194132Y-69856460D01*
X104194141Y-69856467D01*
X104268355Y-69899315D01*
X104268358Y-69899316D01*
X104268361Y-69899318D01*
X104268362Y-69899318D01*
X104268364Y-69899319D01*
X104319018Y-69912891D01*
X104351147Y-69921500D01*
X107662445Y-69921500D01*
X107706639Y-69939806D01*
X107716569Y-69952746D01*
X107723480Y-69964716D01*
X107723481Y-69964717D01*
X107723484Y-69964721D01*
X107835279Y-70076515D01*
X107835284Y-70076520D01*
X107972216Y-70155577D01*
X107972219Y-70155578D01*
X108065681Y-70180621D01*
X108124943Y-70196500D01*
X108124944Y-70196500D01*
X108283056Y-70196500D01*
X108283057Y-70196500D01*
X108435784Y-70155577D01*
X108572716Y-70076520D01*
X108684520Y-69964716D01*
X108763577Y-69827784D01*
X108804500Y-69675057D01*
X108804500Y-69516943D01*
X108783031Y-69436819D01*
X108763578Y-69364219D01*
X108763577Y-69364216D01*
X108684520Y-69227284D01*
X108572716Y-69115480D01*
X108476464Y-69059909D01*
X108435783Y-69036422D01*
X108435780Y-69036421D01*
X108283063Y-68995501D01*
X108283058Y-68995500D01*
X108283057Y-68995500D01*
X108124943Y-68995500D01*
X108124942Y-68995500D01*
X108124936Y-68995501D01*
X107972219Y-69036421D01*
X107972216Y-69036422D01*
X107905242Y-69075090D01*
X107835284Y-69115480D01*
X107835283Y-69115481D01*
X107835279Y-69115484D01*
X107723484Y-69227278D01*
X107723481Y-69227282D01*
X107723480Y-69227284D01*
X107716570Y-69239250D01*
X107678621Y-69268370D01*
X107662445Y-69270500D01*
X104554715Y-69270500D01*
X104510521Y-69252194D01*
X104001806Y-68743479D01*
X103983500Y-68699285D01*
X103983500Y-67593305D01*
X104001806Y-67549111D01*
X104046000Y-67530805D01*
X104090194Y-67549111D01*
X104100124Y-67562051D01*
X104167480Y-67678716D01*
X104279284Y-67790520D01*
X104392414Y-67855835D01*
X104416216Y-67869577D01*
X104416219Y-67869578D01*
X104425068Y-67871949D01*
X104568943Y-67910500D01*
X104568944Y-67910500D01*
X104727056Y-67910500D01*
X104727057Y-67910500D01*
X104879784Y-67869577D01*
X105016716Y-67790520D01*
X105128520Y-67678716D01*
X105207577Y-67541784D01*
X105248500Y-67389057D01*
X105248500Y-67230943D01*
X105207577Y-67078216D01*
X105128520Y-66941284D01*
X105016716Y-66829480D01*
X104890374Y-66756537D01*
X104861255Y-66718587D01*
X104867498Y-66671161D01*
X104905449Y-66642041D01*
X104912665Y-66640605D01*
X104913057Y-66640500D01*
X105065784Y-66599577D01*
X105202716Y-66520520D01*
X105314520Y-66408716D01*
X105393577Y-66271784D01*
X105434500Y-66119057D01*
X105434500Y-65960943D01*
X105393577Y-65808216D01*
X105314520Y-65671284D01*
X105202716Y-65559480D01*
X105065784Y-65480423D01*
X105065783Y-65480422D01*
X105065782Y-65480422D01*
X104931823Y-65444527D01*
X104893873Y-65415407D01*
X104885500Y-65384157D01*
X104885500Y-63928944D01*
X105317500Y-63928944D01*
X105317500Y-64087055D01*
X105317501Y-64087063D01*
X105358421Y-64239780D01*
X105358422Y-64239783D01*
X105358423Y-64239784D01*
X105437480Y-64376716D01*
X105549284Y-64488520D01*
X105663081Y-64554220D01*
X105686216Y-64567577D01*
X105686219Y-64567578D01*
X105779681Y-64592621D01*
X105838943Y-64608500D01*
X105838944Y-64608500D01*
X105997056Y-64608500D01*
X105997057Y-64608500D01*
X106149784Y-64567577D01*
X106286716Y-64488520D01*
X106398520Y-64376716D01*
X106477577Y-64239784D01*
X106518500Y-64087057D01*
X106518500Y-63928943D01*
X106518499Y-63928937D01*
X106514924Y-63915595D01*
X106521167Y-63868168D01*
X106531096Y-63855228D01*
X106653957Y-63732368D01*
X106653962Y-63732364D01*
X106659102Y-63727223D01*
X106659104Y-63727223D01*
X106719707Y-63666620D01*
X106741796Y-63628361D01*
X106762560Y-63592397D01*
X106784743Y-63509611D01*
X106784743Y-63423905D01*
X106784743Y-63420081D01*
X106784742Y-63420063D01*
X106784742Y-60331574D01*
X106803048Y-60287380D01*
X106831062Y-60271205D01*
X106911784Y-60249577D01*
X107048716Y-60170520D01*
X107160520Y-60058716D01*
X107239577Y-59921784D01*
X107280500Y-59769057D01*
X107280500Y-59610943D01*
X107239577Y-59458216D01*
X107160520Y-59321284D01*
X107048716Y-59209480D01*
X106934916Y-59143778D01*
X106911783Y-59130422D01*
X106911780Y-59130421D01*
X106759063Y-59089501D01*
X106759058Y-59089500D01*
X106759057Y-59089500D01*
X106600943Y-59089500D01*
X106600942Y-59089500D01*
X106600936Y-59089501D01*
X106448219Y-59130421D01*
X106448216Y-59130422D01*
X106352414Y-59185734D01*
X106311284Y-59209480D01*
X106311283Y-59209481D01*
X106311279Y-59209484D01*
X106199484Y-59321279D01*
X106199481Y-59321283D01*
X106120422Y-59458216D01*
X106120421Y-59458219D01*
X106079501Y-59610936D01*
X106079500Y-59610944D01*
X106079500Y-59769055D01*
X106079501Y-59769063D01*
X106120421Y-59921780D01*
X106120422Y-59921781D01*
X106120423Y-59921784D01*
X106125368Y-59930350D01*
X106133742Y-59961599D01*
X106133742Y-63306044D01*
X106117163Y-63346069D01*
X106115436Y-63350237D01*
X106070773Y-63394900D01*
X106026578Y-63413205D01*
X106010404Y-63411076D01*
X105997058Y-63407500D01*
X105997057Y-63407500D01*
X105838943Y-63407500D01*
X105838942Y-63407500D01*
X105838936Y-63407501D01*
X105686219Y-63448421D01*
X105686216Y-63448422D01*
X105589964Y-63503993D01*
X105549284Y-63527480D01*
X105549283Y-63527481D01*
X105549279Y-63527484D01*
X105437484Y-63639279D01*
X105437481Y-63639283D01*
X105437480Y-63639284D01*
X105413993Y-63679964D01*
X105358422Y-63776216D01*
X105358421Y-63776219D01*
X105317501Y-63928936D01*
X105317500Y-63928944D01*
X104885500Y-63928944D01*
X104885500Y-62292999D01*
X104903806Y-62248805D01*
X104948000Y-62230499D01*
X104979246Y-62238871D01*
X105051598Y-62280643D01*
X105053216Y-62281577D01*
X105053219Y-62281578D01*
X105146681Y-62306621D01*
X105205943Y-62322500D01*
X105205944Y-62322500D01*
X105364056Y-62322500D01*
X105364057Y-62322500D01*
X105516784Y-62281577D01*
X105653716Y-62202520D01*
X105765520Y-62090716D01*
X105844577Y-61953784D01*
X105885500Y-61801057D01*
X105885500Y-61642943D01*
X105844577Y-61490216D01*
X105765520Y-61353284D01*
X105653716Y-61241480D01*
X105516784Y-61162423D01*
X105516783Y-61162422D01*
X105516782Y-61162422D01*
X105382823Y-61126527D01*
X105344873Y-61097407D01*
X105336500Y-61066157D01*
X105336500Y-59034288D01*
X105336498Y-59034280D01*
X105314319Y-58951505D01*
X105314318Y-58951502D01*
X105304482Y-58934465D01*
X105271465Y-58877278D01*
X105210862Y-58816675D01*
X104509806Y-58115619D01*
X104491500Y-58071425D01*
X104491500Y-55252714D01*
X104509806Y-55208520D01*
X104510520Y-55207806D01*
X104554714Y-55189500D01*
X104614445Y-55189500D01*
X104658639Y-55207806D01*
X104668569Y-55220746D01*
X104675480Y-55232716D01*
X104675481Y-55232717D01*
X104675484Y-55232721D01*
X104747013Y-55304249D01*
X104787284Y-55344520D01*
X104896777Y-55407735D01*
X104924216Y-55423577D01*
X104924219Y-55423578D01*
X104988527Y-55440809D01*
X105076943Y-55464500D01*
X105076944Y-55464500D01*
X105235056Y-55464500D01*
X105235057Y-55464500D01*
X105387784Y-55423577D01*
X105524716Y-55344520D01*
X105636520Y-55232716D01*
X105715577Y-55095784D01*
X105756500Y-54943057D01*
X105756500Y-54784943D01*
X105724131Y-54664139D01*
X105715578Y-54632219D01*
X105715577Y-54632216D01*
X105699018Y-54603535D01*
X105636520Y-54495284D01*
X105524716Y-54383480D01*
X105394103Y-54308071D01*
X105387783Y-54304422D01*
X105387780Y-54304421D01*
X105235063Y-54263501D01*
X105235058Y-54263500D01*
X105235057Y-54263500D01*
X105076943Y-54263500D01*
X105076942Y-54263500D01*
X105076936Y-54263501D01*
X104924219Y-54304421D01*
X104924216Y-54304422D01*
X104841350Y-54352265D01*
X104787284Y-54383480D01*
X104787283Y-54383481D01*
X104787279Y-54383484D01*
X104675484Y-54495278D01*
X104675481Y-54495282D01*
X104675480Y-54495284D01*
X104668570Y-54507250D01*
X104630621Y-54536370D01*
X104614445Y-54538500D01*
X104440694Y-54538500D01*
X104440678Y-54538499D01*
X104436853Y-54538499D01*
X104351147Y-54538499D01*
X104351141Y-54538499D01*
X104268364Y-54560680D01*
X104241950Y-54575931D01*
X104241949Y-54575930D01*
X104194139Y-54603534D01*
X104137852Y-54659821D01*
X104093657Y-54678126D01*
X104049463Y-54659820D01*
X104033289Y-54631805D01*
X104018318Y-54575932D01*
X103975465Y-54501708D01*
X103914862Y-54441105D01*
X103152806Y-53679049D01*
X103134500Y-53634855D01*
X103134500Y-50466944D01*
X106587500Y-50466944D01*
X106587500Y-50625055D01*
X106587501Y-50625063D01*
X106628421Y-50777780D01*
X106628422Y-50777783D01*
X106651909Y-50818464D01*
X106707480Y-50914716D01*
X106819284Y-51026520D01*
X106956216Y-51105577D01*
X106956219Y-51105578D01*
X107049681Y-51130621D01*
X107108943Y-51146500D01*
X107108944Y-51146500D01*
X107267054Y-51146500D01*
X107267057Y-51146500D01*
X107280400Y-51142924D01*
X107327824Y-51149164D01*
X107340772Y-51159099D01*
X108622194Y-52440520D01*
X108640500Y-52484714D01*
X108640500Y-63718207D01*
X108622194Y-63762401D01*
X108609251Y-63772333D01*
X108596053Y-63779952D01*
X108596047Y-63779957D01*
X108484253Y-63891752D01*
X108484250Y-63891756D01*
X108405191Y-64028689D01*
X108405190Y-64028692D01*
X108364270Y-64181409D01*
X108364269Y-64181417D01*
X108364269Y-64339528D01*
X108364270Y-64339536D01*
X108405190Y-64492253D01*
X108405191Y-64492256D01*
X108420810Y-64519309D01*
X108484249Y-64629189D01*
X108596053Y-64740993D01*
X108732985Y-64820050D01*
X108732988Y-64820051D01*
X108826450Y-64845094D01*
X108885712Y-64860973D01*
X108885713Y-64860973D01*
X109043825Y-64860973D01*
X109043826Y-64860973D01*
X109196553Y-64820050D01*
X109333485Y-64740993D01*
X109445289Y-64629189D01*
X109524346Y-64492257D01*
X109565269Y-64339530D01*
X109565269Y-64181416D01*
X109545448Y-64107442D01*
X109524347Y-64028692D01*
X109524346Y-64028689D01*
X109512624Y-64008386D01*
X109445289Y-63891757D01*
X109406073Y-63852541D01*
X109333490Y-63779957D01*
X109333481Y-63779950D01*
X109322748Y-63773753D01*
X109293629Y-63735802D01*
X109291500Y-63719628D01*
X109291500Y-52371897D01*
X109291501Y-52371884D01*
X109291501Y-52281147D01*
X109291500Y-52281141D01*
X109276579Y-52225458D01*
X109269318Y-52198361D01*
X109237066Y-52142500D01*
X109226465Y-52124138D01*
X109165862Y-52063535D01*
X109165859Y-52063533D01*
X108483560Y-51381234D01*
X107801099Y-50698772D01*
X107782793Y-50654578D01*
X107784922Y-50638405D01*
X107788500Y-50625057D01*
X107788500Y-50466943D01*
X107767031Y-50386819D01*
X107747578Y-50314219D01*
X107747577Y-50314216D01*
X107668520Y-50177284D01*
X107556716Y-50065480D01*
X107460464Y-50009909D01*
X107419783Y-49986422D01*
X107419780Y-49986421D01*
X107267063Y-49945501D01*
X107267058Y-49945500D01*
X107267057Y-49945500D01*
X107108943Y-49945500D01*
X107108942Y-49945500D01*
X107108936Y-49945501D01*
X106956219Y-49986421D01*
X106956216Y-49986422D01*
X106866213Y-50038386D01*
X106819284Y-50065480D01*
X106819283Y-50065481D01*
X106819279Y-50065484D01*
X106707484Y-50177279D01*
X106707481Y-50177283D01*
X106707480Y-50177284D01*
X106683993Y-50217964D01*
X106628422Y-50314216D01*
X106628421Y-50314219D01*
X106587501Y-50466936D01*
X106587500Y-50466944D01*
X103134500Y-50466944D01*
X103134500Y-45339578D01*
X103136631Y-45323398D01*
X103138499Y-45316427D01*
X103138500Y-45316421D01*
X103138500Y-45230718D01*
X103138498Y-45230710D01*
X103116319Y-45147934D01*
X103116315Y-45147925D01*
X103073467Y-45073711D01*
X103073464Y-45073707D01*
X103047599Y-45047842D01*
X103012862Y-45013105D01*
X102701806Y-44702049D01*
X102683500Y-44657855D01*
X102683500Y-43127528D01*
X102683498Y-43127520D01*
X102683104Y-43126051D01*
X102661318Y-43044742D01*
X102618465Y-42970518D01*
X102557862Y-42909915D01*
X102250806Y-42602859D01*
X102232500Y-42558665D01*
X102232500Y-38618148D01*
X102232499Y-38618142D01*
X102224757Y-38589252D01*
X102210318Y-38535362D01*
X102210318Y-38535361D01*
X102188891Y-38498250D01*
X102167465Y-38461138D01*
X102106862Y-38400535D01*
X102104684Y-38398357D01*
X102104673Y-38398347D01*
X101348806Y-37642479D01*
X101330500Y-37598285D01*
X101330500Y-36264252D01*
X101318867Y-36205769D01*
X101318866Y-36205767D01*
X101316858Y-36200918D01*
X101316857Y-36153082D01*
X101350682Y-36119258D01*
X101374600Y-36114500D01*
X115014072Y-36114500D01*
X115058266Y-36132806D01*
G37*
%TD.AperFunction*%
%TA.AperFunction,Conductor*%
G36*
X99467194Y-47755734D02*
G01*
X99474965Y-47765203D01*
X99552861Y-47881782D01*
X99692218Y-48021139D01*
X99856086Y-48130632D01*
X100038165Y-48206051D01*
X100231459Y-48244500D01*
X100428541Y-48244500D01*
X100621835Y-48206051D01*
X100803914Y-48130632D01*
X100967782Y-48021139D01*
X101023806Y-47965115D01*
X101068000Y-47946809D01*
X101112194Y-47965115D01*
X101130500Y-48009309D01*
X101130500Y-49018691D01*
X101112194Y-49062885D01*
X101068000Y-49081191D01*
X101023806Y-49062885D01*
X100967781Y-49006860D01*
X100803915Y-48897369D01*
X100803916Y-48897369D01*
X100803914Y-48897368D01*
X100621835Y-48821949D01*
X100621833Y-48821948D01*
X100428541Y-48783500D01*
X100231459Y-48783500D01*
X100038166Y-48821948D01*
X99856084Y-48897369D01*
X99692218Y-49006860D01*
X99552860Y-49146218D01*
X99443369Y-49310084D01*
X99367948Y-49492166D01*
X99329500Y-49685458D01*
X99329500Y-49882541D01*
X99367948Y-50075833D01*
X99378458Y-50101207D01*
X99443368Y-50257914D01*
X99463445Y-50287961D01*
X99551204Y-50419303D01*
X99552861Y-50421782D01*
X99692218Y-50561139D01*
X99856086Y-50670632D01*
X100038165Y-50746051D01*
X100231459Y-50784500D01*
X100428541Y-50784500D01*
X100621835Y-50746051D01*
X100803914Y-50670632D01*
X100967782Y-50561139D01*
X101023806Y-50505115D01*
X101068000Y-50486809D01*
X101112194Y-50505115D01*
X101130500Y-50549309D01*
X101130500Y-51558691D01*
X101112194Y-51602885D01*
X101068000Y-51621191D01*
X101023806Y-51602885D01*
X100967781Y-51546860D01*
X100849239Y-51467653D01*
X100803914Y-51437368D01*
X100621835Y-51361949D01*
X100621833Y-51361948D01*
X100428541Y-51323500D01*
X100231459Y-51323500D01*
X100038166Y-51361948D01*
X99856084Y-51437369D01*
X99692218Y-51546860D01*
X99552860Y-51686218D01*
X99443369Y-51850084D01*
X99367948Y-52032166D01*
X99329500Y-52225458D01*
X99329500Y-52422541D01*
X99367948Y-52615833D01*
X99385034Y-52657083D01*
X99443368Y-52797914D01*
X99463445Y-52827961D01*
X99521853Y-52915376D01*
X99552861Y-52961782D01*
X99692218Y-53101139D01*
X99856086Y-53210632D01*
X100038165Y-53286051D01*
X100231459Y-53324500D01*
X100428541Y-53324500D01*
X100621835Y-53286051D01*
X100803914Y-53210632D01*
X100967782Y-53101139D01*
X101023806Y-53045115D01*
X101068000Y-53026809D01*
X101112194Y-53045115D01*
X101130500Y-53089309D01*
X101130500Y-54098691D01*
X101112194Y-54142885D01*
X101068000Y-54161191D01*
X101023806Y-54142885D01*
X100967781Y-54086860D01*
X100849239Y-54007653D01*
X100803914Y-53977368D01*
X100621835Y-53901949D01*
X100621833Y-53901948D01*
X100428541Y-53863500D01*
X100231459Y-53863500D01*
X100038166Y-53901948D01*
X99856084Y-53977369D01*
X99692218Y-54086860D01*
X99552860Y-54226218D01*
X99443369Y-54390084D01*
X99367948Y-54572166D01*
X99329500Y-54765458D01*
X99329500Y-54962541D01*
X99367948Y-55155833D01*
X99381893Y-55189500D01*
X99443368Y-55337914D01*
X99463445Y-55367961D01*
X99527948Y-55464498D01*
X99552861Y-55501782D01*
X99692218Y-55641139D01*
X99856086Y-55750632D01*
X100038165Y-55826051D01*
X100231459Y-55864500D01*
X100428541Y-55864500D01*
X100621835Y-55826051D01*
X100803914Y-55750632D01*
X100907638Y-55681325D01*
X100954553Y-55671994D01*
X100994327Y-55698570D01*
X101002730Y-55717116D01*
X101040422Y-55857781D01*
X101040422Y-55857783D01*
X101053026Y-55879613D01*
X101119480Y-55994716D01*
X101231284Y-56106520D01*
X101368216Y-56185577D01*
X101368219Y-56185578D01*
X101461681Y-56210621D01*
X101520943Y-56226500D01*
X101523000Y-56226500D01*
X101523957Y-56226896D01*
X101525002Y-56227034D01*
X101524965Y-56227314D01*
X101567194Y-56244806D01*
X101585500Y-56289000D01*
X101585500Y-58867284D01*
X101567194Y-58911478D01*
X101523000Y-58929784D01*
X101478806Y-58911478D01*
X100980867Y-58413539D01*
X100980858Y-58413532D01*
X100906644Y-58370684D01*
X100906635Y-58370680D01*
X100881045Y-58363824D01*
X100843095Y-58334704D01*
X100836851Y-58287278D01*
X100862497Y-58251487D01*
X100967782Y-58181139D01*
X101107139Y-58041782D01*
X101216632Y-57877914D01*
X101292051Y-57695835D01*
X101330500Y-57502541D01*
X101330500Y-57305459D01*
X101292051Y-57112165D01*
X101216632Y-56930086D01*
X101107139Y-56766218D01*
X100967782Y-56626861D01*
X100803914Y-56517368D01*
X100621835Y-56441949D01*
X100621833Y-56441948D01*
X100428541Y-56403500D01*
X100231459Y-56403500D01*
X100038166Y-56441948D01*
X99856084Y-56517369D01*
X99692218Y-56626860D01*
X99552860Y-56766218D01*
X99443368Y-56930084D01*
X99443367Y-56930087D01*
X99367947Y-57112169D01*
X99367622Y-57113807D01*
X99367308Y-57114276D01*
X99367056Y-57115108D01*
X99366803Y-57115031D01*
X99341042Y-57153578D01*
X99294125Y-57162906D01*
X99262130Y-57145802D01*
X98720105Y-56603778D01*
X98701799Y-56559584D01*
X98706557Y-56535667D01*
X98752051Y-56425835D01*
X98790500Y-56232541D01*
X98790500Y-56035459D01*
X98752051Y-55842165D01*
X98676632Y-55660086D01*
X98567139Y-55496218D01*
X98427782Y-55356861D01*
X98409312Y-55344520D01*
X98291300Y-55265667D01*
X98263914Y-55247368D01*
X98081835Y-55171949D01*
X98081833Y-55171948D01*
X97888541Y-55133500D01*
X97691459Y-55133500D01*
X97498166Y-55171948D01*
X97316084Y-55247369D01*
X97152218Y-55356860D01*
X97012860Y-55496218D01*
X96934967Y-55612794D01*
X96895193Y-55639370D01*
X96848277Y-55630038D01*
X96821701Y-55590264D01*
X96820500Y-55578071D01*
X96820500Y-54149928D01*
X96838806Y-54105734D01*
X96883000Y-54087428D01*
X96927194Y-54105734D01*
X96934965Y-54115203D01*
X97012861Y-54231782D01*
X97152218Y-54371139D01*
X97316086Y-54480632D01*
X97498165Y-54556051D01*
X97691459Y-54594500D01*
X97888541Y-54594500D01*
X98081835Y-54556051D01*
X98263914Y-54480632D01*
X98427782Y-54371139D01*
X98567139Y-54231782D01*
X98676632Y-54067914D01*
X98752051Y-53885835D01*
X98790500Y-53692541D01*
X98790500Y-53495459D01*
X98752051Y-53302165D01*
X98676632Y-53120086D01*
X98567139Y-52956218D01*
X98427782Y-52816861D01*
X98409312Y-52804520D01*
X98263915Y-52707369D01*
X98263916Y-52707369D01*
X98263914Y-52707368D01*
X98081835Y-52631949D01*
X98081833Y-52631948D01*
X97888541Y-52593500D01*
X97691459Y-52593500D01*
X97498166Y-52631948D01*
X97388334Y-52677442D01*
X97349753Y-52693423D01*
X97316084Y-52707369D01*
X97152218Y-52816860D01*
X97012860Y-52956218D01*
X96934967Y-53072794D01*
X96895193Y-53099370D01*
X96848277Y-53090038D01*
X96821701Y-53050264D01*
X96820500Y-53038071D01*
X96820500Y-51978107D01*
X96838806Y-51933913D01*
X96883000Y-51915607D01*
X96920111Y-51927819D01*
X97027118Y-52006793D01*
X97155301Y-52051646D01*
X97185734Y-52054500D01*
X97185738Y-52054500D01*
X98394262Y-52054500D01*
X98394266Y-52054500D01*
X98424699Y-52051646D01*
X98552882Y-52006793D01*
X98662150Y-51926150D01*
X98742793Y-51816882D01*
X98787646Y-51688699D01*
X98790500Y-51658266D01*
X98790500Y-50449734D01*
X98787646Y-50419301D01*
X98742793Y-50291118D01*
X98662150Y-50181850D01*
X98552882Y-50101207D01*
X98424701Y-50056354D01*
X98424696Y-50056353D01*
X98404699Y-50054478D01*
X98394266Y-50053500D01*
X97185734Y-50053500D01*
X97176124Y-50054401D01*
X97155303Y-50056353D01*
X97155298Y-50056354D01*
X97027117Y-50101207D01*
X97027116Y-50101207D01*
X96920114Y-50180179D01*
X96873685Y-50191694D01*
X96832713Y-50167006D01*
X96820500Y-50129892D01*
X96820500Y-48877000D01*
X96838806Y-48832806D01*
X96883000Y-48814500D01*
X99099562Y-48814500D01*
X99099567Y-48814499D01*
X99122271Y-48808414D01*
X99175989Y-48794021D01*
X99244511Y-48754460D01*
X99300460Y-48698511D01*
X99340021Y-48629989D01*
X99360500Y-48553562D01*
X99360500Y-47799928D01*
X99378806Y-47755734D01*
X99423000Y-47737428D01*
X99467194Y-47755734D01*
G37*
%TD.AperFunction*%
%TD*%
M02*
