M48
; DRILL file {KiCad 9.0.5} date 2025-10-27T11:22:13+0000
; FORMAT={-:-/ absolute / metric / decimal}
; #@! TF.CreationDate,2025-10-27T11:22:13+00:00
; #@! TF.GenerationSoftware,Kicad,Pcbnew,9.0.5
; #@! TF.FileFunction,MixedPlating,1,2
FMAT,2
METRIC
; #@! TA.AperFunction,Plated,PTH,ViaDrill
T1C0.400
; #@! TA.AperFunction,Plated,PTH,ComponentDrill
T2C0.800
%
G90
G05
T1
X99.314Y-51.054
X101.6Y-55.626
X102.616Y-37.084
X103.378Y-83.82
X104.394Y-70.866
X104.648Y-67.31
X104.834Y-66.04
X104.902Y-75.692
X105.156Y-54.864
X105.156Y-81.407
X105.285Y-61.722
X105.41Y-73.914
X105.918Y-64.008
X106.426Y-52.324
X106.68Y-59.69
X106.68Y-82.677
X106.68Y-84.836
X106.934Y-65.532
X107.188Y-50.546
X107.95Y-72.136
X108.204Y-69.596
X108.965Y-64.26
X110.236Y-53.34
X110.744Y-80.137
X110.998Y-71.882
X112.014Y-77.724
X112.268Y-48.514
X113.03Y-47.244
X113.665Y-52.324
X113.665Y-54.864
X114.808Y-73.914
T2
X97.79Y-51.054
X97.79Y-53.594
X97.79Y-56.134
X97.79Y-58.674
X97.79Y-61.214
X97.79Y-63.754
X97.79Y-66.294
X97.79Y-68.834
X97.79Y-71.374
X97.79Y-73.914
X97.79Y-76.454
X97.79Y-78.994
X97.79Y-81.534
X97.79Y-84.074
X100.33Y-37.084
X100.33Y-39.624
X100.33Y-42.164
X100.33Y-44.704
X100.33Y-47.244
X100.33Y-49.784
X100.33Y-52.324
X100.33Y-54.864
X100.33Y-57.404
X100.33Y-59.944
X100.33Y-62.484
X100.33Y-65.024
X100.33Y-67.564
X100.33Y-70.104
X100.33Y-72.644
X100.33Y-75.184
X100.33Y-77.724
X100.33Y-80.264
X100.33Y-82.804
X100.33Y-85.344
X113.03Y-51.054
X113.03Y-53.594
X113.03Y-56.134
X113.03Y-58.674
X113.03Y-61.214
X113.03Y-63.754
X113.03Y-66.294
X113.03Y-68.834
X113.03Y-71.374
X113.03Y-73.914
X113.03Y-76.454
X113.03Y-78.994
X113.03Y-81.534
X113.03Y-84.074
X115.57Y-37.084
X115.57Y-39.624
X115.57Y-42.164
X115.57Y-44.704
X115.57Y-47.244
X115.57Y-49.784
X115.57Y-52.324
X115.57Y-54.864
X115.57Y-57.404
X115.57Y-59.944
X115.57Y-62.484
X115.57Y-65.024
X115.57Y-67.564
X115.57Y-70.104
X115.57Y-72.644
X115.57Y-75.184
X115.57Y-77.724
X115.57Y-80.264
X115.57Y-82.804
X115.57Y-85.344
M30
