%TF.GenerationSoftware,KiCad,Pcbnew,9.0.5*%
%TF.CreationDate,2025-10-27T11:22:18+00:00*%
%TF.ProjectId,177x,31373778-2e6b-4696-9361-645f70636258,03*%
%TF.SameCoordinates,Original*%
%TF.FileFunction,Paste,Bot*%
%TF.FilePolarity,Positive*%
%FSLAX46Y46*%
G04 Gerber Fmt 4.6, Leading zero omitted, Abs format (unit mm)*
G04 Created by KiCad (PCBNEW 9.0.5) date 2025-10-27 11:22:18*
%MOMM*%
%LPD*%
G01*
G04 APERTURE LIST*
G04 Aperture macros list*
%AMRoundRect*
0 Rectangle with rounded corners*
0 $1 Rounding radius*
0 $2 $3 $4 $5 $6 $7 $8 $9 X,Y pos of 4 corners*
0 Add a 4 corners polygon primitive as box body*
4,1,4,$2,$3,$4,$5,$6,$7,$8,$9,$2,$3,0*
0 Add four circle primitives for the rounded corners*
1,1,$1+$1,$2,$3*
1,1,$1+$1,$4,$5*
1,1,$1+$1,$6,$7*
1,1,$1+$1,$8,$9*
0 Add four rect primitives between the rounded corners*
20,1,$1+$1,$2,$3,$4,$5,0*
20,1,$1+$1,$4,$5,$6,$7,0*
20,1,$1+$1,$6,$7,$8,$9,0*
20,1,$1+$1,$8,$9,$2,$3,0*%
G04 Aperture macros list end*
%ADD10RoundRect,0.250000X-0.475000X0.250000X-0.475000X-0.250000X0.475000X-0.250000X0.475000X0.250000X0*%
%ADD11RoundRect,0.150000X0.825000X0.150000X-0.825000X0.150000X-0.825000X-0.150000X0.825000X-0.150000X0*%
%ADD12RoundRect,0.225000X-0.225000X-0.250000X0.225000X-0.250000X0.225000X0.250000X-0.225000X0.250000X0*%
%ADD13RoundRect,0.225000X0.225000X0.250000X-0.225000X0.250000X-0.225000X-0.250000X0.225000X-0.250000X0*%
%ADD14RoundRect,0.200000X-0.200000X-0.275000X0.200000X-0.275000X0.200000X0.275000X-0.200000X0.275000X0*%
G04 APERTURE END LIST*
D10*
%TO.C,C5*%
X112776000Y-37084000D03*
X112776000Y-38984000D03*
%TD*%
D11*
%TO.C,IC4*%
X108393000Y-41148000D03*
X108393000Y-42418000D03*
X108393000Y-43688000D03*
X108393000Y-44958000D03*
X108393000Y-46228000D03*
X108393000Y-47498000D03*
X108393000Y-48768000D03*
X103443000Y-48768000D03*
X103443000Y-47498000D03*
X103443000Y-46228000D03*
X103443000Y-44958000D03*
X103443000Y-43688000D03*
X103443000Y-42418000D03*
X103443000Y-41148000D03*
%TD*%
D12*
%TO.C,C3*%
X103443000Y-72136000D03*
X104993000Y-72136000D03*
%TD*%
D13*
%TO.C,C1*%
X111011000Y-84836000D03*
X109461000Y-84836000D03*
%TD*%
D12*
%TO.C,C4*%
X103443000Y-39497000D03*
X104993000Y-39497000D03*
%TD*%
D11*
%TO.C,IC3*%
X108393000Y-73787000D03*
X108393000Y-75057000D03*
X108393000Y-76327000D03*
X108393000Y-77597000D03*
X108393000Y-78867000D03*
X108393000Y-80137000D03*
X108393000Y-81407000D03*
X108393000Y-82677000D03*
X103443000Y-82677000D03*
X103443000Y-81407000D03*
X103443000Y-80137000D03*
X103443000Y-78867000D03*
X103443000Y-77597000D03*
X103443000Y-76327000D03*
X103443000Y-75057000D03*
X103443000Y-73787000D03*
%TD*%
D14*
%TO.C,R1*%
X109157000Y-69596000D03*
X110807000Y-69596000D03*
%TD*%
D12*
%TO.C,C2*%
X103443000Y-52705000D03*
X104993000Y-52705000D03*
%TD*%
D11*
%TO.C,IC2*%
X108393000Y-54356000D03*
X108393000Y-55626000D03*
X108393000Y-56896000D03*
X108393000Y-58166000D03*
X108393000Y-59436000D03*
X108393000Y-60706000D03*
X108393000Y-61976000D03*
X103443000Y-61976000D03*
X103443000Y-60706000D03*
X103443000Y-59436000D03*
X103443000Y-58166000D03*
X103443000Y-56896000D03*
X103443000Y-55626000D03*
X103443000Y-54356000D03*
%TD*%
M02*
