%TF.GenerationSoftware,KiCad,Pcbnew,9.0.5*%
%TF.CreationDate,2025-10-27T11:22:18+00:00*%
%TF.ProjectId,177x,31373778-2e6b-4696-9361-645f70636258,03*%
%TF.SameCoordinates,Original*%
%TF.FileFunction,Legend,Bot*%
%TF.FilePolarity,Positive*%
%FSLAX46Y46*%
G04 Gerber Fmt 4.6, Leading zero omitted, Abs format (unit mm)*
G04 Created by KiCad (PCBNEW 9.0.5) date 2025-10-27 11:22:18*
%MOMM*%
%LPD*%
G01*
G04 APERTURE LIST*
%ADD10C,0.150000*%
%ADD11C,0.125000*%
%ADD12C,0.120000*%
G04 APERTURE END LIST*
D10*
X109977864Y-39945927D02*
X113787864Y-39945927D01*
X113787864Y-49953529D01*
X109977864Y-49953529D01*
X109977864Y-39945927D01*
D11*
X112927853Y-48744479D02*
X112975472Y-48839718D01*
X112975472Y-48839718D02*
X112975472Y-49030194D01*
X112975472Y-49030194D02*
X112927853Y-49125432D01*
X112927853Y-49125432D02*
X112832615Y-49220670D01*
X112832615Y-49220670D02*
X112737377Y-49268289D01*
X112737377Y-49268289D02*
X112546901Y-49268289D01*
X112546901Y-49268289D02*
X112451663Y-49220670D01*
X112451663Y-49220670D02*
X112356425Y-49125432D01*
X112356425Y-49125432D02*
X112308806Y-49030194D01*
X112308806Y-49030194D02*
X112308806Y-48839718D01*
X112308806Y-48839718D02*
X112356425Y-48744479D01*
X113308806Y-48934956D02*
X113261187Y-49173051D01*
X113261187Y-49173051D02*
X113118329Y-49411146D01*
X113118329Y-49411146D02*
X112880234Y-49554003D01*
X112880234Y-49554003D02*
X112642139Y-49601622D01*
X112642139Y-49601622D02*
X112404044Y-49554003D01*
X112404044Y-49554003D02*
X112165948Y-49411146D01*
X112165948Y-49411146D02*
X112023091Y-49173051D01*
X112023091Y-49173051D02*
X111975472Y-48934956D01*
X111975472Y-48934956D02*
X112023091Y-48696860D01*
X112023091Y-48696860D02*
X112165948Y-48458765D01*
X112165948Y-48458765D02*
X112404044Y-48315908D01*
X112404044Y-48315908D02*
X112642139Y-48268289D01*
X112642139Y-48268289D02*
X112880234Y-48315908D01*
X112880234Y-48315908D02*
X113118329Y-48458765D01*
X113118329Y-48458765D02*
X113261187Y-48696860D01*
X113261187Y-48696860D02*
X113308806Y-48934956D01*
X112165948Y-47077812D02*
X113165948Y-47077812D01*
X112165948Y-46506384D02*
X112737377Y-46934955D01*
X113165948Y-46506384D02*
X112594520Y-47077812D01*
X112213568Y-45696860D02*
X112165948Y-45792098D01*
X112165948Y-45792098D02*
X112165948Y-45982574D01*
X112165948Y-45982574D02*
X112213568Y-46077812D01*
X112213568Y-46077812D02*
X112308806Y-46125431D01*
X112308806Y-46125431D02*
X112689758Y-46125431D01*
X112689758Y-46125431D02*
X112784996Y-46077812D01*
X112784996Y-46077812D02*
X112832615Y-45982574D01*
X112832615Y-45982574D02*
X112832615Y-45792098D01*
X112832615Y-45792098D02*
X112784996Y-45696860D01*
X112784996Y-45696860D02*
X112689758Y-45649241D01*
X112689758Y-45649241D02*
X112594520Y-45649241D01*
X112594520Y-45649241D02*
X112499282Y-46125431D01*
X112832615Y-45220669D02*
X112165948Y-45220669D01*
X112737377Y-45220669D02*
X112784996Y-45173050D01*
X112784996Y-45173050D02*
X112832615Y-45077812D01*
X112832615Y-45077812D02*
X112832615Y-44934955D01*
X112832615Y-44934955D02*
X112784996Y-44839717D01*
X112784996Y-44839717D02*
X112689758Y-44792098D01*
X112689758Y-44792098D02*
X112165948Y-44792098D01*
X112165948Y-43077812D02*
X112165948Y-43554002D01*
X112165948Y-43554002D02*
X113165948Y-43554002D01*
X112165948Y-42601621D02*
X112213568Y-42696859D01*
X112213568Y-42696859D02*
X112261187Y-42744478D01*
X112261187Y-42744478D02*
X112356425Y-42792097D01*
X112356425Y-42792097D02*
X112642139Y-42792097D01*
X112642139Y-42792097D02*
X112737377Y-42744478D01*
X112737377Y-42744478D02*
X112784996Y-42696859D01*
X112784996Y-42696859D02*
X112832615Y-42601621D01*
X112832615Y-42601621D02*
X112832615Y-42458764D01*
X112832615Y-42458764D02*
X112784996Y-42363526D01*
X112784996Y-42363526D02*
X112737377Y-42315907D01*
X112737377Y-42315907D02*
X112642139Y-42268288D01*
X112642139Y-42268288D02*
X112356425Y-42268288D01*
X112356425Y-42268288D02*
X112261187Y-42315907D01*
X112261187Y-42315907D02*
X112213568Y-42363526D01*
X112213568Y-42363526D02*
X112165948Y-42458764D01*
X112165948Y-42458764D02*
X112165948Y-42601621D01*
X112832615Y-41934954D02*
X112165948Y-41744478D01*
X112165948Y-41744478D02*
X112642139Y-41554002D01*
X112642139Y-41554002D02*
X112165948Y-41363526D01*
X112165948Y-41363526D02*
X112832615Y-41173050D01*
X112213568Y-40411145D02*
X112165948Y-40506383D01*
X112165948Y-40506383D02*
X112165948Y-40696859D01*
X112165948Y-40696859D02*
X112213568Y-40792097D01*
X112213568Y-40792097D02*
X112308806Y-40839716D01*
X112308806Y-40839716D02*
X112689758Y-40839716D01*
X112689758Y-40839716D02*
X112784996Y-40792097D01*
X112784996Y-40792097D02*
X112832615Y-40696859D01*
X112832615Y-40696859D02*
X112832615Y-40506383D01*
X112832615Y-40506383D02*
X112784996Y-40411145D01*
X112784996Y-40411145D02*
X112689758Y-40363526D01*
X112689758Y-40363526D02*
X112594520Y-40363526D01*
X112594520Y-40363526D02*
X112499282Y-40839716D01*
X111556004Y-48315908D02*
X111556004Y-48125432D01*
X111556004Y-48125432D02*
X111508385Y-48030194D01*
X111508385Y-48030194D02*
X111413147Y-47934956D01*
X111413147Y-47934956D02*
X111222671Y-47887337D01*
X111222671Y-47887337D02*
X110889338Y-47887337D01*
X110889338Y-47887337D02*
X110698862Y-47934956D01*
X110698862Y-47934956D02*
X110603624Y-48030194D01*
X110603624Y-48030194D02*
X110556004Y-48125432D01*
X110556004Y-48125432D02*
X110556004Y-48315908D01*
X110556004Y-48315908D02*
X110603624Y-48411146D01*
X110603624Y-48411146D02*
X110698862Y-48506384D01*
X110698862Y-48506384D02*
X110889338Y-48554003D01*
X110889338Y-48554003D02*
X111222671Y-48554003D01*
X111222671Y-48554003D02*
X111413147Y-48506384D01*
X111413147Y-48506384D02*
X111508385Y-48411146D01*
X111508385Y-48411146D02*
X111556004Y-48315908D01*
X110603624Y-47030194D02*
X110556004Y-47125432D01*
X110556004Y-47125432D02*
X110556004Y-47315908D01*
X110556004Y-47315908D02*
X110603624Y-47411146D01*
X110603624Y-47411146D02*
X110651243Y-47458765D01*
X110651243Y-47458765D02*
X110746481Y-47506384D01*
X110746481Y-47506384D02*
X111032195Y-47506384D01*
X111032195Y-47506384D02*
X111127433Y-47458765D01*
X111127433Y-47458765D02*
X111175052Y-47411146D01*
X111175052Y-47411146D02*
X111222671Y-47315908D01*
X111222671Y-47315908D02*
X111222671Y-47125432D01*
X111222671Y-47125432D02*
X111175052Y-47030194D01*
X111222671Y-46744479D02*
X111222671Y-46363527D01*
X111556004Y-46601622D02*
X110698862Y-46601622D01*
X110698862Y-46601622D02*
X110603624Y-46554003D01*
X110603624Y-46554003D02*
X110556004Y-46458765D01*
X110556004Y-46458765D02*
X110556004Y-46363527D01*
X110651243Y-46030193D02*
X110603624Y-45982574D01*
X110603624Y-45982574D02*
X110556004Y-46030193D01*
X110556004Y-46030193D02*
X110603624Y-46077812D01*
X110603624Y-46077812D02*
X110651243Y-46030193D01*
X110651243Y-46030193D02*
X110556004Y-46030193D01*
X111460766Y-44839717D02*
X111508385Y-44792098D01*
X111508385Y-44792098D02*
X111556004Y-44696860D01*
X111556004Y-44696860D02*
X111556004Y-44458765D01*
X111556004Y-44458765D02*
X111508385Y-44363527D01*
X111508385Y-44363527D02*
X111460766Y-44315908D01*
X111460766Y-44315908D02*
X111365528Y-44268289D01*
X111365528Y-44268289D02*
X111270290Y-44268289D01*
X111270290Y-44268289D02*
X111127433Y-44315908D01*
X111127433Y-44315908D02*
X110556004Y-44887336D01*
X110556004Y-44887336D02*
X110556004Y-44268289D01*
X111556004Y-43649241D02*
X111556004Y-43554003D01*
X111556004Y-43554003D02*
X111508385Y-43458765D01*
X111508385Y-43458765D02*
X111460766Y-43411146D01*
X111460766Y-43411146D02*
X111365528Y-43363527D01*
X111365528Y-43363527D02*
X111175052Y-43315908D01*
X111175052Y-43315908D02*
X110936957Y-43315908D01*
X110936957Y-43315908D02*
X110746481Y-43363527D01*
X110746481Y-43363527D02*
X110651243Y-43411146D01*
X110651243Y-43411146D02*
X110603624Y-43458765D01*
X110603624Y-43458765D02*
X110556004Y-43554003D01*
X110556004Y-43554003D02*
X110556004Y-43649241D01*
X110556004Y-43649241D02*
X110603624Y-43744479D01*
X110603624Y-43744479D02*
X110651243Y-43792098D01*
X110651243Y-43792098D02*
X110746481Y-43839717D01*
X110746481Y-43839717D02*
X110936957Y-43887336D01*
X110936957Y-43887336D02*
X111175052Y-43887336D01*
X111175052Y-43887336D02*
X111365528Y-43839717D01*
X111365528Y-43839717D02*
X111460766Y-43792098D01*
X111460766Y-43792098D02*
X111508385Y-43744479D01*
X111508385Y-43744479D02*
X111556004Y-43649241D01*
X111460766Y-42934955D02*
X111508385Y-42887336D01*
X111508385Y-42887336D02*
X111556004Y-42792098D01*
X111556004Y-42792098D02*
X111556004Y-42554003D01*
X111556004Y-42554003D02*
X111508385Y-42458765D01*
X111508385Y-42458765D02*
X111460766Y-42411146D01*
X111460766Y-42411146D02*
X111365528Y-42363527D01*
X111365528Y-42363527D02*
X111270290Y-42363527D01*
X111270290Y-42363527D02*
X111127433Y-42411146D01*
X111127433Y-42411146D02*
X110556004Y-42982574D01*
X110556004Y-42982574D02*
X110556004Y-42363527D01*
X111556004Y-41458765D02*
X111556004Y-41934955D01*
X111556004Y-41934955D02*
X111079814Y-41982574D01*
X111079814Y-41982574D02*
X111127433Y-41934955D01*
X111127433Y-41934955D02*
X111175052Y-41839717D01*
X111175052Y-41839717D02*
X111175052Y-41601622D01*
X111175052Y-41601622D02*
X111127433Y-41506384D01*
X111127433Y-41506384D02*
X111079814Y-41458765D01*
X111079814Y-41458765D02*
X110984576Y-41411146D01*
X110984576Y-41411146D02*
X110746481Y-41411146D01*
X110746481Y-41411146D02*
X110651243Y-41458765D01*
X110651243Y-41458765D02*
X110603624Y-41506384D01*
X110603624Y-41506384D02*
X110556004Y-41601622D01*
X110556004Y-41601622D02*
X110556004Y-41839717D01*
X110556004Y-41839717D02*
X110603624Y-41934955D01*
X110603624Y-41934955D02*
X110651243Y-41982574D01*
D10*
X107295792Y-85975819D02*
X107629125Y-85499628D01*
X107867220Y-85975819D02*
X107867220Y-84975819D01*
X107867220Y-84975819D02*
X107486268Y-84975819D01*
X107486268Y-84975819D02*
X107391030Y-85023438D01*
X107391030Y-85023438D02*
X107343411Y-85071057D01*
X107343411Y-85071057D02*
X107295792Y-85166295D01*
X107295792Y-85166295D02*
X107295792Y-85309152D01*
X107295792Y-85309152D02*
X107343411Y-85404390D01*
X107343411Y-85404390D02*
X107391030Y-85452009D01*
X107391030Y-85452009D02*
X107486268Y-85499628D01*
X107486268Y-85499628D02*
X107867220Y-85499628D01*
X106486268Y-85928200D02*
X106581506Y-85975819D01*
X106581506Y-85975819D02*
X106771982Y-85975819D01*
X106771982Y-85975819D02*
X106867220Y-85928200D01*
X106867220Y-85928200D02*
X106914839Y-85832961D01*
X106914839Y-85832961D02*
X106914839Y-85452009D01*
X106914839Y-85452009D02*
X106867220Y-85356771D01*
X106867220Y-85356771D02*
X106771982Y-85309152D01*
X106771982Y-85309152D02*
X106581506Y-85309152D01*
X106581506Y-85309152D02*
X106486268Y-85356771D01*
X106486268Y-85356771D02*
X106438649Y-85452009D01*
X106438649Y-85452009D02*
X106438649Y-85547247D01*
X106438649Y-85547247D02*
X106914839Y-85642485D01*
X106105315Y-85309152D02*
X105867220Y-85975819D01*
X105867220Y-85975819D02*
X105629125Y-85309152D01*
X104295791Y-84975819D02*
X104200553Y-84975819D01*
X104200553Y-84975819D02*
X104105315Y-85023438D01*
X104105315Y-85023438D02*
X104057696Y-85071057D01*
X104057696Y-85071057D02*
X104010077Y-85166295D01*
X104010077Y-85166295D02*
X103962458Y-85356771D01*
X103962458Y-85356771D02*
X103962458Y-85594866D01*
X103962458Y-85594866D02*
X104010077Y-85785342D01*
X104010077Y-85785342D02*
X104057696Y-85880580D01*
X104057696Y-85880580D02*
X104105315Y-85928200D01*
X104105315Y-85928200D02*
X104200553Y-85975819D01*
X104200553Y-85975819D02*
X104295791Y-85975819D01*
X104295791Y-85975819D02*
X104391029Y-85928200D01*
X104391029Y-85928200D02*
X104438648Y-85880580D01*
X104438648Y-85880580D02*
X104486267Y-85785342D01*
X104486267Y-85785342D02*
X104533886Y-85594866D01*
X104533886Y-85594866D02*
X104533886Y-85356771D01*
X104533886Y-85356771D02*
X104486267Y-85166295D01*
X104486267Y-85166295D02*
X104438648Y-85071057D01*
X104438648Y-85071057D02*
X104391029Y-85023438D01*
X104391029Y-85023438D02*
X104295791Y-84975819D01*
X103629124Y-84975819D02*
X103010077Y-84975819D01*
X103010077Y-84975819D02*
X103343410Y-85356771D01*
X103343410Y-85356771D02*
X103200553Y-85356771D01*
X103200553Y-85356771D02*
X103105315Y-85404390D01*
X103105315Y-85404390D02*
X103057696Y-85452009D01*
X103057696Y-85452009D02*
X103010077Y-85547247D01*
X103010077Y-85547247D02*
X103010077Y-85785342D01*
X103010077Y-85785342D02*
X103057696Y-85880580D01*
X103057696Y-85880580D02*
X103105315Y-85928200D01*
X103105315Y-85928200D02*
X103200553Y-85975819D01*
X103200553Y-85975819D02*
X103486267Y-85975819D01*
X103486267Y-85975819D02*
X103581505Y-85928200D01*
X103581505Y-85928200D02*
X103629124Y-85880580D01*
X110910666Y-38393580D02*
X110958285Y-38441200D01*
X110958285Y-38441200D02*
X111101142Y-38488819D01*
X111101142Y-38488819D02*
X111196380Y-38488819D01*
X111196380Y-38488819D02*
X111339237Y-38441200D01*
X111339237Y-38441200D02*
X111434475Y-38345961D01*
X111434475Y-38345961D02*
X111482094Y-38250723D01*
X111482094Y-38250723D02*
X111529713Y-38060247D01*
X111529713Y-38060247D02*
X111529713Y-37917390D01*
X111529713Y-37917390D02*
X111482094Y-37726914D01*
X111482094Y-37726914D02*
X111434475Y-37631676D01*
X111434475Y-37631676D02*
X111339237Y-37536438D01*
X111339237Y-37536438D02*
X111196380Y-37488819D01*
X111196380Y-37488819D02*
X111101142Y-37488819D01*
X111101142Y-37488819D02*
X110958285Y-37536438D01*
X110958285Y-37536438D02*
X110910666Y-37584057D01*
X110005904Y-37488819D02*
X110482094Y-37488819D01*
X110482094Y-37488819D02*
X110529713Y-37965009D01*
X110529713Y-37965009D02*
X110482094Y-37917390D01*
X110482094Y-37917390D02*
X110386856Y-37869771D01*
X110386856Y-37869771D02*
X110148761Y-37869771D01*
X110148761Y-37869771D02*
X110053523Y-37917390D01*
X110053523Y-37917390D02*
X110005904Y-37965009D01*
X110005904Y-37965009D02*
X109958285Y-38060247D01*
X109958285Y-38060247D02*
X109958285Y-38298342D01*
X109958285Y-38298342D02*
X110005904Y-38393580D01*
X110005904Y-38393580D02*
X110053523Y-38441200D01*
X110053523Y-38441200D02*
X110148761Y-38488819D01*
X110148761Y-38488819D02*
X110386856Y-38488819D01*
X110386856Y-38488819D02*
X110482094Y-38441200D01*
X110482094Y-38441200D02*
X110529713Y-38393580D01*
X108894189Y-39829819D02*
X108894189Y-38829819D01*
X107846571Y-39734580D02*
X107894190Y-39782200D01*
X107894190Y-39782200D02*
X108037047Y-39829819D01*
X108037047Y-39829819D02*
X108132285Y-39829819D01*
X108132285Y-39829819D02*
X108275142Y-39782200D01*
X108275142Y-39782200D02*
X108370380Y-39686961D01*
X108370380Y-39686961D02*
X108417999Y-39591723D01*
X108417999Y-39591723D02*
X108465618Y-39401247D01*
X108465618Y-39401247D02*
X108465618Y-39258390D01*
X108465618Y-39258390D02*
X108417999Y-39067914D01*
X108417999Y-39067914D02*
X108370380Y-38972676D01*
X108370380Y-38972676D02*
X108275142Y-38877438D01*
X108275142Y-38877438D02*
X108132285Y-38829819D01*
X108132285Y-38829819D02*
X108037047Y-38829819D01*
X108037047Y-38829819D02*
X107894190Y-38877438D01*
X107894190Y-38877438D02*
X107846571Y-38925057D01*
X106989428Y-39163152D02*
X106989428Y-39829819D01*
X107227523Y-38782200D02*
X107465618Y-39496485D01*
X107465618Y-39496485D02*
X106846571Y-39496485D01*
X105372819Y-41791333D02*
X105372819Y-42457999D01*
X105372819Y-42457999D02*
X106372819Y-42029428D01*
X105706152Y-43267523D02*
X106372819Y-43267523D01*
X105325200Y-43029428D02*
X106039485Y-42791333D01*
X106039485Y-42791333D02*
X106039485Y-43410380D01*
X106372819Y-43791333D02*
X105372819Y-43791333D01*
X105849009Y-43791333D02*
X105849009Y-44362761D01*
X106372819Y-44362761D02*
X105372819Y-44362761D01*
X106277580Y-45410380D02*
X106325200Y-45362761D01*
X106325200Y-45362761D02*
X106372819Y-45219904D01*
X106372819Y-45219904D02*
X106372819Y-45124666D01*
X106372819Y-45124666D02*
X106325200Y-44981809D01*
X106325200Y-44981809D02*
X106229961Y-44886571D01*
X106229961Y-44886571D02*
X106134723Y-44838952D01*
X106134723Y-44838952D02*
X105944247Y-44791333D01*
X105944247Y-44791333D02*
X105801390Y-44791333D01*
X105801390Y-44791333D02*
X105610914Y-44838952D01*
X105610914Y-44838952D02*
X105515676Y-44886571D01*
X105515676Y-44886571D02*
X105420438Y-44981809D01*
X105420438Y-44981809D02*
X105372819Y-45124666D01*
X105372819Y-45124666D02*
X105372819Y-45219904D01*
X105372819Y-45219904D02*
X105420438Y-45362761D01*
X105420438Y-45362761D02*
X105468057Y-45410380D01*
X105372819Y-45696095D02*
X105372819Y-46267523D01*
X106372819Y-45981809D02*
X105372819Y-45981809D01*
X105372819Y-46791333D02*
X105372819Y-46886571D01*
X105372819Y-46886571D02*
X105420438Y-46981809D01*
X105420438Y-46981809D02*
X105468057Y-47029428D01*
X105468057Y-47029428D02*
X105563295Y-47077047D01*
X105563295Y-47077047D02*
X105753771Y-47124666D01*
X105753771Y-47124666D02*
X105991866Y-47124666D01*
X105991866Y-47124666D02*
X106182342Y-47077047D01*
X106182342Y-47077047D02*
X106277580Y-47029428D01*
X106277580Y-47029428D02*
X106325200Y-46981809D01*
X106325200Y-46981809D02*
X106372819Y-46886571D01*
X106372819Y-46886571D02*
X106372819Y-46791333D01*
X106372819Y-46791333D02*
X106325200Y-46696095D01*
X106325200Y-46696095D02*
X106277580Y-46648476D01*
X106277580Y-46648476D02*
X106182342Y-46600857D01*
X106182342Y-46600857D02*
X105991866Y-46553238D01*
X105991866Y-46553238D02*
X105753771Y-46553238D01*
X105753771Y-46553238D02*
X105563295Y-46600857D01*
X105563295Y-46600857D02*
X105468057Y-46648476D01*
X105468057Y-46648476D02*
X105420438Y-46696095D01*
X105420438Y-46696095D02*
X105372819Y-46791333D01*
X105468057Y-47505619D02*
X105420438Y-47553238D01*
X105420438Y-47553238D02*
X105372819Y-47648476D01*
X105372819Y-47648476D02*
X105372819Y-47886571D01*
X105372819Y-47886571D02*
X105420438Y-47981809D01*
X105420438Y-47981809D02*
X105468057Y-48029428D01*
X105468057Y-48029428D02*
X105563295Y-48077047D01*
X105563295Y-48077047D02*
X105658533Y-48077047D01*
X105658533Y-48077047D02*
X105801390Y-48029428D01*
X105801390Y-48029428D02*
X106372819Y-47458000D01*
X106372819Y-47458000D02*
X106372819Y-48077047D01*
X104384666Y-70971580D02*
X104432285Y-71019200D01*
X104432285Y-71019200D02*
X104575142Y-71066819D01*
X104575142Y-71066819D02*
X104670380Y-71066819D01*
X104670380Y-71066819D02*
X104813237Y-71019200D01*
X104813237Y-71019200D02*
X104908475Y-70923961D01*
X104908475Y-70923961D02*
X104956094Y-70828723D01*
X104956094Y-70828723D02*
X105003713Y-70638247D01*
X105003713Y-70638247D02*
X105003713Y-70495390D01*
X105003713Y-70495390D02*
X104956094Y-70304914D01*
X104956094Y-70304914D02*
X104908475Y-70209676D01*
X104908475Y-70209676D02*
X104813237Y-70114438D01*
X104813237Y-70114438D02*
X104670380Y-70066819D01*
X104670380Y-70066819D02*
X104575142Y-70066819D01*
X104575142Y-70066819D02*
X104432285Y-70114438D01*
X104432285Y-70114438D02*
X104384666Y-70162057D01*
X104051332Y-70066819D02*
X103432285Y-70066819D01*
X103432285Y-70066819D02*
X103765618Y-70447771D01*
X103765618Y-70447771D02*
X103622761Y-70447771D01*
X103622761Y-70447771D02*
X103527523Y-70495390D01*
X103527523Y-70495390D02*
X103479904Y-70543009D01*
X103479904Y-70543009D02*
X103432285Y-70638247D01*
X103432285Y-70638247D02*
X103432285Y-70876342D01*
X103432285Y-70876342D02*
X103479904Y-70971580D01*
X103479904Y-70971580D02*
X103527523Y-71019200D01*
X103527523Y-71019200D02*
X103622761Y-71066819D01*
X103622761Y-71066819D02*
X103908475Y-71066819D01*
X103908475Y-71066819D02*
X104003713Y-71019200D01*
X104003713Y-71019200D02*
X104051332Y-70971580D01*
X110402666Y-83676158D02*
X110450285Y-83723778D01*
X110450285Y-83723778D02*
X110593142Y-83771397D01*
X110593142Y-83771397D02*
X110688380Y-83771397D01*
X110688380Y-83771397D02*
X110831237Y-83723778D01*
X110831237Y-83723778D02*
X110926475Y-83628539D01*
X110926475Y-83628539D02*
X110974094Y-83533301D01*
X110974094Y-83533301D02*
X111021713Y-83342825D01*
X111021713Y-83342825D02*
X111021713Y-83199968D01*
X111021713Y-83199968D02*
X110974094Y-83009492D01*
X110974094Y-83009492D02*
X110926475Y-82914254D01*
X110926475Y-82914254D02*
X110831237Y-82819016D01*
X110831237Y-82819016D02*
X110688380Y-82771397D01*
X110688380Y-82771397D02*
X110593142Y-82771397D01*
X110593142Y-82771397D02*
X110450285Y-82819016D01*
X110450285Y-82819016D02*
X110402666Y-82866635D01*
X109450285Y-83771397D02*
X110021713Y-83771397D01*
X109735999Y-83771397D02*
X109735999Y-82771397D01*
X109735999Y-82771397D02*
X109831237Y-82914254D01*
X109831237Y-82914254D02*
X109926475Y-83009492D01*
X109926475Y-83009492D02*
X110021713Y-83057111D01*
X104384666Y-38332580D02*
X104432285Y-38380200D01*
X104432285Y-38380200D02*
X104575142Y-38427819D01*
X104575142Y-38427819D02*
X104670380Y-38427819D01*
X104670380Y-38427819D02*
X104813237Y-38380200D01*
X104813237Y-38380200D02*
X104908475Y-38284961D01*
X104908475Y-38284961D02*
X104956094Y-38189723D01*
X104956094Y-38189723D02*
X105003713Y-37999247D01*
X105003713Y-37999247D02*
X105003713Y-37856390D01*
X105003713Y-37856390D02*
X104956094Y-37665914D01*
X104956094Y-37665914D02*
X104908475Y-37570676D01*
X104908475Y-37570676D02*
X104813237Y-37475438D01*
X104813237Y-37475438D02*
X104670380Y-37427819D01*
X104670380Y-37427819D02*
X104575142Y-37427819D01*
X104575142Y-37427819D02*
X104432285Y-37475438D01*
X104432285Y-37475438D02*
X104384666Y-37523057D01*
X103527523Y-37761152D02*
X103527523Y-38427819D01*
X103765618Y-37380200D02*
X104003713Y-38094485D01*
X104003713Y-38094485D02*
X103384666Y-38094485D01*
X108894189Y-72486819D02*
X108894189Y-71486819D01*
X107846571Y-72391580D02*
X107894190Y-72439200D01*
X107894190Y-72439200D02*
X108037047Y-72486819D01*
X108037047Y-72486819D02*
X108132285Y-72486819D01*
X108132285Y-72486819D02*
X108275142Y-72439200D01*
X108275142Y-72439200D02*
X108370380Y-72343961D01*
X108370380Y-72343961D02*
X108417999Y-72248723D01*
X108417999Y-72248723D02*
X108465618Y-72058247D01*
X108465618Y-72058247D02*
X108465618Y-71915390D01*
X108465618Y-71915390D02*
X108417999Y-71724914D01*
X108417999Y-71724914D02*
X108370380Y-71629676D01*
X108370380Y-71629676D02*
X108275142Y-71534438D01*
X108275142Y-71534438D02*
X108132285Y-71486819D01*
X108132285Y-71486819D02*
X108037047Y-71486819D01*
X108037047Y-71486819D02*
X107894190Y-71534438D01*
X107894190Y-71534438D02*
X107846571Y-71582057D01*
X107513237Y-71486819D02*
X106894190Y-71486819D01*
X106894190Y-71486819D02*
X107227523Y-71867771D01*
X107227523Y-71867771D02*
X107084666Y-71867771D01*
X107084666Y-71867771D02*
X106989428Y-71915390D01*
X106989428Y-71915390D02*
X106941809Y-71963009D01*
X106941809Y-71963009D02*
X106894190Y-72058247D01*
X106894190Y-72058247D02*
X106894190Y-72296342D01*
X106894190Y-72296342D02*
X106941809Y-72391580D01*
X106941809Y-72391580D02*
X106989428Y-72439200D01*
X106989428Y-72439200D02*
X107084666Y-72486819D01*
X107084666Y-72486819D02*
X107370380Y-72486819D01*
X107370380Y-72486819D02*
X107465618Y-72439200D01*
X107465618Y-72439200D02*
X107513237Y-72391580D01*
X105372819Y-74589143D02*
X105372819Y-75255809D01*
X105372819Y-75255809D02*
X106372819Y-74827238D01*
X105706152Y-76065333D02*
X106372819Y-76065333D01*
X105325200Y-75827238D02*
X106039485Y-75589143D01*
X106039485Y-75589143D02*
X106039485Y-76208190D01*
X106372819Y-76589143D02*
X105372819Y-76589143D01*
X105849009Y-76589143D02*
X105849009Y-77160571D01*
X106372819Y-77160571D02*
X105372819Y-77160571D01*
X106277580Y-78208190D02*
X106325200Y-78160571D01*
X106325200Y-78160571D02*
X106372819Y-78017714D01*
X106372819Y-78017714D02*
X106372819Y-77922476D01*
X106372819Y-77922476D02*
X106325200Y-77779619D01*
X106325200Y-77779619D02*
X106229961Y-77684381D01*
X106229961Y-77684381D02*
X106134723Y-77636762D01*
X106134723Y-77636762D02*
X105944247Y-77589143D01*
X105944247Y-77589143D02*
X105801390Y-77589143D01*
X105801390Y-77589143D02*
X105610914Y-77636762D01*
X105610914Y-77636762D02*
X105515676Y-77684381D01*
X105515676Y-77684381D02*
X105420438Y-77779619D01*
X105420438Y-77779619D02*
X105372819Y-77922476D01*
X105372819Y-77922476D02*
X105372819Y-78017714D01*
X105372819Y-78017714D02*
X105420438Y-78160571D01*
X105420438Y-78160571D02*
X105468057Y-78208190D01*
X105372819Y-78493905D02*
X105372819Y-79065333D01*
X106372819Y-78779619D02*
X105372819Y-78779619D01*
X106372819Y-79922476D02*
X106372819Y-79351048D01*
X106372819Y-79636762D02*
X105372819Y-79636762D01*
X105372819Y-79636762D02*
X105515676Y-79541524D01*
X105515676Y-79541524D02*
X105610914Y-79446286D01*
X105610914Y-79446286D02*
X105658533Y-79351048D01*
X105372819Y-80255810D02*
X105372819Y-80922476D01*
X105372819Y-80922476D02*
X106372819Y-80493905D01*
X105372819Y-81208191D02*
X105372819Y-81827238D01*
X105372819Y-81827238D02*
X105753771Y-81493905D01*
X105753771Y-81493905D02*
X105753771Y-81636762D01*
X105753771Y-81636762D02*
X105801390Y-81732000D01*
X105801390Y-81732000D02*
X105849009Y-81779619D01*
X105849009Y-81779619D02*
X105944247Y-81827238D01*
X105944247Y-81827238D02*
X106182342Y-81827238D01*
X106182342Y-81827238D02*
X106277580Y-81779619D01*
X106277580Y-81779619D02*
X106325200Y-81732000D01*
X106325200Y-81732000D02*
X106372819Y-81636762D01*
X106372819Y-81636762D02*
X106372819Y-81351048D01*
X106372819Y-81351048D02*
X106325200Y-81255810D01*
X106325200Y-81255810D02*
X106277580Y-81208191D01*
X110149557Y-68517613D02*
X110482890Y-68041422D01*
X110720985Y-68517613D02*
X110720985Y-67517613D01*
X110720985Y-67517613D02*
X110340033Y-67517613D01*
X110340033Y-67517613D02*
X110244795Y-67565232D01*
X110244795Y-67565232D02*
X110197176Y-67612851D01*
X110197176Y-67612851D02*
X110149557Y-67708089D01*
X110149557Y-67708089D02*
X110149557Y-67850946D01*
X110149557Y-67850946D02*
X110197176Y-67946184D01*
X110197176Y-67946184D02*
X110244795Y-67993803D01*
X110244795Y-67993803D02*
X110340033Y-68041422D01*
X110340033Y-68041422D02*
X110720985Y-68041422D01*
X109197176Y-68517613D02*
X109768604Y-68517613D01*
X109482890Y-68517613D02*
X109482890Y-67517613D01*
X109482890Y-67517613D02*
X109578128Y-67660470D01*
X109578128Y-67660470D02*
X109673366Y-67755708D01*
X109673366Y-67755708D02*
X109768604Y-67803327D01*
X104384666Y-51540580D02*
X104432285Y-51588200D01*
X104432285Y-51588200D02*
X104575142Y-51635819D01*
X104575142Y-51635819D02*
X104670380Y-51635819D01*
X104670380Y-51635819D02*
X104813237Y-51588200D01*
X104813237Y-51588200D02*
X104908475Y-51492961D01*
X104908475Y-51492961D02*
X104956094Y-51397723D01*
X104956094Y-51397723D02*
X105003713Y-51207247D01*
X105003713Y-51207247D02*
X105003713Y-51064390D01*
X105003713Y-51064390D02*
X104956094Y-50873914D01*
X104956094Y-50873914D02*
X104908475Y-50778676D01*
X104908475Y-50778676D02*
X104813237Y-50683438D01*
X104813237Y-50683438D02*
X104670380Y-50635819D01*
X104670380Y-50635819D02*
X104575142Y-50635819D01*
X104575142Y-50635819D02*
X104432285Y-50683438D01*
X104432285Y-50683438D02*
X104384666Y-50731057D01*
X104003713Y-50731057D02*
X103956094Y-50683438D01*
X103956094Y-50683438D02*
X103860856Y-50635819D01*
X103860856Y-50635819D02*
X103622761Y-50635819D01*
X103622761Y-50635819D02*
X103527523Y-50683438D01*
X103527523Y-50683438D02*
X103479904Y-50731057D01*
X103479904Y-50731057D02*
X103432285Y-50826295D01*
X103432285Y-50826295D02*
X103432285Y-50921533D01*
X103432285Y-50921533D02*
X103479904Y-51064390D01*
X103479904Y-51064390D02*
X104051332Y-51635819D01*
X104051332Y-51635819D02*
X103432285Y-51635819D01*
X108894189Y-53037819D02*
X108894189Y-52037819D01*
X107846571Y-52942580D02*
X107894190Y-52990200D01*
X107894190Y-52990200D02*
X108037047Y-53037819D01*
X108037047Y-53037819D02*
X108132285Y-53037819D01*
X108132285Y-53037819D02*
X108275142Y-52990200D01*
X108275142Y-52990200D02*
X108370380Y-52894961D01*
X108370380Y-52894961D02*
X108417999Y-52799723D01*
X108417999Y-52799723D02*
X108465618Y-52609247D01*
X108465618Y-52609247D02*
X108465618Y-52466390D01*
X108465618Y-52466390D02*
X108417999Y-52275914D01*
X108417999Y-52275914D02*
X108370380Y-52180676D01*
X108370380Y-52180676D02*
X108275142Y-52085438D01*
X108275142Y-52085438D02*
X108132285Y-52037819D01*
X108132285Y-52037819D02*
X108037047Y-52037819D01*
X108037047Y-52037819D02*
X107894190Y-52085438D01*
X107894190Y-52085438D02*
X107846571Y-52133057D01*
X107465618Y-52133057D02*
X107417999Y-52085438D01*
X107417999Y-52085438D02*
X107322761Y-52037819D01*
X107322761Y-52037819D02*
X107084666Y-52037819D01*
X107084666Y-52037819D02*
X106989428Y-52085438D01*
X106989428Y-52085438D02*
X106941809Y-52133057D01*
X106941809Y-52133057D02*
X106894190Y-52228295D01*
X106894190Y-52228295D02*
X106894190Y-52323533D01*
X106894190Y-52323533D02*
X106941809Y-52466390D01*
X106941809Y-52466390D02*
X107513237Y-53037819D01*
X107513237Y-53037819D02*
X106894190Y-53037819D01*
X105372819Y-54999333D02*
X105372819Y-55665999D01*
X105372819Y-55665999D02*
X106372819Y-55237428D01*
X105706152Y-56475523D02*
X106372819Y-56475523D01*
X105325200Y-56237428D02*
X106039485Y-55999333D01*
X106039485Y-55999333D02*
X106039485Y-56618380D01*
X106372819Y-56999333D02*
X105372819Y-56999333D01*
X105849009Y-56999333D02*
X105849009Y-57570761D01*
X106372819Y-57570761D02*
X105372819Y-57570761D01*
X106277580Y-58618380D02*
X106325200Y-58570761D01*
X106325200Y-58570761D02*
X106372819Y-58427904D01*
X106372819Y-58427904D02*
X106372819Y-58332666D01*
X106372819Y-58332666D02*
X106325200Y-58189809D01*
X106325200Y-58189809D02*
X106229961Y-58094571D01*
X106229961Y-58094571D02*
X106134723Y-58046952D01*
X106134723Y-58046952D02*
X105944247Y-57999333D01*
X105944247Y-57999333D02*
X105801390Y-57999333D01*
X105801390Y-57999333D02*
X105610914Y-58046952D01*
X105610914Y-58046952D02*
X105515676Y-58094571D01*
X105515676Y-58094571D02*
X105420438Y-58189809D01*
X105420438Y-58189809D02*
X105372819Y-58332666D01*
X105372819Y-58332666D02*
X105372819Y-58427904D01*
X105372819Y-58427904D02*
X105420438Y-58570761D01*
X105420438Y-58570761D02*
X105468057Y-58618380D01*
X105372819Y-58904095D02*
X105372819Y-59475523D01*
X106372819Y-59189809D02*
X105372819Y-59189809D01*
X105372819Y-59999333D02*
X105372819Y-60094571D01*
X105372819Y-60094571D02*
X105420438Y-60189809D01*
X105420438Y-60189809D02*
X105468057Y-60237428D01*
X105468057Y-60237428D02*
X105563295Y-60285047D01*
X105563295Y-60285047D02*
X105753771Y-60332666D01*
X105753771Y-60332666D02*
X105991866Y-60332666D01*
X105991866Y-60332666D02*
X106182342Y-60285047D01*
X106182342Y-60285047D02*
X106277580Y-60237428D01*
X106277580Y-60237428D02*
X106325200Y-60189809D01*
X106325200Y-60189809D02*
X106372819Y-60094571D01*
X106372819Y-60094571D02*
X106372819Y-59999333D01*
X106372819Y-59999333D02*
X106325200Y-59904095D01*
X106325200Y-59904095D02*
X106277580Y-59856476D01*
X106277580Y-59856476D02*
X106182342Y-59808857D01*
X106182342Y-59808857D02*
X105991866Y-59761238D01*
X105991866Y-59761238D02*
X105753771Y-59761238D01*
X105753771Y-59761238D02*
X105563295Y-59808857D01*
X105563295Y-59808857D02*
X105468057Y-59856476D01*
X105468057Y-59856476D02*
X105420438Y-59904095D01*
X105420438Y-59904095D02*
X105372819Y-59999333D01*
X105372819Y-60951714D02*
X105372819Y-61046952D01*
X105372819Y-61046952D02*
X105420438Y-61142190D01*
X105420438Y-61142190D02*
X105468057Y-61189809D01*
X105468057Y-61189809D02*
X105563295Y-61237428D01*
X105563295Y-61237428D02*
X105753771Y-61285047D01*
X105753771Y-61285047D02*
X105991866Y-61285047D01*
X105991866Y-61285047D02*
X106182342Y-61237428D01*
X106182342Y-61237428D02*
X106277580Y-61189809D01*
X106277580Y-61189809D02*
X106325200Y-61142190D01*
X106325200Y-61142190D02*
X106372819Y-61046952D01*
X106372819Y-61046952D02*
X106372819Y-60951714D01*
X106372819Y-60951714D02*
X106325200Y-60856476D01*
X106325200Y-60856476D02*
X106277580Y-60808857D01*
X106277580Y-60808857D02*
X106182342Y-60761238D01*
X106182342Y-60761238D02*
X105991866Y-60713619D01*
X105991866Y-60713619D02*
X105753771Y-60713619D01*
X105753771Y-60713619D02*
X105563295Y-60761238D01*
X105563295Y-60761238D02*
X105468057Y-60808857D01*
X105468057Y-60808857D02*
X105420438Y-60856476D01*
X105420438Y-60856476D02*
X105372819Y-60951714D01*
D12*
%TO.C,J1*%
X98950000Y-38354000D02*
X98950000Y-86724000D01*
X101710000Y-35704000D02*
X100330000Y-35704000D01*
X101710000Y-37084000D02*
X101710000Y-35704000D01*
X101710000Y-38354000D02*
X98950000Y-38354000D01*
X101710000Y-38354000D02*
X101710000Y-86724000D01*
X101710000Y-86724000D02*
X98950000Y-86724000D01*
%TO.C,C5*%
X112041000Y-37772748D02*
X112041000Y-38295252D01*
X113511000Y-37772748D02*
X113511000Y-38295252D01*
%TO.C,IC4*%
X103858000Y-40523000D02*
X103858000Y-40588000D01*
X103858000Y-49328000D02*
X103858000Y-49393000D01*
X103858000Y-49393000D02*
X107978000Y-49393000D01*
X107978000Y-40523000D02*
X103858000Y-40523000D01*
X107978000Y-40588000D02*
X107978000Y-40523000D01*
X107978000Y-49393000D02*
X107978000Y-49328000D01*
X108518000Y-40588000D02*
X108278000Y-40258000D01*
X108758000Y-40258000D01*
X108518000Y-40588000D01*
G36*
X108518000Y-40588000D02*
G01*
X108278000Y-40258000D01*
X108758000Y-40258000D01*
X108518000Y-40588000D01*
G37*
%TO.C,C3*%
X104077420Y-71626000D02*
X104358580Y-71626000D01*
X104077420Y-72646000D02*
X104358580Y-72646000D01*
%TO.C,C1*%
X110376580Y-84326000D02*
X110095420Y-84326000D01*
X110376580Y-85346000D02*
X110095420Y-85346000D01*
%TO.C,C4*%
X104077420Y-38987000D02*
X104358580Y-38987000D01*
X104077420Y-40007000D02*
X104358580Y-40007000D01*
%TO.C,J2*%
X114190000Y-35704000D02*
X116950000Y-35704000D01*
X114190000Y-86724000D02*
X114190000Y-35704000D01*
X114190000Y-86724000D02*
X116950000Y-86724000D01*
X116950000Y-86724000D02*
X116950000Y-35704000D01*
%TO.C,IC3*%
X103858000Y-73172000D02*
X103858000Y-73227000D01*
X103858000Y-83237000D02*
X103858000Y-83292000D01*
X103858000Y-83292000D02*
X107978000Y-83292000D01*
X107978000Y-73172000D02*
X103858000Y-73172000D01*
X107978000Y-73227000D02*
X107978000Y-73172000D01*
X107978000Y-83292000D02*
X107978000Y-83237000D01*
X108518000Y-73222000D02*
X108278000Y-72892000D01*
X108758000Y-72892000D01*
X108518000Y-73222000D01*
G36*
X108518000Y-73222000D02*
G01*
X108278000Y-72892000D01*
X108758000Y-72892000D01*
X108518000Y-73222000D01*
G37*
%TO.C,R1*%
X109744742Y-69073500D02*
X110219258Y-69073500D01*
X109744742Y-70118500D02*
X110219258Y-70118500D01*
%TO.C,C2*%
X104077420Y-52195000D02*
X104358580Y-52195000D01*
X104077420Y-53215000D02*
X104358580Y-53215000D01*
%TO.C,IC2*%
X103858000Y-53731000D02*
X103858000Y-53796000D01*
X103858000Y-62536000D02*
X103858000Y-62601000D01*
X103858000Y-62601000D02*
X107978000Y-62601000D01*
X107978000Y-53731000D02*
X103858000Y-53731000D01*
X107978000Y-53796000D02*
X107978000Y-53731000D01*
X107978000Y-62601000D02*
X107978000Y-62536000D01*
X108518000Y-53796000D02*
X108278000Y-53466000D01*
X108758000Y-53466000D01*
X108518000Y-53796000D01*
G36*
X108518000Y-53796000D02*
G01*
X108278000Y-53466000D01*
X108758000Y-53466000D01*
X108518000Y-53796000D01*
G37*
%TD*%
M02*
