%TF.GenerationSoftware,KiCad,Pcbnew,8.0.7*%
%TF.CreationDate,2025-01-07T22:57:07+00:00*%
%TF.ProjectId,177x,31373778-2e6b-4696-9361-645f70636258,01*%
%TF.SameCoordinates,Original*%
%TF.FileFunction,Soldermask,Top*%
%TF.FilePolarity,Negative*%
%FSLAX46Y46*%
G04 Gerber Fmt 4.6, Leading zero omitted, Abs format (unit mm)*
G04 Created by KiCad (PCBNEW 8.0.7) date 2025-01-07 22:57:07*
%MOMM*%
%LPD*%
G01*
G04 APERTURE LIST*
G04 Aperture macros list*
%AMRoundRect*
0 Rectangle with rounded corners*
0 $1 Rounding radius*
0 $2 $3 $4 $5 $6 $7 $8 $9 X,Y pos of 4 corners*
0 Add a 4 corners polygon primitive as box body*
4,1,4,$2,$3,$4,$5,$6,$7,$8,$9,$2,$3,0*
0 Add four circle primitives for the rounded corners*
1,1,$1+$1,$2,$3*
1,1,$1+$1,$4,$5*
1,1,$1+$1,$6,$7*
1,1,$1+$1,$8,$9*
0 Add four rect primitives between the rounded corners*
20,1,$1+$1,$2,$3,$4,$5,0*
20,1,$1+$1,$4,$5,$6,$7,0*
20,1,$1+$1,$6,$7,$8,$9,0*
20,1,$1+$1,$8,$9,$2,$3,0*%
G04 Aperture macros list end*
%ADD10RoundRect,0.250000X0.250000X0.475000X-0.250000X0.475000X-0.250000X-0.475000X0.250000X-0.475000X0*%
%ADD11RoundRect,0.150000X-0.825000X-0.150000X0.825000X-0.150000X0.825000X0.150000X-0.825000X0.150000X0*%
%ADD12RoundRect,0.225000X0.225000X0.250000X-0.225000X0.250000X-0.225000X-0.250000X0.225000X-0.250000X0*%
%ADD13RoundRect,0.225000X-0.225000X-0.250000X0.225000X-0.250000X0.225000X0.250000X-0.225000X0.250000X0*%
%ADD14R,1.600000X1.600000*%
%ADD15O,1.600000X1.600000*%
%ADD16RoundRect,0.200000X0.200000X0.275000X-0.200000X0.275000X-0.200000X-0.275000X0.200000X-0.275000X0*%
%ADD17RoundRect,0.225000X-0.250000X0.225000X-0.250000X-0.225000X0.250000X-0.225000X0.250000X0.225000X0*%
%ADD18RoundRect,0.150000X0.150000X-0.825000X0.150000X0.825000X-0.150000X0.825000X-0.150000X-0.825000X0*%
G04 APERTURE END LIST*
D10*
%TO.C,C5*%
X110932000Y-38862000D03*
X109032000Y-38862000D03*
%TD*%
D11*
%TO.C,IC4*%
X105475000Y-44704000D03*
X105475000Y-45974000D03*
X105475000Y-47244000D03*
X105475000Y-48514000D03*
X105475000Y-49784000D03*
X105475000Y-51054000D03*
X105475000Y-52324000D03*
X110425000Y-52324000D03*
X110425000Y-51054000D03*
X110425000Y-49784000D03*
X110425000Y-48514000D03*
X110425000Y-47244000D03*
X110425000Y-45974000D03*
X110425000Y-44704000D03*
%TD*%
D12*
%TO.C,C3*%
X110757000Y-63214000D03*
X109207000Y-63214000D03*
%TD*%
D13*
%TO.C,C1*%
X90906000Y-85344000D03*
X92456000Y-85344000D03*
%TD*%
D12*
%TO.C,C4*%
X110757000Y-42164000D03*
X109207000Y-42164000D03*
%TD*%
D14*
%TO.C,IC5*%
X100330000Y-37084000D03*
D15*
X100330000Y-39624000D03*
X100330000Y-42164000D03*
X100330000Y-44704000D03*
X100330000Y-47244000D03*
X100330000Y-49784000D03*
X100330000Y-52324000D03*
X100330000Y-54864000D03*
X100330000Y-57404000D03*
X100330000Y-59944000D03*
X100330000Y-62484000D03*
X100330000Y-65024000D03*
X100330000Y-67564000D03*
X100330000Y-70104000D03*
X100330000Y-72644000D03*
X100330000Y-75184000D03*
X100330000Y-77724000D03*
X100330000Y-80264000D03*
X100330000Y-82804000D03*
X100330000Y-85344000D03*
X115570000Y-85344000D03*
X115570000Y-82804000D03*
X115570000Y-80264000D03*
X115570000Y-77724000D03*
X115570000Y-75184000D03*
X115570000Y-72644000D03*
X115570000Y-70104000D03*
X115570000Y-67564000D03*
X115570000Y-65024000D03*
X115570000Y-62484000D03*
X115570000Y-59944000D03*
X115570000Y-57404000D03*
X115570000Y-54864000D03*
X115570000Y-52324000D03*
X115570000Y-49784000D03*
X115570000Y-47244000D03*
X115570000Y-44704000D03*
X115570000Y-42164000D03*
X115570000Y-39624000D03*
X115570000Y-37084000D03*
%TD*%
D14*
%TO.C,IC1*%
X81275000Y-49794000D03*
D15*
X81275000Y-52334000D03*
X81275000Y-54874000D03*
X81275000Y-57414000D03*
X81275000Y-59954000D03*
X81275000Y-62494000D03*
X81275000Y-65034000D03*
X81275000Y-67574000D03*
X81275000Y-70114000D03*
X81275000Y-72654000D03*
X81275000Y-75194000D03*
X81275000Y-77734000D03*
X81275000Y-80274000D03*
X81275000Y-82814000D03*
X96515000Y-82814000D03*
X96515000Y-80274000D03*
X96515000Y-77734000D03*
X96515000Y-75194000D03*
X96515000Y-72654000D03*
X96515000Y-70114000D03*
X96515000Y-67574000D03*
X96515000Y-65034000D03*
X96515000Y-62494000D03*
X96515000Y-59954000D03*
X96515000Y-57414000D03*
X96515000Y-54874000D03*
X96515000Y-52334000D03*
X96515000Y-49794000D03*
%TD*%
D11*
%TO.C,IC3*%
X105475000Y-65659000D03*
X105475000Y-66929000D03*
X105475000Y-68199000D03*
X105475000Y-69469000D03*
X105475000Y-70739000D03*
X105475000Y-72009000D03*
X105475000Y-73279000D03*
X105475000Y-74549000D03*
X110425000Y-74549000D03*
X110425000Y-73279000D03*
X110425000Y-72009000D03*
X110425000Y-70739000D03*
X110425000Y-69469000D03*
X110425000Y-68199000D03*
X110425000Y-66929000D03*
X110425000Y-65659000D03*
%TD*%
D16*
%TO.C,R1*%
X109220000Y-77216000D03*
X107570000Y-77216000D03*
%TD*%
D17*
%TO.C,C2*%
X82804000Y-39611000D03*
X82804000Y-41161000D03*
%TD*%
D18*
%TO.C,IC2*%
X85090000Y-44639000D03*
X86360000Y-44639000D03*
X87630000Y-44639000D03*
X88900000Y-44639000D03*
X90170000Y-44639000D03*
X91440000Y-44639000D03*
X92710000Y-44639000D03*
X92710000Y-39689000D03*
X91440000Y-39689000D03*
X90170000Y-39689000D03*
X88900000Y-39689000D03*
X87630000Y-39689000D03*
X86360000Y-39689000D03*
X85090000Y-39689000D03*
%TD*%
M02*
