%TF.GenerationSoftware,KiCad,Pcbnew,8.0.7*%
%TF.CreationDate,2025-01-07T22:57:07+00:00*%
%TF.ProjectId,177x,31373778-2e6b-4696-9361-645f70636258,01*%
%TF.SameCoordinates,Original*%
%TF.FileFunction,Copper,L1,Top*%
%TF.FilePolarity,Positive*%
%FSLAX46Y46*%
G04 Gerber Fmt 4.6, Leading zero omitted, Abs format (unit mm)*
G04 Created by KiCad (PCBNEW 8.0.7) date 2025-01-07 22:57:07*
%MOMM*%
%LPD*%
G01*
G04 APERTURE LIST*
G04 Aperture macros list*
%AMRoundRect*
0 Rectangle with rounded corners*
0 $1 Rounding radius*
0 $2 $3 $4 $5 $6 $7 $8 $9 X,Y pos of 4 corners*
0 Add a 4 corners polygon primitive as box body*
4,1,4,$2,$3,$4,$5,$6,$7,$8,$9,$2,$3,0*
0 Add four circle primitives for the rounded corners*
1,1,$1+$1,$2,$3*
1,1,$1+$1,$4,$5*
1,1,$1+$1,$6,$7*
1,1,$1+$1,$8,$9*
0 Add four rect primitives between the rounded corners*
20,1,$1+$1,$2,$3,$4,$5,0*
20,1,$1+$1,$4,$5,$6,$7,0*
20,1,$1+$1,$6,$7,$8,$9,0*
20,1,$1+$1,$8,$9,$2,$3,0*%
G04 Aperture macros list end*
%TA.AperFunction,SMDPad,CuDef*%
%ADD10RoundRect,0.250000X0.250000X0.475000X-0.250000X0.475000X-0.250000X-0.475000X0.250000X-0.475000X0*%
%TD*%
%TA.AperFunction,SMDPad,CuDef*%
%ADD11RoundRect,0.150000X-0.825000X-0.150000X0.825000X-0.150000X0.825000X0.150000X-0.825000X0.150000X0*%
%TD*%
%TA.AperFunction,SMDPad,CuDef*%
%ADD12RoundRect,0.225000X0.225000X0.250000X-0.225000X0.250000X-0.225000X-0.250000X0.225000X-0.250000X0*%
%TD*%
%TA.AperFunction,SMDPad,CuDef*%
%ADD13RoundRect,0.225000X-0.225000X-0.250000X0.225000X-0.250000X0.225000X0.250000X-0.225000X0.250000X0*%
%TD*%
%TA.AperFunction,ComponentPad*%
%ADD14R,1.600000X1.600000*%
%TD*%
%TA.AperFunction,ComponentPad*%
%ADD15O,1.600000X1.600000*%
%TD*%
%TA.AperFunction,SMDPad,CuDef*%
%ADD16RoundRect,0.200000X0.200000X0.275000X-0.200000X0.275000X-0.200000X-0.275000X0.200000X-0.275000X0*%
%TD*%
%TA.AperFunction,SMDPad,CuDef*%
%ADD17RoundRect,0.225000X-0.250000X0.225000X-0.250000X-0.225000X0.250000X-0.225000X0.250000X0.225000X0*%
%TD*%
%TA.AperFunction,SMDPad,CuDef*%
%ADD18RoundRect,0.150000X0.150000X-0.825000X0.150000X0.825000X-0.150000X0.825000X-0.150000X-0.825000X0*%
%TD*%
%TA.AperFunction,ViaPad*%
%ADD19C,0.800000*%
%TD*%
%TA.AperFunction,Conductor*%
%ADD20C,0.500000*%
%TD*%
%TA.AperFunction,Conductor*%
%ADD21C,0.250000*%
%TD*%
G04 APERTURE END LIST*
D10*
%TO.P,C5,1*%
%TO.N,+5V*%
X110932000Y-38862000D03*
%TO.P,C5,2*%
%TO.N,GND*%
X109032000Y-38862000D03*
%TD*%
D11*
%TO.P,IC4,1*%
%TO.N,Net-(IC5-INT)*%
X105475000Y-44704000D03*
%TO.P,IC4,2*%
%TO.N,Net-(IC4-Pad2)*%
X105475000Y-45974000D03*
%TO.P,IC4,3*%
X105475000Y-47244000D03*
%TO.P,IC4,4*%
X105475000Y-48514000D03*
%TO.P,IC4,5*%
%TO.N,Net-(IC1-INTRQ)*%
X105475000Y-49784000D03*
%TO.P,IC4,6*%
%TO.N,Net-(IC1-DRQ)*%
X105475000Y-51054000D03*
%TO.P,IC4,7,GND*%
%TO.N,GND*%
X105475000Y-52324000D03*
%TO.P,IC4,8*%
%TO.N,Net-(IC3-Q0)*%
X110425000Y-52324000D03*
%TO.P,IC4,9*%
X110425000Y-51054000D03*
%TO.P,IC4,10*%
%TO.N,Net-(IC5-SEL1)*%
X110425000Y-49784000D03*
%TO.P,IC4,11*%
%TO.N,Net-(IC5-~{DACK})*%
X110425000Y-48514000D03*
%TO.P,IC4,12*%
%TO.N,GND*%
X110425000Y-47244000D03*
%TO.P,IC4,13*%
%TO.N,Net-(IC3-E2)*%
X110425000Y-45974000D03*
%TO.P,IC4,14,VCC*%
%TO.N,+5V*%
X110425000Y-44704000D03*
%TD*%
D12*
%TO.P,C3,1*%
%TO.N,+5V*%
X110757000Y-63214000D03*
%TO.P,C3,2*%
%TO.N,GND*%
X109207000Y-63214000D03*
%TD*%
D13*
%TO.P,C1,1*%
%TO.N,+5V*%
X90906000Y-85344000D03*
%TO.P,C1,2*%
%TO.N,GND*%
X92456000Y-85344000D03*
%TD*%
D12*
%TO.P,C4,1*%
%TO.N,+5V*%
X110757000Y-42164000D03*
%TO.P,C4,2*%
%TO.N,GND*%
X109207000Y-42164000D03*
%TD*%
D14*
%TO.P,IC5,1,FLT_RST*%
%TO.N,Net-(IC3-Q1)*%
X100330000Y-37084000D03*
D15*
%TO.P,IC5,2,SEL0*%
%TO.N,Net-(IC3-Q0)*%
X100330000Y-39624000D03*
%TO.P,IC5,3,CLK*%
%TO.N,Net-(IC5-CLK)*%
X100330000Y-42164000D03*
%TO.P,IC5,4,RST*%
%TO.N,Net-(IC3-Mr)*%
X100330000Y-44704000D03*
%TO.P,IC5,5,~{RDY1}*%
%TO.N,unconnected-(IC5-~{RDY1}-Pad5)*%
X100330000Y-47244000D03*
%TO.P,IC5,6,SEL1*%
%TO.N,Net-(IC5-SEL1)*%
X100330000Y-49784000D03*
%TO.P,IC5,7,~{DACK}*%
%TO.N,Net-(IC5-~{DACK})*%
X100330000Y-52324000D03*
%TO.P,IC5,8,DRQ*%
%TO.N,unconnected-(IC5-DRQ-Pad8)*%
X100330000Y-54864000D03*
%TO.P,IC5,9,~{RD}*%
%TO.N,Net-(IC5-~{RD})*%
X100330000Y-57404000D03*
%TO.P,IC5,10,~{WR}*%
%TO.N,Net-(IC3-Cp)*%
X100330000Y-59944000D03*
%TO.P,IC5,11,INT*%
%TO.N,Net-(IC5-INT)*%
X100330000Y-62484000D03*
%TO.P,IC5,12,DB0*%
%TO.N,/D0*%
X100330000Y-65024000D03*
%TO.P,IC5,13,DB1*%
%TO.N,/D1*%
X100330000Y-67564000D03*
%TO.P,IC5,14,DB2*%
%TO.N,/D2*%
X100330000Y-70104000D03*
%TO.P,IC5,15,DB3*%
%TO.N,/D3*%
X100330000Y-72644000D03*
%TO.P,IC5,16,DB4*%
%TO.N,/D4*%
X100330000Y-75184000D03*
%TO.P,IC5,17,DB5*%
%TO.N,/D5*%
X100330000Y-77724000D03*
%TO.P,IC5,18,DB6*%
%TO.N,/D6*%
X100330000Y-80264000D03*
%TO.P,IC5,19,DB7*%
%TO.N,/D7*%
X100330000Y-82804000D03*
%TO.P,IC5,20,GND*%
%TO.N,GND*%
X100330000Y-85344000D03*
%TO.P,IC5,21,A0*%
%TO.N,/A0*%
X115570000Y-85344000D03*
%TO.P,IC5,22,A1*%
%TO.N,/A1*%
X115570000Y-82804000D03*
%TO.P,IC5,23,NC*%
%TO.N,unconnected-(IC5-NC-Pad23)*%
X115570000Y-80264000D03*
%TO.P,IC5,24,~{CS}*%
%TO.N,Net-(IC3-E1)*%
X115570000Y-77724000D03*
%TO.P,IC5,25,~{SS}/~{PLO}*%
%TO.N,unconnected-(IC5-~{SS}{slash}~{PLO}-Pad25)*%
X115570000Y-75184000D03*
%TO.P,IC5,26,~{DATA_WIN}*%
%TO.N,unconnected-(IC5-~{DATA_WIN}-Pad26)*%
X115570000Y-72644000D03*
%TO.P,IC5,27,~{UNSEP_DATA}*%
%TO.N,/RD_DATA*%
X115570000Y-70104000D03*
%TO.P,IC5,28,~{FLT}*%
%TO.N,unconnected-(IC5-~{FLT}-Pad28)*%
X115570000Y-67564000D03*
%TO.P,IC5,29,WR_DATA*%
%TO.N,/WR_DATA*%
X115570000Y-65024000D03*
%TO.P,IC5,30,~{CNT}/~{OP1}*%
%TO.N,unconnected-(IC5-~{CNT}{slash}~{OP1}-Pad30)*%
X115570000Y-62484000D03*
%TO.P,IC5,31,~{TRK0}*%
%TO.N,/~{TRK0}*%
X115570000Y-59944000D03*
%TO.P,IC5,32,~{RDY0}*%
%TO.N,unconnected-(IC5-~{RDY0}-Pad32)*%
X115570000Y-57404000D03*
%TO.P,IC5,33,WR_PROT*%
%TO.N,/~{WR_PROT}*%
X115570000Y-54864000D03*
%TO.P,IC5,34,~{INDEX}*%
%TO.N,/~{INDEX}*%
X115570000Y-52324000D03*
%TO.P,IC5,35,WR_EN*%
%TO.N,/WR_EN*%
X115570000Y-49784000D03*
%TO.P,IC5,36,SEEK/STEP*%
%TO.N,/STEP*%
X115570000Y-47244000D03*
%TO.P,IC5,37,DIR*%
%TO.N,/DIR*%
X115570000Y-44704000D03*
%TO.P,IC5,38,LOAD_HEAD*%
%TO.N,/MO*%
X115570000Y-42164000D03*
%TO.P,IC5,39,LOW_CURERENT*%
%TO.N,unconnected-(IC5-LOW_CURERENT-Pad39)*%
X115570000Y-39624000D03*
%TO.P,IC5,40,VCC*%
%TO.N,+5V*%
X115570000Y-37084000D03*
%TD*%
D14*
%TO.P,IC1,1,~{CS}*%
%TO.N,Net-(IC1-~{CS})*%
X81275000Y-49794000D03*
D15*
%TO.P,IC1,2,R/~{W}*%
%TO.N,Net-(IC1-R{slash}~{W})*%
X81275000Y-52334000D03*
%TO.P,IC1,3,A0*%
%TO.N,/A0*%
X81275000Y-54874000D03*
%TO.P,IC1,4,A1*%
%TO.N,/A1*%
X81275000Y-57414000D03*
%TO.P,IC1,5,DAL0*%
%TO.N,/D0*%
X81275000Y-59954000D03*
%TO.P,IC1,6,DAL1*%
%TO.N,/D1*%
X81275000Y-62494000D03*
%TO.P,IC1,7,DAL2*%
%TO.N,/D2*%
X81275000Y-65034000D03*
%TO.P,IC1,8,DAL3*%
%TO.N,/D3*%
X81275000Y-67574000D03*
%TO.P,IC1,9,DAL4*%
%TO.N,/D4*%
X81275000Y-70114000D03*
%TO.P,IC1,10,DAL5*%
%TO.N,/D5*%
X81275000Y-72654000D03*
%TO.P,IC1,11,DAL6*%
%TO.N,/D6*%
X81275000Y-75194000D03*
%TO.P,IC1,12,DAL7*%
%TO.N,/D7*%
X81275000Y-77734000D03*
%TO.P,IC1,13,~{MR}*%
%TO.N,Net-(IC1-~{MR})*%
X81275000Y-80274000D03*
%TO.P,IC1,14,GND*%
%TO.N,GND*%
X81275000Y-82814000D03*
%TO.P,IC1,15,VCC*%
%TO.N,+5V*%
X96515000Y-82814000D03*
%TO.P,IC1,16,STEP*%
%TO.N,/STEP*%
X96515000Y-80274000D03*
%TO.P,IC1,17,DIRC*%
%TO.N,/DIR*%
X96515000Y-77734000D03*
%TO.P,IC1,18,CLK*%
%TO.N,/CLK*%
X96515000Y-75194000D03*
%TO.P,IC1,19,~{RD}*%
%TO.N,/RD_DATA*%
X96515000Y-72654000D03*
%TO.P,IC1,20,MO*%
%TO.N,/MO*%
X96515000Y-70114000D03*
%TO.P,IC1,21,WG*%
%TO.N,/WR_EN*%
X96515000Y-67574000D03*
%TO.P,IC1,22,WD*%
%TO.N,/WR_DATA*%
X96515000Y-65034000D03*
%TO.P,IC1,23,~{TR00}*%
%TO.N,/~{TRK0}*%
X96515000Y-62494000D03*
%TO.P,IC1,24,~{IP}*%
%TO.N,/~{INDEX}*%
X96515000Y-59954000D03*
%TO.P,IC1,25,~{WPRT}*%
%TO.N,/~{WR_PROT}*%
X96515000Y-57414000D03*
%TO.P,IC1,26,~{DDEN}*%
%TO.N,Net-(IC1-~{DDEN})*%
X96515000Y-54874000D03*
%TO.P,IC1,27,DRQ*%
%TO.N,Net-(IC1-DRQ)*%
X96515000Y-52334000D03*
%TO.P,IC1,28,INTRQ*%
%TO.N,Net-(IC1-INTRQ)*%
X96515000Y-49794000D03*
%TD*%
D11*
%TO.P,IC3,1,Oe1*%
%TO.N,GND*%
X105475000Y-65659000D03*
%TO.P,IC3,2,Oe2*%
X105475000Y-66929000D03*
%TO.P,IC3,3,Q0*%
%TO.N,Net-(IC3-Q0)*%
X105475000Y-68199000D03*
%TO.P,IC3,4,Q1*%
%TO.N,Net-(IC3-Q1)*%
X105475000Y-69469000D03*
%TO.P,IC3,5,Q2*%
%TO.N,Net-(IC1-~{MR})*%
X105475000Y-70739000D03*
%TO.P,IC3,6,Q3*%
%TO.N,Net-(IC1-~{DDEN})*%
X105475000Y-72009000D03*
%TO.P,IC3,7,Cp*%
%TO.N,Net-(IC3-Cp)*%
X105475000Y-73279000D03*
%TO.P,IC3,8,GND*%
%TO.N,GND*%
X105475000Y-74549000D03*
%TO.P,IC3,9,E1*%
%TO.N,Net-(IC3-E1)*%
X110425000Y-74549000D03*
%TO.P,IC3,10,E2*%
%TO.N,Net-(IC3-E2)*%
X110425000Y-73279000D03*
%TO.P,IC3,11,D3*%
%TO.N,/D3*%
X110425000Y-72009000D03*
%TO.P,IC3,12,D2*%
%TO.N,/D5*%
X110425000Y-70739000D03*
%TO.P,IC3,13,D1*%
%TO.N,/D2*%
X110425000Y-69469000D03*
%TO.P,IC3,14,D0*%
%TO.N,/D0*%
X110425000Y-68199000D03*
%TO.P,IC3,15,Mr*%
%TO.N,Net-(IC3-Mr)*%
X110425000Y-66929000D03*
%TO.P,IC3,16,VCC*%
%TO.N,+5V*%
X110425000Y-65659000D03*
%TD*%
D16*
%TO.P,R1,1*%
%TO.N,Net-(IC5-CLK)*%
X109220000Y-77216000D03*
%TO.P,R1,2*%
%TO.N,/CLK*%
X107570000Y-77216000D03*
%TD*%
D17*
%TO.P,C2,1*%
%TO.N,+5V*%
X82804000Y-39611000D03*
%TO.P,C2,2*%
%TO.N,GND*%
X82804000Y-41161000D03*
%TD*%
D18*
%TO.P,IC2,1*%
%TO.N,Net-(IC3-E2)*%
X85090000Y-44639000D03*
%TO.P,IC2,2*%
%TO.N,Net-(IC2-Pad11)*%
X86360000Y-44639000D03*
%TO.P,IC2,3*%
%TO.N,Net-(IC1-~{CS})*%
X87630000Y-44639000D03*
%TO.P,IC2,4*%
%TO.N,Net-(IC5-~{RD})*%
X88900000Y-44639000D03*
%TO.P,IC2,5*%
%TO.N,Net-(IC2-Pad5)*%
X90170000Y-44639000D03*
%TO.P,IC2,6*%
%TO.N,Net-(IC1-R{slash}~{W})*%
X91440000Y-44639000D03*
%TO.P,IC2,7,GND*%
%TO.N,GND*%
X92710000Y-44639000D03*
%TO.P,IC2,8*%
%TO.N,Net-(IC2-Pad5)*%
X92710000Y-39689000D03*
%TO.P,IC2,9*%
%TO.N,Net-(IC1-R{slash}~{W})*%
X91440000Y-39689000D03*
%TO.P,IC2,10*%
%TO.N,Net-(IC3-Cp)*%
X90170000Y-39689000D03*
%TO.P,IC2,11*%
%TO.N,Net-(IC2-Pad11)*%
X88900000Y-39689000D03*
%TO.P,IC2,12*%
%TO.N,Net-(IC3-Cp)*%
X87630000Y-39689000D03*
%TO.P,IC2,13*%
%TO.N,Net-(IC5-~{RD})*%
X86360000Y-39689000D03*
%TO.P,IC2,14,VCC*%
%TO.N,+5V*%
X85090000Y-39689000D03*
%TD*%
D19*
%TO.N,+5V*%
X108716653Y-66289347D03*
X89662000Y-85344000D03*
%TO.N,GND*%
X107442000Y-47244000D03*
X107442000Y-42164000D03*
X87381000Y-82814000D03*
X87381000Y-61209000D03*
X87381000Y-68829000D03*
X87381000Y-51049000D03*
X97795000Y-47239000D03*
X87381000Y-58669000D03*
X82804000Y-42418000D03*
X92710000Y-42418000D03*
X107442000Y-74639000D03*
X87381000Y-76449000D03*
X97795000Y-44699000D03*
X87381000Y-78989000D03*
X87381000Y-66289000D03*
X98303000Y-54097000D03*
X107437347Y-67060653D03*
X87381000Y-63749000D03*
X107442000Y-65532000D03*
X87381000Y-73909000D03*
X107442000Y-52324000D03*
X87381000Y-71369000D03*
X87381000Y-53589000D03*
X98303000Y-49779000D03*
X87381000Y-56129000D03*
%TO.N,/D5*%
X112225000Y-70739000D03*
X111765000Y-76195000D03*
%TO.N,/DIR*%
X113030000Y-78994000D03*
%TO.N,/MO*%
X101600000Y-71374000D03*
X102870000Y-53594000D03*
%TO.N,/STEP*%
X113030000Y-81534000D03*
%TO.N,/WR_EN*%
X101092000Y-68834000D03*
X102870000Y-54864000D03*
%TO.N,Net-(IC1-~{DDEN})*%
X104220000Y-56642000D03*
X103558000Y-72644000D03*
%TO.N,Net-(IC1-~{MR})*%
X101600000Y-84074000D03*
X103442101Y-71157000D03*
%TO.N,Net-(IC5-INT)*%
X102180003Y-44704000D03*
%TO.N,Net-(IC5-CLK)*%
X113125000Y-44958000D03*
X110744000Y-77216000D03*
%TO.N,Net-(IC3-E2)*%
X112675000Y-45974000D03*
X112675000Y-73152000D03*
%TO.N,Net-(IC3-Cp)*%
X104219999Y-58838696D03*
X102108000Y-73189000D03*
%TO.N,Net-(IC3-Q1)*%
X103632000Y-69596000D03*
%TO.N,Net-(IC3-Mr)*%
X112225000Y-47244000D03*
X112225000Y-66929000D03*
%TO.N,Net-(IC3-Q0)*%
X102905003Y-52359003D03*
X102860696Y-67563999D03*
%TD*%
D20*
%TO.N,+5V*%
X85090000Y-38174432D02*
X86385432Y-36879000D01*
X85090000Y-39689000D02*
X85090000Y-38174432D01*
X110757000Y-63214000D02*
X110757000Y-65327000D01*
X109347000Y-65659000D02*
X108716653Y-66289347D01*
X93504569Y-36429000D02*
X95424569Y-38349000D01*
X110757000Y-44372000D02*
X110425000Y-44704000D01*
X110757000Y-42164000D02*
X110757000Y-40881000D01*
X110932000Y-38862000D02*
X110932000Y-40706000D01*
X110757000Y-65327000D02*
X110425000Y-65659000D01*
X95424569Y-38349000D02*
X102875000Y-38349000D01*
X110932000Y-37084000D02*
X115570000Y-37084000D01*
X110425000Y-65659000D02*
X109347000Y-65659000D01*
X110932000Y-40706000D02*
X110757000Y-40881000D01*
X89159000Y-36879000D02*
X89609000Y-36429000D01*
X82804000Y-39611000D02*
X85012000Y-39611000D01*
X110932000Y-38862000D02*
X110932000Y-37084000D01*
X102875000Y-38349000D02*
X104140000Y-37084000D01*
X104140000Y-37084000D02*
X110932000Y-37084000D01*
X110757000Y-42164000D02*
X110757000Y-44372000D01*
X89609000Y-36429000D02*
X93504569Y-36429000D01*
X86385432Y-36879000D02*
X89159000Y-36879000D01*
X90906000Y-85344000D02*
X89662000Y-85344000D01*
%TO.N,GND*%
X92710000Y-85344000D02*
X100330000Y-85344000D01*
X87381000Y-82814000D02*
X81275000Y-82814000D01*
X82804000Y-42418000D02*
X82804000Y-41161000D01*
X107352000Y-74549000D02*
X107442000Y-74639000D01*
X107442000Y-65532000D02*
X108204000Y-65532000D01*
X92710000Y-42418000D02*
X92710000Y-44639000D01*
X105475000Y-65659000D02*
X107315000Y-65659000D01*
X105475000Y-66929000D02*
X107305694Y-66929000D01*
X92456000Y-85344000D02*
X92456000Y-83820000D01*
X107315000Y-65659000D02*
X107442000Y-65532000D01*
X109207000Y-40881000D02*
X109207000Y-42164000D01*
X109032000Y-40706000D02*
X109207000Y-40881000D01*
X109207000Y-42164000D02*
X107442000Y-42164000D01*
X109207000Y-63214000D02*
X109207000Y-64529000D01*
X105475000Y-74549000D02*
X107352000Y-74549000D01*
X109207000Y-64529000D02*
X108204000Y-65532000D01*
X92456000Y-83820000D02*
X91450000Y-82814000D01*
X107442000Y-47244000D02*
X110425000Y-47244000D01*
X91450000Y-82814000D02*
X87381000Y-82814000D01*
X107442000Y-52324000D02*
X105475000Y-52324000D01*
X107305694Y-66929000D02*
X107437347Y-67060653D01*
X109032000Y-38862000D02*
X109032000Y-40706000D01*
D21*
%TO.N,/CLK*%
X102322000Y-77216000D02*
X101560000Y-76454000D01*
X101560000Y-76454000D02*
X99060000Y-76454000D01*
X99060000Y-76454000D02*
X97800000Y-75194000D01*
X97800000Y-75194000D02*
X96515000Y-75194000D01*
X107570000Y-77216000D02*
X102322000Y-77216000D01*
%TO.N,/D0*%
X99060000Y-65024000D02*
X97790000Y-63754000D01*
X100330000Y-65024000D02*
X99060000Y-65024000D01*
X81275000Y-59954000D02*
X90180000Y-59954000D01*
X100426396Y-65024000D02*
X101696396Y-66294000D01*
X107696000Y-66294000D02*
X109601000Y-68199000D01*
X93980000Y-63754000D02*
X97790000Y-63754000D01*
X90180000Y-59954000D02*
X93980000Y-63754000D01*
X101696396Y-66294000D02*
X107696000Y-66294000D01*
%TO.N,/D5*%
X101331000Y-77724000D02*
X101849000Y-78242000D01*
X101849000Y-78242000D02*
X111496000Y-78242000D01*
X100330000Y-77724000D02*
X101331000Y-77724000D01*
X112225000Y-70739000D02*
X110425000Y-70739000D01*
X111496000Y-78242000D02*
X111765000Y-77973000D01*
X99060000Y-77724000D02*
X97790000Y-76454000D01*
X81275000Y-72654000D02*
X90180000Y-72654000D01*
X90180000Y-72654000D02*
X93980000Y-76454000D01*
X93980000Y-76454000D02*
X97790000Y-76454000D01*
X111765000Y-77973000D02*
X111765000Y-76195000D01*
X100330000Y-77724000D02*
X99060000Y-77724000D01*
%TO.N,/~{TRK0}*%
X100966396Y-63754000D02*
X104776396Y-59944000D01*
X98806000Y-63754000D02*
X100966396Y-63754000D01*
X104776396Y-59944000D02*
X115570000Y-59944000D01*
X96515000Y-62494000D02*
X97546000Y-62494000D01*
X97546000Y-62494000D02*
X98806000Y-63754000D01*
%TO.N,/D3*%
X101600000Y-72644000D02*
X100330000Y-72644000D01*
X93980000Y-71374000D02*
X97790000Y-71374000D01*
X81275000Y-67574000D02*
X90180000Y-67574000D01*
X100330000Y-72644000D02*
X99060000Y-72644000D01*
X110425000Y-72009000D02*
X107315000Y-72009000D01*
X102362000Y-71882000D02*
X101600000Y-72644000D01*
X90180000Y-67574000D02*
X93980000Y-71374000D01*
X107315000Y-72009000D02*
X106680000Y-71374000D01*
X103886000Y-71882000D02*
X102362000Y-71882000D01*
X99060000Y-72644000D02*
X97790000Y-71374000D01*
X104394000Y-71374000D02*
X103886000Y-71882000D01*
X106680000Y-71374000D02*
X104394000Y-71374000D01*
%TO.N,/D7*%
X90180000Y-77734000D02*
X93980000Y-81534000D01*
X99060000Y-82804000D02*
X97790000Y-81534000D01*
X100330000Y-82804000D02*
X99060000Y-82804000D01*
X81275000Y-77734000D02*
X90180000Y-77734000D01*
X93980000Y-81534000D02*
X97790000Y-81534000D01*
%TO.N,/D1*%
X90180000Y-62494000D02*
X93980000Y-66294000D01*
X81275000Y-62494000D02*
X90180000Y-62494000D01*
X100330000Y-67564000D02*
X99060000Y-67564000D01*
X93980000Y-66294000D02*
X97790000Y-66294000D01*
X99060000Y-67564000D02*
X97790000Y-66294000D01*
%TO.N,/RD_DATA*%
X97800000Y-72654000D02*
X99060000Y-73914000D01*
X114300000Y-72644000D02*
X114300000Y-71374000D01*
X114300000Y-71374000D02*
X115570000Y-70104000D01*
X99060000Y-73914000D02*
X113030000Y-73914000D01*
X113030000Y-73914000D02*
X114300000Y-72644000D01*
X96515000Y-72654000D02*
X97800000Y-72654000D01*
%TO.N,/DIR*%
X96515000Y-77734000D02*
X97800000Y-77734000D01*
X97800000Y-77734000D02*
X99060000Y-78994000D01*
X99060000Y-78994000D02*
X113030000Y-78994000D01*
%TO.N,/A0*%
X80150000Y-55999000D02*
X80150000Y-85484000D01*
X81275000Y-54874000D02*
X80150000Y-55999000D01*
X81135000Y-86469000D02*
X110635000Y-86469000D01*
X110635000Y-86469000D02*
X111760000Y-85344000D01*
X111760000Y-85344000D02*
X115570000Y-85344000D01*
X80150000Y-85484000D02*
X81135000Y-86469000D01*
%TO.N,/D6*%
X99060000Y-80264000D02*
X97790000Y-78994000D01*
X93980000Y-78994000D02*
X97790000Y-78994000D01*
X90180000Y-75194000D02*
X93980000Y-78994000D01*
X100330000Y-80264000D02*
X99060000Y-80264000D01*
X81275000Y-75194000D02*
X90180000Y-75194000D01*
%TO.N,/D4*%
X100330000Y-75184000D02*
X99060000Y-75184000D01*
X81275000Y-70114000D02*
X90180000Y-70114000D01*
X99060000Y-75184000D02*
X97790000Y-73914000D01*
X90180000Y-70114000D02*
X93980000Y-73914000D01*
X93980000Y-73914000D02*
X97790000Y-73914000D01*
%TO.N,/~{WR_PROT}*%
X104520304Y-58113696D02*
X103430304Y-58113696D01*
X102870000Y-58674000D02*
X99060000Y-58674000D01*
X114060000Y-56374000D02*
X114060000Y-58214000D01*
X114060000Y-58214000D02*
X113230000Y-59044000D01*
X115570000Y-54864000D02*
X114060000Y-56374000D01*
X99060000Y-58674000D02*
X97800000Y-57414000D01*
X103430304Y-58113696D02*
X102870000Y-58674000D01*
X113230000Y-59044000D02*
X105450608Y-59044000D01*
X105450608Y-59044000D02*
X104520304Y-58113696D01*
X97800000Y-57414000D02*
X96515000Y-57414000D01*
%TO.N,/MO*%
X115570000Y-42164000D02*
X113850000Y-43884000D01*
X113850000Y-43884000D02*
X113850000Y-46924000D01*
X96515000Y-70114000D02*
X97800000Y-70114000D01*
X97800000Y-70114000D02*
X99060000Y-71374000D01*
X99060000Y-71374000D02*
X101600000Y-71374000D01*
X112060000Y-48714000D02*
X112060000Y-52594000D01*
X112060000Y-52594000D02*
X111060000Y-53594000D01*
X111060000Y-53594000D02*
X102870000Y-53594000D01*
X113850000Y-46924000D02*
X112060000Y-48714000D01*
%TO.N,/~{INDEX}*%
X96515000Y-59954000D02*
X97800000Y-59954000D01*
X113740000Y-59494000D02*
X114560000Y-58674000D01*
X114560000Y-58674000D02*
X115890991Y-58674000D01*
X102870000Y-61214000D02*
X104590000Y-59494000D01*
X116840000Y-53594000D02*
X115570000Y-52324000D01*
X97800000Y-59954000D02*
X99060000Y-61214000D01*
X104590000Y-59494000D02*
X113740000Y-59494000D01*
X115890991Y-58674000D02*
X116840000Y-57724991D01*
X99060000Y-61214000D02*
X102870000Y-61214000D01*
X116840000Y-57724991D02*
X116840000Y-53594000D01*
%TO.N,/STEP*%
X99060000Y-81534000D02*
X113030000Y-81534000D01*
X96515000Y-80274000D02*
X97800000Y-80274000D01*
X97800000Y-80274000D02*
X99060000Y-81534000D01*
%TO.N,/WR_DATA*%
X107820000Y-68834000D02*
X112776000Y-68834000D01*
X101060000Y-66294000D02*
X101520000Y-66754000D01*
X97646370Y-65034000D02*
X98906370Y-66294000D01*
X113792000Y-66802000D02*
X115570000Y-65024000D01*
X106560000Y-67574000D02*
X107820000Y-68834000D01*
X98906370Y-66294000D02*
X101060000Y-66294000D01*
X96515000Y-65034000D02*
X97646370Y-65034000D01*
X103896002Y-67574000D02*
X106560000Y-67574000D01*
X103076002Y-66754000D02*
X103896002Y-67574000D01*
X101520000Y-66754000D02*
X103076002Y-66754000D01*
X112776000Y-68834000D02*
X113792000Y-67818000D01*
X113792000Y-67818000D02*
X113792000Y-66802000D01*
%TO.N,/WR_EN*%
X97800000Y-67574000D02*
X99060000Y-68834000D01*
X111246396Y-54044000D02*
X103690000Y-54044000D01*
X99060000Y-68834000D02*
X101092000Y-68834000D01*
X96515000Y-67574000D02*
X97800000Y-67574000D01*
X115570000Y-49784000D02*
X113490000Y-49784000D01*
X112560000Y-50714000D02*
X112560000Y-52730396D01*
X113490000Y-49784000D02*
X112560000Y-50714000D01*
X103690000Y-54044000D02*
X102870000Y-54864000D01*
X112560000Y-52730396D02*
X111246396Y-54044000D01*
%TO.N,/D2*%
X93980000Y-68834000D02*
X97790000Y-68834000D01*
X110425000Y-69469000D02*
X107315000Y-69469000D01*
X107315000Y-69469000D02*
X106680000Y-70104000D01*
X100330000Y-70104000D02*
X99060000Y-70104000D01*
X81275000Y-65034000D02*
X90180000Y-65034000D01*
X90180000Y-65034000D02*
X93980000Y-68834000D01*
X106680000Y-70104000D02*
X104149305Y-70104000D01*
X103932305Y-70321000D02*
X100547000Y-70321000D01*
X104149305Y-70104000D02*
X103932305Y-70321000D01*
X99060000Y-70104000D02*
X97790000Y-68834000D01*
%TO.N,Net-(IC1-~{DDEN})*%
X99060000Y-56134000D02*
X103712000Y-56134000D01*
X104220000Y-56642000D02*
X103712000Y-56134000D01*
X97800000Y-54874000D02*
X99060000Y-56134000D01*
X104840000Y-72644000D02*
X103558000Y-72644000D01*
X105475000Y-72009000D02*
X104840000Y-72644000D01*
X96515000Y-54874000D02*
X97800000Y-54874000D01*
%TO.N,Net-(IC1-~{MR})*%
X103732701Y-71157000D02*
X104150701Y-70739000D01*
X90180000Y-80274000D02*
X93980000Y-84074000D01*
X81275000Y-80274000D02*
X90180000Y-80274000D01*
X93980000Y-84074000D02*
X101600000Y-84074000D01*
X103442101Y-71157000D02*
X103732701Y-71157000D01*
X104150701Y-70739000D02*
X105475000Y-70739000D01*
%TO.N,Net-(IC1-DRQ)*%
X102108000Y-51562000D02*
X102108000Y-53086000D01*
X97800000Y-52334000D02*
X96515000Y-52334000D01*
X102616000Y-51054000D02*
X102108000Y-51562000D01*
X102108000Y-53086000D02*
X101600000Y-53594000D01*
X105475000Y-51054000D02*
X102616000Y-51054000D01*
X99060000Y-53594000D02*
X97800000Y-52334000D01*
X101600000Y-53594000D02*
X99060000Y-53594000D01*
%TO.N,Net-(IC1-INTRQ)*%
X102870000Y-48514000D02*
X104140000Y-49784000D01*
X97795000Y-48514000D02*
X102870000Y-48514000D01*
X104140000Y-49784000D02*
X105475000Y-49784000D01*
X96515000Y-49794000D02*
X97795000Y-48514000D01*
%TO.N,Net-(IC1-R{slash}~{W})*%
X91440000Y-39689000D02*
X91440000Y-44639000D01*
X91440000Y-51054000D02*
X90160000Y-52334000D01*
X91440000Y-44639000D02*
X91440000Y-51054000D01*
X90160000Y-52334000D02*
X81275000Y-52334000D01*
%TO.N,Net-(IC1-~{CS})*%
X86350000Y-49794000D02*
X87630000Y-48514000D01*
X81275000Y-49794000D02*
X86350000Y-49794000D01*
X87630000Y-48514000D02*
X87630000Y-44639000D01*
%TO.N,Net-(IC5-~{RD})*%
X88574999Y-43339000D02*
X87279092Y-43339000D01*
X93980000Y-42800396D02*
X94726802Y-43547198D01*
X93080000Y-37454000D02*
X93980000Y-38354000D01*
X89720000Y-37904000D02*
X90170000Y-37454000D01*
X86360000Y-39689000D02*
X86360000Y-41519000D01*
X95405000Y-56134000D02*
X97790000Y-56134000D01*
X88900000Y-43664001D02*
X88574999Y-43339000D01*
X86360000Y-39689000D02*
X86360000Y-38354000D01*
X86810000Y-37904000D02*
X89720000Y-37904000D01*
X86024092Y-45974000D02*
X85715000Y-45664908D01*
X87005000Y-43613092D02*
X87005000Y-45644908D01*
X94726802Y-43547198D02*
X94726802Y-55455802D01*
X86360000Y-38354000D02*
X86810000Y-37904000D01*
X86675908Y-45974000D02*
X86024092Y-45974000D01*
X88900000Y-44639000D02*
X88900000Y-43664001D01*
X99060000Y-57404000D02*
X100330000Y-57404000D01*
X87279092Y-43339000D02*
X87005000Y-43613092D01*
X85715000Y-45664908D02*
X85715000Y-42164000D01*
X94726802Y-55455802D02*
X95405000Y-56134000D01*
X90170000Y-37454000D02*
X93080000Y-37454000D01*
X87005000Y-45644908D02*
X86675908Y-45974000D01*
X97790000Y-56134000D02*
X99060000Y-57404000D01*
X86360000Y-41519000D02*
X85715000Y-42164000D01*
X93980000Y-38354000D02*
X93980000Y-42800396D01*
%TO.N,Net-(IC5-SEL1)*%
X103378000Y-49784000D02*
X100330000Y-49784000D01*
X110425000Y-49784000D02*
X107950000Y-49784000D01*
X107325000Y-50409000D02*
X104003000Y-50409000D01*
X104003000Y-50409000D02*
X103378000Y-49784000D01*
X107950000Y-49784000D02*
X107325000Y-50409000D01*
%TO.N,Net-(IC4-Pad2)*%
X105475000Y-47244000D02*
X105475000Y-48514000D01*
X105475000Y-45974000D02*
X105475000Y-47244000D01*
%TO.N,Net-(IC5-~{DACK})*%
X97790000Y-51054000D02*
X95758000Y-51054000D01*
X99060000Y-52324000D02*
X97790000Y-51054000D01*
X108204000Y-48514000D02*
X110425000Y-48514000D01*
X95758000Y-51054000D02*
X95250000Y-50546000D01*
X100330000Y-52324000D02*
X99060000Y-52324000D01*
X95250000Y-50546000D02*
X95250000Y-46736000D01*
X96012000Y-45974000D02*
X101284092Y-45974000D01*
X104449092Y-49139000D02*
X107579000Y-49139000D01*
X95250000Y-46736000D02*
X96012000Y-45974000D01*
X107579000Y-49139000D02*
X108204000Y-48514000D01*
X101284092Y-45974000D02*
X104449092Y-49139000D01*
%TO.N,Net-(IC5-INT)*%
X105475000Y-44704000D02*
X102180003Y-44704000D01*
%TO.N,Net-(IC5-CLK)*%
X108407304Y-45349000D02*
X112131000Y-45349000D01*
X101881640Y-43523046D02*
X106581350Y-43523046D01*
X112131000Y-45349000D02*
X112522000Y-44958000D01*
X100522594Y-42164000D02*
X101881640Y-43523046D01*
X112522000Y-44958000D02*
X113125000Y-44958000D01*
X109220000Y-77216000D02*
X110744000Y-77216000D01*
X106581350Y-43523046D02*
X108407304Y-45349000D01*
%TO.N,Net-(IC2-Pad11)*%
X88900000Y-40894000D02*
X86360000Y-43434000D01*
X88900000Y-39689000D02*
X88900000Y-40894000D01*
X86360000Y-43434000D02*
X86360000Y-44639000D01*
%TO.N,Net-(IC3-E2)*%
X86623604Y-37454000D02*
X85735000Y-38342604D01*
X101695244Y-43973046D02*
X101151198Y-43429000D01*
X93266396Y-37004000D02*
X89916000Y-37004000D01*
X95245000Y-43429000D02*
X94430000Y-42614000D01*
X110425000Y-73279000D02*
X112548000Y-73279000D01*
X89916000Y-37004000D02*
X89466000Y-37454000D01*
X108395908Y-45974000D02*
X106394954Y-43973046D01*
X89466000Y-37454000D02*
X86623604Y-37454000D01*
X85735000Y-38342604D02*
X85735000Y-41507604D01*
X106394954Y-43973046D02*
X101695244Y-43973046D01*
X112675000Y-45974000D02*
X110425000Y-45974000D01*
X101151198Y-43429000D02*
X95245000Y-43429000D01*
X110425000Y-45974000D02*
X108395908Y-45974000D01*
X85735000Y-41507604D02*
X85090000Y-42152604D01*
X85090000Y-42152604D02*
X85090000Y-44639000D01*
X112548000Y-73279000D02*
X112675000Y-73152000D01*
X94430000Y-38167604D02*
X93266396Y-37004000D01*
X94430000Y-42614000D02*
X94430000Y-38167604D01*
%TO.N,Net-(IC3-Cp)*%
X90170000Y-38671696D02*
X90170000Y-39689000D01*
X104140000Y-73464000D02*
X102383000Y-73464000D01*
X97790000Y-58674000D02*
X95250000Y-58674000D01*
X105475000Y-73279000D02*
X104325000Y-73279000D01*
X104325000Y-73279000D02*
X104140000Y-73464000D01*
X92575908Y-37904000D02*
X90937696Y-37904000D01*
X103114695Y-59944000D02*
X104219999Y-58838696D01*
X87630000Y-39689000D02*
X87630000Y-38714001D01*
X94276802Y-43733594D02*
X93530000Y-42986792D01*
X89809999Y-38354000D02*
X90170000Y-38714001D01*
X99060000Y-59944000D02*
X97790000Y-58674000D01*
X87630000Y-38714001D02*
X87990001Y-38354000D01*
X100330000Y-59944000D02*
X103114695Y-59944000D01*
X93530000Y-38858092D02*
X92575908Y-37904000D01*
X100330000Y-59944000D02*
X99060000Y-59944000D01*
X93530000Y-42986792D02*
X93530000Y-38858092D01*
X87990001Y-38354000D02*
X89809999Y-38354000D01*
X94276802Y-57700802D02*
X94276802Y-43733594D01*
X90170000Y-38714001D02*
X90170000Y-39689000D01*
X90937696Y-37904000D02*
X90170000Y-38671696D01*
X102383000Y-73464000D02*
X102108000Y-73189000D01*
X95250000Y-58674000D02*
X94276802Y-57700802D01*
%TO.N,Net-(IC2-Pad5)*%
X90795000Y-38683092D02*
X90795000Y-41539000D01*
X90795000Y-41539000D02*
X90170000Y-42164000D01*
X91124092Y-38354000D02*
X90795000Y-38683092D01*
X90170000Y-42164000D02*
X90170000Y-44639000D01*
X92710000Y-39689000D02*
X92710000Y-38714001D01*
X92710000Y-38714001D02*
X92349999Y-38354000D01*
X92349999Y-38354000D02*
X91124092Y-38354000D01*
%TO.N,Net-(IC3-Q1)*%
X105475000Y-69469000D02*
X103759000Y-69469000D01*
X103759000Y-69469000D02*
X103632000Y-69596000D01*
%TO.N,Net-(IC3-Mr)*%
X101817000Y-45429000D02*
X104294000Y-45429000D01*
X107114512Y-45329000D02*
X108384512Y-46599000D01*
X101092000Y-44704000D02*
X101817000Y-45429000D01*
X110425000Y-66929000D02*
X112225000Y-66929000D01*
X104294000Y-45429000D02*
X104394000Y-45329000D01*
X111580000Y-46599000D02*
X112225000Y-47244000D01*
X108384512Y-46599000D02*
X111580000Y-46599000D01*
X100330000Y-44704000D02*
X101092000Y-44704000D01*
X104394000Y-45329000D02*
X107114512Y-45329000D01*
%TO.N,Net-(IC3-Q0)*%
X103495697Y-68199000D02*
X105475000Y-68199000D01*
X109605000Y-53144000D02*
X103690000Y-53144000D01*
X110425000Y-52324000D02*
X110425000Y-51054000D01*
X103690000Y-53144000D02*
X102905003Y-52359003D01*
X102860696Y-67563999D02*
X103495697Y-68199000D01*
X110425000Y-52324000D02*
X109605000Y-53144000D01*
%TO.N,Net-(IC3-E1)*%
X113396000Y-74549000D02*
X110425000Y-74549000D01*
X115570000Y-77724000D02*
X114285000Y-77724000D01*
X113787000Y-77226000D02*
X113787000Y-74940000D01*
X113787000Y-74940000D02*
X113396000Y-74549000D01*
X114285000Y-77724000D02*
X113787000Y-77226000D01*
%TD*%
%TA.AperFunction,Conductor*%
%TO.N,GND*%
G36*
X117178834Y-58025364D02*
G01*
X117234767Y-58067236D01*
X117259184Y-58132700D01*
X117259500Y-58141546D01*
X117259500Y-87289500D01*
X117239815Y-87356539D01*
X117187011Y-87402294D01*
X117135500Y-87413500D01*
X79984500Y-87413500D01*
X79917461Y-87393815D01*
X79871706Y-87341011D01*
X79860500Y-87289500D01*
X79860500Y-86030556D01*
X79880185Y-85963517D01*
X79932989Y-85917762D01*
X80002147Y-85907818D01*
X80065703Y-85936843D01*
X80072181Y-85942875D01*
X80826983Y-86697677D01*
X80826993Y-86697688D01*
X80831323Y-86702018D01*
X80831324Y-86702019D01*
X80901981Y-86772676D01*
X80988518Y-86822638D01*
X81085038Y-86848500D01*
X81184962Y-86848500D01*
X110577426Y-86848500D01*
X110577442Y-86848501D01*
X110585038Y-86848501D01*
X110684961Y-86848501D01*
X110684962Y-86848501D01*
X110761080Y-86828104D01*
X110761082Y-86828104D01*
X110774015Y-86824638D01*
X110781482Y-86822638D01*
X110868019Y-86772676D01*
X110938676Y-86702019D01*
X110938676Y-86702017D01*
X110948880Y-86691814D01*
X110948883Y-86691809D01*
X111880875Y-85759819D01*
X111942198Y-85726334D01*
X111968556Y-85723500D01*
X114502839Y-85723500D01*
X114569878Y-85743185D01*
X114612197Y-85789047D01*
X114688969Y-85932677D01*
X114688974Y-85932684D01*
X114820747Y-86093252D01*
X114932483Y-86184950D01*
X114981317Y-86225027D01*
X114981320Y-86225028D01*
X114981322Y-86225030D01*
X115164503Y-86322943D01*
X115164505Y-86322943D01*
X115164508Y-86322945D01*
X115363282Y-86383242D01*
X115570000Y-86403602D01*
X115776718Y-86383242D01*
X115975492Y-86322945D01*
X116158683Y-86225027D01*
X116319252Y-86093252D01*
X116451027Y-85932683D01*
X116548945Y-85749492D01*
X116609242Y-85550718D01*
X116629602Y-85344000D01*
X116609242Y-85137282D01*
X116548945Y-84938508D01*
X116548943Y-84938505D01*
X116548943Y-84938503D01*
X116451030Y-84755322D01*
X116451028Y-84755320D01*
X116451027Y-84755317D01*
X116380045Y-84668825D01*
X116319252Y-84594747D01*
X116158684Y-84462974D01*
X116158677Y-84462969D01*
X115975496Y-84365056D01*
X115776716Y-84304757D01*
X115570000Y-84284398D01*
X115363283Y-84304757D01*
X115164503Y-84365056D01*
X114981322Y-84462969D01*
X114981315Y-84462974D01*
X114820747Y-84594747D01*
X114688974Y-84755315D01*
X114688969Y-84755322D01*
X114612197Y-84898953D01*
X114563235Y-84948797D01*
X114502839Y-84964500D01*
X111710038Y-84964500D01*
X111613518Y-84990362D01*
X111613515Y-84990363D01*
X111526984Y-85040321D01*
X111526979Y-85040325D01*
X111473306Y-85093999D01*
X111456324Y-85110981D01*
X111456322Y-85110983D01*
X110973306Y-85594000D01*
X110514125Y-86053181D01*
X110452802Y-86086666D01*
X110426444Y-86089500D01*
X101611400Y-86089500D01*
X101544361Y-86069815D01*
X101498606Y-86017011D01*
X101488662Y-85947853D01*
X101499018Y-85913095D01*
X101556265Y-85790326D01*
X101556269Y-85790317D01*
X101608872Y-85594000D01*
X100645686Y-85594000D01*
X100650080Y-85589606D01*
X100702741Y-85498394D01*
X100730000Y-85396661D01*
X100730000Y-85291339D01*
X100702741Y-85189606D01*
X100650080Y-85098394D01*
X100645686Y-85094000D01*
X101608872Y-85094000D01*
X101608872Y-85093999D01*
X101556266Y-84897671D01*
X101555262Y-84894912D01*
X101555179Y-84893615D01*
X101554866Y-84892445D01*
X101555101Y-84892381D01*
X101550829Y-84825183D01*
X101584799Y-84764127D01*
X101646386Y-84731129D01*
X101671783Y-84728500D01*
X101679472Y-84728500D01*
X101730911Y-84715821D01*
X101833793Y-84690463D01*
X101974529Y-84616599D01*
X102093498Y-84511201D01*
X102183787Y-84380395D01*
X102240149Y-84231782D01*
X102259307Y-84074000D01*
X102253765Y-84028361D01*
X102240149Y-83916218D01*
X102220194Y-83863601D01*
X102183787Y-83767605D01*
X102093498Y-83636799D01*
X102093495Y-83636796D01*
X102093493Y-83636794D01*
X101974530Y-83531401D01*
X101833791Y-83457536D01*
X101679472Y-83419500D01*
X101679471Y-83419500D01*
X101520529Y-83419500D01*
X101520528Y-83419500D01*
X101417788Y-83444823D01*
X101347986Y-83441754D01*
X101290924Y-83401434D01*
X101264718Y-83336665D01*
X101277690Y-83268010D01*
X101278724Y-83266030D01*
X101308945Y-83209492D01*
X101369242Y-83010718D01*
X101389602Y-82804000D01*
X114510398Y-82804000D01*
X114530757Y-83010716D01*
X114591056Y-83209496D01*
X114688969Y-83392677D01*
X114688974Y-83392684D01*
X114820747Y-83553252D01*
X114904531Y-83622011D01*
X114981317Y-83685027D01*
X114981320Y-83685028D01*
X114981322Y-83685030D01*
X115164503Y-83782943D01*
X115164505Y-83782943D01*
X115164508Y-83782945D01*
X115363282Y-83843242D01*
X115570000Y-83863602D01*
X115776718Y-83843242D01*
X115975492Y-83782945D01*
X116158683Y-83685027D01*
X116319252Y-83553252D01*
X116451027Y-83392683D01*
X116543600Y-83219492D01*
X116548943Y-83209496D01*
X116548944Y-83209494D01*
X116548945Y-83209492D01*
X116609242Y-83010718D01*
X116629602Y-82804000D01*
X116609242Y-82597282D01*
X116548945Y-82398508D01*
X116548943Y-82398505D01*
X116548943Y-82398503D01*
X116451030Y-82215322D01*
X116451028Y-82215320D01*
X116451027Y-82215317D01*
X116397803Y-82150463D01*
X116319252Y-82054747D01*
X116158684Y-81922974D01*
X116158677Y-81922969D01*
X115975496Y-81825056D01*
X115776716Y-81764757D01*
X115570000Y-81744398D01*
X115363283Y-81764757D01*
X115164503Y-81825056D01*
X114981322Y-81922969D01*
X114981315Y-81922974D01*
X114820747Y-82054747D01*
X114688974Y-82215315D01*
X114688969Y-82215322D01*
X114591056Y-82398503D01*
X114530757Y-82597283D01*
X114510398Y-82804000D01*
X101389602Y-82804000D01*
X101369242Y-82597282D01*
X101308945Y-82398508D01*
X101308943Y-82398505D01*
X101308943Y-82398503D01*
X101211030Y-82215322D01*
X101211028Y-82215319D01*
X101211027Y-82215317D01*
X101157803Y-82150463D01*
X101129655Y-82116164D01*
X101102343Y-82051854D01*
X101114134Y-81982987D01*
X101161287Y-81931427D01*
X101225509Y-81913500D01*
X112431594Y-81913500D01*
X112498633Y-81933185D01*
X112533645Y-81967062D01*
X112536499Y-81971197D01*
X112536506Y-81971205D01*
X112655469Y-82076598D01*
X112655471Y-82076599D01*
X112796207Y-82150463D01*
X112841055Y-82161517D01*
X112950528Y-82188500D01*
X112950529Y-82188500D01*
X113109472Y-82188500D01*
X113160911Y-82175821D01*
X113263793Y-82150463D01*
X113404529Y-82076599D01*
X113523498Y-81971201D01*
X113613787Y-81840395D01*
X113670149Y-81691782D01*
X113689307Y-81534000D01*
X113681539Y-81470028D01*
X113670149Y-81376218D01*
X113655332Y-81337149D01*
X113613787Y-81227605D01*
X113523498Y-81096799D01*
X113523495Y-81096796D01*
X113523493Y-81096794D01*
X113404530Y-80991401D01*
X113263791Y-80917536D01*
X113109472Y-80879500D01*
X113109471Y-80879500D01*
X112950529Y-80879500D01*
X112950528Y-80879500D01*
X112796208Y-80917536D01*
X112655469Y-80991401D01*
X112536506Y-81096794D01*
X112536499Y-81096802D01*
X112533645Y-81100938D01*
X112479363Y-81144930D01*
X112431594Y-81154500D01*
X101225509Y-81154500D01*
X101158470Y-81134815D01*
X101112715Y-81082011D01*
X101102771Y-81012853D01*
X101129655Y-80951836D01*
X101157804Y-80917536D01*
X101211027Y-80852683D01*
X101269777Y-80742768D01*
X101308943Y-80669496D01*
X101308943Y-80669495D01*
X101308945Y-80669492D01*
X101369242Y-80470718D01*
X101389602Y-80264000D01*
X114510398Y-80264000D01*
X114530757Y-80470716D01*
X114591056Y-80669496D01*
X114688969Y-80852677D01*
X114688974Y-80852684D01*
X114820747Y-81013252D01*
X114894566Y-81073833D01*
X114981317Y-81145027D01*
X114981320Y-81145028D01*
X114981322Y-81145030D01*
X115164503Y-81242943D01*
X115164505Y-81242943D01*
X115164508Y-81242945D01*
X115363282Y-81303242D01*
X115570000Y-81323602D01*
X115776718Y-81303242D01*
X115975492Y-81242945D01*
X116158683Y-81145027D01*
X116319252Y-81013252D01*
X116451027Y-80852683D01*
X116509777Y-80742768D01*
X116548943Y-80669496D01*
X116548943Y-80669495D01*
X116548945Y-80669492D01*
X116609242Y-80470718D01*
X116629602Y-80264000D01*
X116609242Y-80057282D01*
X116548945Y-79858508D01*
X116548943Y-79858505D01*
X116548943Y-79858503D01*
X116451030Y-79675322D01*
X116451028Y-79675320D01*
X116451027Y-79675317D01*
X116397803Y-79610463D01*
X116319252Y-79514747D01*
X116158684Y-79382974D01*
X116158677Y-79382969D01*
X115975496Y-79285056D01*
X115776716Y-79224757D01*
X115570000Y-79204398D01*
X115363283Y-79224757D01*
X115164503Y-79285056D01*
X114981322Y-79382969D01*
X114981315Y-79382974D01*
X114820747Y-79514747D01*
X114688974Y-79675315D01*
X114688969Y-79675322D01*
X114591056Y-79858503D01*
X114530757Y-80057283D01*
X114510398Y-80264000D01*
X101389602Y-80264000D01*
X101369242Y-80057282D01*
X101308945Y-79858508D01*
X101308943Y-79858505D01*
X101308943Y-79858503D01*
X101211030Y-79675322D01*
X101211028Y-79675319D01*
X101211027Y-79675317D01*
X101157803Y-79610463D01*
X101129655Y-79576164D01*
X101102343Y-79511854D01*
X101114134Y-79442987D01*
X101161287Y-79391427D01*
X101225509Y-79373500D01*
X112431594Y-79373500D01*
X112498633Y-79393185D01*
X112533645Y-79427062D01*
X112536499Y-79431197D01*
X112536506Y-79431205D01*
X112655469Y-79536598D01*
X112655471Y-79536599D01*
X112796207Y-79610463D01*
X112873368Y-79629481D01*
X112950528Y-79648500D01*
X112950529Y-79648500D01*
X113109472Y-79648500D01*
X113160911Y-79635821D01*
X113263793Y-79610463D01*
X113404529Y-79536599D01*
X113523498Y-79431201D01*
X113613787Y-79300395D01*
X113670149Y-79151782D01*
X113689307Y-78994000D01*
X113670149Y-78836218D01*
X113613787Y-78687605D01*
X113523498Y-78556799D01*
X113523495Y-78556796D01*
X113523493Y-78556794D01*
X113404530Y-78451401D01*
X113263791Y-78377536D01*
X113109472Y-78339500D01*
X113109471Y-78339500D01*
X112950529Y-78339500D01*
X112950528Y-78339500D01*
X112796208Y-78377536D01*
X112655469Y-78451401D01*
X112536506Y-78556794D01*
X112536499Y-78556802D01*
X112533645Y-78560938D01*
X112479363Y-78604930D01*
X112431594Y-78614500D01*
X111959555Y-78614500D01*
X111892516Y-78594815D01*
X111846761Y-78542011D01*
X111836817Y-78472853D01*
X111865842Y-78409297D01*
X111871859Y-78402833D01*
X111987812Y-78286880D01*
X111987817Y-78286877D01*
X111998017Y-78276676D01*
X111998019Y-78276676D01*
X112068676Y-78206019D01*
X112118638Y-78119482D01*
X112144500Y-78022962D01*
X112144500Y-76789002D01*
X112164185Y-76721963D01*
X112186273Y-76696187D01*
X112187887Y-76694757D01*
X112258498Y-76632201D01*
X112348787Y-76501395D01*
X112405149Y-76352782D01*
X112424307Y-76195000D01*
X112405149Y-76037218D01*
X112348787Y-75888605D01*
X112258498Y-75757799D01*
X112258495Y-75757796D01*
X112258493Y-75757794D01*
X112139530Y-75652401D01*
X111998791Y-75578536D01*
X111844472Y-75540500D01*
X111844471Y-75540500D01*
X111685529Y-75540500D01*
X111685528Y-75540500D01*
X111531208Y-75578536D01*
X111390469Y-75652401D01*
X111271506Y-75757794D01*
X111271500Y-75757801D01*
X111181214Y-75888602D01*
X111124850Y-76037218D01*
X111105693Y-76194999D01*
X111105693Y-76195000D01*
X111124850Y-76352781D01*
X111144243Y-76403915D01*
X111162293Y-76451507D01*
X111167660Y-76521169D01*
X111134513Y-76582676D01*
X111073375Y-76616497D01*
X111003657Y-76611896D01*
X110988728Y-76605276D01*
X110986652Y-76604186D01*
X110977793Y-76599537D01*
X110977790Y-76599536D01*
X110977793Y-76599536D01*
X110823472Y-76561500D01*
X110823471Y-76561500D01*
X110664529Y-76561500D01*
X110664528Y-76561500D01*
X110510208Y-76599536D01*
X110369469Y-76673401D01*
X110250506Y-76778794D01*
X110250499Y-76778802D01*
X110247645Y-76782938D01*
X110193363Y-76826930D01*
X110145594Y-76836500D01*
X109952938Y-76836500D01*
X109885899Y-76816815D01*
X109840144Y-76764011D01*
X109835897Y-76753456D01*
X109834255Y-76748765D01*
X109826369Y-76726227D01*
X109779557Y-76662800D01*
X109745010Y-76615989D01*
X109670326Y-76560870D01*
X109634773Y-76534631D01*
X109634771Y-76534630D01*
X109505458Y-76489380D01*
X109505446Y-76489378D01*
X109474753Y-76486500D01*
X108965257Y-76486500D01*
X108949900Y-76487940D01*
X108934549Y-76489379D01*
X108934546Y-76489379D01*
X108934544Y-76489380D01*
X108805228Y-76534630D01*
X108694989Y-76615989D01*
X108613630Y-76726228D01*
X108568380Y-76855541D01*
X108568378Y-76855553D01*
X108565500Y-76886246D01*
X108565500Y-77545742D01*
X108565501Y-77545748D01*
X108568379Y-77576451D01*
X108568379Y-77576453D01*
X108568380Y-77576455D01*
X108610752Y-77697545D01*
X108614315Y-77767323D01*
X108579586Y-77827951D01*
X108517593Y-77860179D01*
X108493711Y-77862500D01*
X108296289Y-77862500D01*
X108229250Y-77842815D01*
X108183495Y-77790011D01*
X108173551Y-77720853D01*
X108179248Y-77697544D01*
X108179249Y-77697542D01*
X108221621Y-77576451D01*
X108224500Y-77545749D01*
X108224499Y-76886252D01*
X108221621Y-76855549D01*
X108176369Y-76726227D01*
X108130737Y-76664398D01*
X108095010Y-76615989D01*
X108020326Y-76560870D01*
X107984773Y-76534631D01*
X107984771Y-76534630D01*
X107855458Y-76489380D01*
X107855446Y-76489378D01*
X107824753Y-76486500D01*
X107315257Y-76486500D01*
X107299900Y-76487940D01*
X107284549Y-76489379D01*
X107284546Y-76489379D01*
X107284544Y-76489380D01*
X107155228Y-76534630D01*
X107044989Y-76615989D01*
X106963631Y-76726227D01*
X106954103Y-76753456D01*
X106913381Y-76810231D01*
X106848428Y-76835978D01*
X106837062Y-76836500D01*
X102530556Y-76836500D01*
X102463517Y-76816815D01*
X102442875Y-76800181D01*
X101870746Y-76228052D01*
X101870744Y-76228049D01*
X101793020Y-76150325D01*
X101793015Y-76150321D01*
X101706485Y-76100363D01*
X101706482Y-76100362D01*
X101686084Y-76094896D01*
X101609962Y-76074499D01*
X101510038Y-76074499D01*
X101502442Y-76074499D01*
X101502426Y-76074500D01*
X101225509Y-76074500D01*
X101158470Y-76054815D01*
X101112715Y-76002011D01*
X101102771Y-75932853D01*
X101129655Y-75871836D01*
X101202819Y-75782684D01*
X101211027Y-75772683D01*
X101275319Y-75652401D01*
X101308943Y-75589496D01*
X101308943Y-75589495D01*
X101308945Y-75589492D01*
X101369242Y-75390718D01*
X101389602Y-75184000D01*
X101369242Y-74977282D01*
X101315161Y-74799001D01*
X104002704Y-74799001D01*
X104002899Y-74801486D01*
X104048718Y-74959198D01*
X104132314Y-75100552D01*
X104132321Y-75100561D01*
X104248438Y-75216678D01*
X104248447Y-75216685D01*
X104389803Y-75300282D01*
X104389806Y-75300283D01*
X104547504Y-75346099D01*
X104547510Y-75346100D01*
X104584350Y-75348999D01*
X104584366Y-75349000D01*
X105225000Y-75349000D01*
X105725000Y-75349000D01*
X106365634Y-75349000D01*
X106365649Y-75348999D01*
X106402489Y-75346100D01*
X106402495Y-75346099D01*
X106560193Y-75300283D01*
X106560196Y-75300282D01*
X106701552Y-75216685D01*
X106701561Y-75216678D01*
X106817678Y-75100561D01*
X106817685Y-75100552D01*
X106901281Y-74959198D01*
X106947100Y-74801486D01*
X106947295Y-74799001D01*
X106947295Y-74799000D01*
X105725000Y-74799000D01*
X105725000Y-75349000D01*
X105225000Y-75349000D01*
X105225000Y-74799000D01*
X104002705Y-74799000D01*
X104002704Y-74799001D01*
X101315161Y-74799001D01*
X101308945Y-74778508D01*
X101308943Y-74778505D01*
X101308943Y-74778503D01*
X101211030Y-74595322D01*
X101211028Y-74595319D01*
X101211027Y-74595317D01*
X101186285Y-74565168D01*
X101129655Y-74496164D01*
X101102343Y-74431854D01*
X101114134Y-74362987D01*
X101161287Y-74311427D01*
X101225509Y-74293500D01*
X103943382Y-74293500D01*
X103962113Y-74299000D01*
X106972951Y-74299000D01*
X106975522Y-74297462D01*
X107006618Y-74293500D01*
X109071500Y-74293500D01*
X109138539Y-74313185D01*
X109184294Y-74365989D01*
X109195500Y-74417500D01*
X109195500Y-74730839D01*
X109210500Y-74825552D01*
X109218047Y-74840363D01*
X109268674Y-74939723D01*
X109268676Y-74939725D01*
X109268678Y-74939728D01*
X109359271Y-75030321D01*
X109359273Y-75030322D01*
X109359277Y-75030326D01*
X109473445Y-75088498D01*
X109473446Y-75088498D01*
X109473448Y-75088499D01*
X109473447Y-75088499D01*
X109568161Y-75103500D01*
X109568166Y-75103500D01*
X111281839Y-75103500D01*
X111376552Y-75088499D01*
X111376553Y-75088498D01*
X111376555Y-75088498D01*
X111490723Y-75030326D01*
X111521098Y-74999951D01*
X111556231Y-74964819D01*
X111617554Y-74931334D01*
X111643912Y-74928500D01*
X113187444Y-74928500D01*
X113254483Y-74948185D01*
X113275125Y-74964819D01*
X113371181Y-75060875D01*
X113404666Y-75122198D01*
X113407500Y-75148556D01*
X113407500Y-77168425D01*
X113407499Y-77168443D01*
X113407499Y-77275962D01*
X113418899Y-77318504D01*
X113418899Y-77318507D01*
X113418900Y-77318507D01*
X113418900Y-77318508D01*
X113432794Y-77370363D01*
X113433363Y-77372484D01*
X113483321Y-77459015D01*
X113483325Y-77459020D01*
X113561046Y-77536741D01*
X113561052Y-77536746D01*
X113976983Y-77952677D01*
X113976993Y-77952688D01*
X113981323Y-77957018D01*
X113981324Y-77957019D01*
X114051981Y-78027676D01*
X114138518Y-78077638D01*
X114235038Y-78103500D01*
X114334962Y-78103500D01*
X114502839Y-78103500D01*
X114569878Y-78123185D01*
X114612197Y-78169047D01*
X114688969Y-78312677D01*
X114688974Y-78312684D01*
X114820747Y-78473252D01*
X114894566Y-78533833D01*
X114981317Y-78605027D01*
X114981320Y-78605028D01*
X114981322Y-78605030D01*
X115164503Y-78702943D01*
X115164505Y-78702943D01*
X115164508Y-78702945D01*
X115363282Y-78763242D01*
X115570000Y-78783602D01*
X115776718Y-78763242D01*
X115975492Y-78702945D01*
X116158683Y-78605027D01*
X116319252Y-78473252D01*
X116451027Y-78312683D01*
X116510926Y-78200620D01*
X116548943Y-78129496D01*
X116548943Y-78129495D01*
X116548945Y-78129492D01*
X116609242Y-77930718D01*
X116629602Y-77724000D01*
X116609242Y-77517282D01*
X116548945Y-77318508D01*
X116548943Y-77318504D01*
X116548943Y-77318503D01*
X116451030Y-77135322D01*
X116451028Y-77135320D01*
X116451027Y-77135317D01*
X116387754Y-77058218D01*
X116319252Y-76974747D01*
X116158684Y-76842974D01*
X116158677Y-76842969D01*
X115975496Y-76745056D01*
X115776716Y-76684757D01*
X115570000Y-76664398D01*
X115363283Y-76684757D01*
X115164503Y-76745056D01*
X114981322Y-76842969D01*
X114981315Y-76842974D01*
X114820747Y-76974747D01*
X114688974Y-77135315D01*
X114688969Y-77135322D01*
X114612197Y-77278953D01*
X114563235Y-77328797D01*
X114502839Y-77344500D01*
X114493556Y-77344500D01*
X114426517Y-77324815D01*
X114405875Y-77308181D01*
X114202819Y-77105125D01*
X114169334Y-77043802D01*
X114166500Y-77017444D01*
X114166500Y-75184000D01*
X114510398Y-75184000D01*
X114530757Y-75390716D01*
X114591056Y-75589496D01*
X114688969Y-75772677D01*
X114688974Y-75772684D01*
X114820747Y-75933252D01*
X114894566Y-75993833D01*
X114981317Y-76065027D01*
X114981320Y-76065028D01*
X114981322Y-76065030D01*
X115164503Y-76162943D01*
X115164505Y-76162943D01*
X115164508Y-76162945D01*
X115363282Y-76223242D01*
X115570000Y-76243602D01*
X115776718Y-76223242D01*
X115975492Y-76162945D01*
X116158683Y-76065027D01*
X116319252Y-75933252D01*
X116451027Y-75772683D01*
X116515319Y-75652401D01*
X116548943Y-75589496D01*
X116548943Y-75589495D01*
X116548945Y-75589492D01*
X116609242Y-75390718D01*
X116629602Y-75184000D01*
X116609242Y-74977282D01*
X116548945Y-74778508D01*
X116548943Y-74778505D01*
X116548943Y-74778503D01*
X116451030Y-74595322D01*
X116451028Y-74595320D01*
X116451027Y-74595317D01*
X116410950Y-74546483D01*
X116319252Y-74434747D01*
X116158684Y-74302974D01*
X116158677Y-74302969D01*
X115975496Y-74205056D01*
X115776716Y-74144757D01*
X115570000Y-74124398D01*
X115363283Y-74144757D01*
X115164503Y-74205056D01*
X114981322Y-74302969D01*
X114981315Y-74302974D01*
X114820747Y-74434747D01*
X114688974Y-74595315D01*
X114688969Y-74595322D01*
X114591056Y-74778503D01*
X114530757Y-74977283D01*
X114510398Y-75184000D01*
X114166500Y-75184000D01*
X114166500Y-74999964D01*
X114166501Y-74999951D01*
X114166501Y-74890040D01*
X114166501Y-74890038D01*
X114140639Y-74793519D01*
X114104450Y-74730839D01*
X114104447Y-74730833D01*
X114104445Y-74730831D01*
X114090675Y-74706980D01*
X114090672Y-74706976D01*
X114015700Y-74632004D01*
X114015677Y-74631983D01*
X113706746Y-74323052D01*
X113706744Y-74323049D01*
X113629019Y-74245324D01*
X113629015Y-74245321D01*
X113542485Y-74195363D01*
X113534976Y-74192253D01*
X113535985Y-74189816D01*
X113487463Y-74160236D01*
X113456938Y-74097387D01*
X113465237Y-74028012D01*
X113491538Y-73989154D01*
X114417151Y-73063541D01*
X114478472Y-73030058D01*
X114548164Y-73035042D01*
X114604097Y-73076914D01*
X114614188Y-73092771D01*
X114688969Y-73232677D01*
X114688974Y-73232684D01*
X114820747Y-73393252D01*
X114894566Y-73453833D01*
X114981317Y-73525027D01*
X114981320Y-73525028D01*
X114981322Y-73525030D01*
X115164503Y-73622943D01*
X115164505Y-73622943D01*
X115164508Y-73622945D01*
X115363282Y-73683242D01*
X115570000Y-73703602D01*
X115776718Y-73683242D01*
X115975492Y-73622945D01*
X116158683Y-73525027D01*
X116319252Y-73393252D01*
X116451027Y-73232683D01*
X116509777Y-73122768D01*
X116548943Y-73049496D01*
X116548943Y-73049495D01*
X116548945Y-73049492D01*
X116609242Y-72850718D01*
X116629602Y-72644000D01*
X116609242Y-72437282D01*
X116548945Y-72238508D01*
X116548943Y-72238505D01*
X116548943Y-72238503D01*
X116451030Y-72055322D01*
X116451028Y-72055320D01*
X116451027Y-72055317D01*
X116397803Y-71990463D01*
X116319252Y-71894747D01*
X116158684Y-71762974D01*
X116158677Y-71762969D01*
X115975496Y-71665056D01*
X115776716Y-71604757D01*
X115570000Y-71584398D01*
X115363283Y-71604757D01*
X115164503Y-71665056D01*
X114981322Y-71762969D01*
X114981316Y-71762973D01*
X114882164Y-71844345D01*
X114817854Y-71871657D01*
X114748987Y-71859866D01*
X114697427Y-71812713D01*
X114679500Y-71748491D01*
X114679500Y-71582555D01*
X114699185Y-71515516D01*
X114715815Y-71494878D01*
X115083751Y-71126941D01*
X115145072Y-71093458D01*
X115207422Y-71095962D01*
X115363282Y-71143242D01*
X115570000Y-71163602D01*
X115776718Y-71143242D01*
X115975492Y-71082945D01*
X115999449Y-71070140D01*
X116120766Y-71005294D01*
X116158683Y-70985027D01*
X116319252Y-70853252D01*
X116451027Y-70692683D01*
X116510607Y-70581218D01*
X116548943Y-70509496D01*
X116548943Y-70509495D01*
X116548945Y-70509492D01*
X116609242Y-70310718D01*
X116629602Y-70104000D01*
X116609242Y-69897282D01*
X116548945Y-69698508D01*
X116548943Y-69698505D01*
X116548943Y-69698503D01*
X116451030Y-69515322D01*
X116451028Y-69515320D01*
X116451027Y-69515317D01*
X116387754Y-69438218D01*
X116319252Y-69354747D01*
X116168984Y-69231427D01*
X116158683Y-69222973D01*
X116158681Y-69222972D01*
X116158677Y-69222969D01*
X115975496Y-69125056D01*
X115776716Y-69064757D01*
X115570000Y-69044398D01*
X115363283Y-69064757D01*
X115164503Y-69125056D01*
X114981322Y-69222969D01*
X114981315Y-69222974D01*
X114820747Y-69354747D01*
X114688974Y-69515315D01*
X114688969Y-69515322D01*
X114591056Y-69698503D01*
X114530757Y-69897283D01*
X114510398Y-70104000D01*
X114530757Y-70310716D01*
X114538735Y-70337016D01*
X114578036Y-70466573D01*
X114578659Y-70536439D01*
X114547056Y-70590248D01*
X114066983Y-71070322D01*
X113996325Y-71140979D01*
X113996321Y-71140984D01*
X113946361Y-71227517D01*
X113946362Y-71227517D01*
X113946362Y-71227518D01*
X113946362Y-71227519D01*
X113922980Y-71314781D01*
X113920499Y-71324039D01*
X113920499Y-71433951D01*
X113920500Y-71433964D01*
X113920500Y-72435443D01*
X113900815Y-72502482D01*
X113884181Y-72523124D01*
X113477692Y-72929612D01*
X113416369Y-72963097D01*
X113346677Y-72958113D01*
X113290744Y-72916241D01*
X113274069Y-72885901D01*
X113273061Y-72883244D01*
X113258787Y-72845605D01*
X113168498Y-72714799D01*
X113168495Y-72714796D01*
X113168493Y-72714794D01*
X113049530Y-72609401D01*
X112908791Y-72535536D01*
X112754472Y-72497500D01*
X112754471Y-72497500D01*
X112595529Y-72497500D01*
X112595528Y-72497500D01*
X112441208Y-72535536D01*
X112300469Y-72609401D01*
X112181506Y-72714794D01*
X112181500Y-72714801D01*
X112124298Y-72797673D01*
X112091215Y-72845603D01*
X112090982Y-72845940D01*
X112036699Y-72889930D01*
X111988932Y-72899500D01*
X111643912Y-72899500D01*
X111576873Y-72879815D01*
X111556231Y-72863181D01*
X111490728Y-72797678D01*
X111490725Y-72797676D01*
X111490723Y-72797674D01*
X111405957Y-72754483D01*
X111355163Y-72706510D01*
X111338368Y-72638689D01*
X111360906Y-72572554D01*
X111405956Y-72533516D01*
X111490723Y-72490326D01*
X111581326Y-72399723D01*
X111639498Y-72285555D01*
X111639498Y-72285553D01*
X111639499Y-72285552D01*
X111654500Y-72190839D01*
X111654500Y-71827160D01*
X111639499Y-71732447D01*
X111622761Y-71699597D01*
X111581326Y-71618277D01*
X111581322Y-71618273D01*
X111581321Y-71618271D01*
X111490728Y-71527678D01*
X111490725Y-71527676D01*
X111490723Y-71527674D01*
X111405957Y-71484483D01*
X111355163Y-71436510D01*
X111338368Y-71368689D01*
X111360906Y-71302554D01*
X111405956Y-71263516D01*
X111490723Y-71220326D01*
X111545986Y-71165062D01*
X111607307Y-71131579D01*
X111676999Y-71136563D01*
X111724661Y-71172241D01*
X111726529Y-71170587D01*
X111731506Y-71176205D01*
X111850469Y-71281598D01*
X111850471Y-71281599D01*
X111991207Y-71355463D01*
X112068368Y-71374481D01*
X112145528Y-71393500D01*
X112145529Y-71393500D01*
X112304472Y-71393500D01*
X112365332Y-71378499D01*
X112458793Y-71355463D01*
X112599529Y-71281599D01*
X112718498Y-71176201D01*
X112808787Y-71045395D01*
X112865149Y-70896782D01*
X112884307Y-70739000D01*
X112882022Y-70720185D01*
X112865149Y-70581218D01*
X112858682Y-70564167D01*
X112808787Y-70432605D01*
X112718498Y-70301799D01*
X112718495Y-70301796D01*
X112718493Y-70301794D01*
X112599530Y-70196401D01*
X112458791Y-70122536D01*
X112304472Y-70084500D01*
X112304471Y-70084500D01*
X112145529Y-70084500D01*
X112145528Y-70084500D01*
X111991208Y-70122536D01*
X111850469Y-70196401D01*
X111731506Y-70301794D01*
X111726529Y-70307413D01*
X111724018Y-70305189D01*
X111681361Y-70339714D01*
X111611908Y-70347330D01*
X111549363Y-70316188D01*
X111545985Y-70312935D01*
X111490728Y-70257678D01*
X111490725Y-70257676D01*
X111490723Y-70257674D01*
X111405957Y-70214483D01*
X111355163Y-70166510D01*
X111338368Y-70098689D01*
X111360906Y-70032554D01*
X111405956Y-69993516D01*
X111490723Y-69950326D01*
X111581326Y-69859723D01*
X111639498Y-69745555D01*
X111639498Y-69745553D01*
X111639499Y-69745552D01*
X111654500Y-69650839D01*
X111654500Y-69337500D01*
X111674185Y-69270461D01*
X111726989Y-69224706D01*
X111778500Y-69213500D01*
X112718426Y-69213500D01*
X112718442Y-69213501D01*
X112726038Y-69213501D01*
X112825960Y-69213501D01*
X112825962Y-69213501D01*
X112904542Y-69192445D01*
X112922482Y-69187638D01*
X113009019Y-69137676D01*
X113079676Y-69067019D01*
X113079676Y-69067017D01*
X113089880Y-69056814D01*
X113089883Y-69056809D01*
X114095676Y-68051019D01*
X114124439Y-68001200D01*
X114145638Y-67964482D01*
X114164169Y-67895324D01*
X114171501Y-67867962D01*
X114171501Y-67768038D01*
X114171501Y-67760443D01*
X114171500Y-67760425D01*
X114171500Y-67564000D01*
X114510398Y-67564000D01*
X114530757Y-67770716D01*
X114591056Y-67969496D01*
X114688969Y-68152677D01*
X114688974Y-68152684D01*
X114820747Y-68313252D01*
X114903097Y-68380834D01*
X114981317Y-68445027D01*
X114981320Y-68445028D01*
X114981322Y-68445030D01*
X115164503Y-68542943D01*
X115164505Y-68542943D01*
X115164508Y-68542945D01*
X115363282Y-68603242D01*
X115570000Y-68623602D01*
X115776718Y-68603242D01*
X115975492Y-68542945D01*
X116158683Y-68445027D01*
X116319252Y-68313252D01*
X116451027Y-68152683D01*
X116509777Y-68042768D01*
X116548943Y-67969496D01*
X116548944Y-67969494D01*
X116548945Y-67969492D01*
X116609242Y-67770718D01*
X116629602Y-67564000D01*
X116609242Y-67357282D01*
X116548945Y-67158508D01*
X116548943Y-67158505D01*
X116548943Y-67158503D01*
X116451030Y-66975322D01*
X116451028Y-66975320D01*
X116451027Y-66975317D01*
X116377055Y-66885181D01*
X116319252Y-66814747D01*
X116158684Y-66682974D01*
X116158677Y-66682969D01*
X115975496Y-66585056D01*
X115776716Y-66524757D01*
X115570000Y-66504398D01*
X115363283Y-66524757D01*
X115164503Y-66585056D01*
X114981322Y-66682969D01*
X114981315Y-66682974D01*
X114820747Y-66814747D01*
X114688974Y-66975315D01*
X114688969Y-66975322D01*
X114591056Y-67158503D01*
X114530757Y-67357283D01*
X114510398Y-67564000D01*
X114171500Y-67564000D01*
X114171500Y-67010555D01*
X114191185Y-66943516D01*
X114207815Y-66922878D01*
X115083751Y-66046941D01*
X115145072Y-66013458D01*
X115207422Y-66015962D01*
X115363282Y-66063242D01*
X115570000Y-66083602D01*
X115776718Y-66063242D01*
X115975492Y-66002945D01*
X115999449Y-65990140D01*
X116139370Y-65915350D01*
X116158683Y-65905027D01*
X116319252Y-65773252D01*
X116451027Y-65612683D01*
X116527802Y-65469047D01*
X116548943Y-65429496D01*
X116548943Y-65429495D01*
X116548945Y-65429492D01*
X116609242Y-65230718D01*
X116629602Y-65024000D01*
X116609242Y-64817282D01*
X116548945Y-64618508D01*
X116548943Y-64618505D01*
X116548943Y-64618503D01*
X116451030Y-64435322D01*
X116451028Y-64435320D01*
X116451027Y-64435317D01*
X116377055Y-64345181D01*
X116319252Y-64274747D01*
X116158684Y-64142974D01*
X116158677Y-64142969D01*
X115975496Y-64045056D01*
X115776716Y-63984757D01*
X115570000Y-63964398D01*
X115363283Y-63984757D01*
X115164503Y-64045056D01*
X114981322Y-64142969D01*
X114981315Y-64142974D01*
X114820747Y-64274747D01*
X114688974Y-64435315D01*
X114688969Y-64435322D01*
X114591056Y-64618503D01*
X114530757Y-64817283D01*
X114510398Y-65024000D01*
X114530757Y-65230716D01*
X114538215Y-65255300D01*
X114578036Y-65386573D01*
X114578659Y-65456439D01*
X114547056Y-65510248D01*
X113558983Y-66498322D01*
X113488325Y-66568979D01*
X113488321Y-66568984D01*
X113438361Y-66655517D01*
X113438362Y-66655517D01*
X113438362Y-66655518D01*
X113431005Y-66682973D01*
X113413805Y-66747166D01*
X113412499Y-66752039D01*
X113412499Y-66861951D01*
X113412500Y-66861964D01*
X113412500Y-67609443D01*
X113392815Y-67676482D01*
X113376181Y-67697124D01*
X112655125Y-68418181D01*
X112593802Y-68451666D01*
X112567444Y-68454500D01*
X111778500Y-68454500D01*
X111711461Y-68434815D01*
X111665706Y-68382011D01*
X111654500Y-68330500D01*
X111654500Y-68017160D01*
X111639499Y-67922447D01*
X111637049Y-67917638D01*
X111581326Y-67808277D01*
X111581322Y-67808273D01*
X111581321Y-67808271D01*
X111490728Y-67717678D01*
X111490725Y-67717676D01*
X111490723Y-67717674D01*
X111405957Y-67674483D01*
X111355163Y-67626510D01*
X111338368Y-67558689D01*
X111360906Y-67492554D01*
X111405956Y-67453516D01*
X111490723Y-67410326D01*
X111545986Y-67355062D01*
X111607307Y-67321579D01*
X111676999Y-67326563D01*
X111724661Y-67362241D01*
X111726529Y-67360587D01*
X111731506Y-67366205D01*
X111850469Y-67471598D01*
X111850471Y-67471599D01*
X111991207Y-67545463D01*
X112068368Y-67564481D01*
X112145528Y-67583500D01*
X112145529Y-67583500D01*
X112304472Y-67583500D01*
X112355911Y-67570821D01*
X112458793Y-67545463D01*
X112599529Y-67471599D01*
X112718498Y-67366201D01*
X112808787Y-67235395D01*
X112865149Y-67086782D01*
X112884307Y-66929000D01*
X112878986Y-66885181D01*
X112865149Y-66771218D01*
X112854442Y-66742987D01*
X112808787Y-66622605D01*
X112718498Y-66491799D01*
X112718495Y-66491796D01*
X112718493Y-66491794D01*
X112599530Y-66386401D01*
X112458791Y-66312536D01*
X112304472Y-66274500D01*
X112304471Y-66274500D01*
X112145529Y-66274500D01*
X112145528Y-66274500D01*
X111991208Y-66312536D01*
X111850469Y-66386401D01*
X111731506Y-66491794D01*
X111726529Y-66497413D01*
X111724018Y-66495189D01*
X111681361Y-66529714D01*
X111611908Y-66537330D01*
X111549363Y-66506188D01*
X111545985Y-66502935D01*
X111490728Y-66447678D01*
X111490725Y-66447676D01*
X111490723Y-66447674D01*
X111405957Y-66404483D01*
X111355163Y-66356510D01*
X111338368Y-66288689D01*
X111360906Y-66222554D01*
X111405956Y-66183516D01*
X111490723Y-66140326D01*
X111581326Y-66049723D01*
X111639498Y-65935555D01*
X111639498Y-65935553D01*
X111639499Y-65935552D01*
X111654500Y-65840839D01*
X111654500Y-65477160D01*
X111639499Y-65382447D01*
X111635687Y-65374966D01*
X111581326Y-65268277D01*
X111581322Y-65268273D01*
X111581321Y-65268271D01*
X111490728Y-65177678D01*
X111490725Y-65177676D01*
X111490723Y-65177674D01*
X111376555Y-65119502D01*
X111376553Y-65119501D01*
X111376552Y-65119501D01*
X111366098Y-65117845D01*
X111302964Y-65087913D01*
X111266035Y-65028600D01*
X111261500Y-64995372D01*
X111261500Y-63915808D01*
X111281185Y-63848769D01*
X111311192Y-63816539D01*
X111324544Y-63806544D01*
X111407175Y-63696163D01*
X111455360Y-63566973D01*
X111461500Y-63509864D01*
X111461500Y-62918136D01*
X111455360Y-62861027D01*
X111407175Y-62731837D01*
X111324544Y-62621456D01*
X111214163Y-62538825D01*
X111214162Y-62538824D01*
X111214160Y-62538823D01*
X111084977Y-62490641D01*
X111084978Y-62490641D01*
X111084974Y-62490640D01*
X111084973Y-62490640D01*
X111027864Y-62484500D01*
X110486136Y-62484500D01*
X110429027Y-62490640D01*
X110429025Y-62490640D01*
X110429021Y-62490641D01*
X110299839Y-62538823D01*
X110299837Y-62538824D01*
X110218090Y-62600021D01*
X110152626Y-62624438D01*
X110084353Y-62609587D01*
X110038241Y-62565851D01*
X110004575Y-62511271D01*
X110004572Y-62511267D01*
X109977305Y-62484000D01*
X114510398Y-62484000D01*
X114530757Y-62690716D01*
X114591056Y-62889496D01*
X114688969Y-63072677D01*
X114688974Y-63072684D01*
X114820747Y-63233252D01*
X114908189Y-63305013D01*
X114981317Y-63365027D01*
X114981320Y-63365028D01*
X114981322Y-63365030D01*
X115164503Y-63462943D01*
X115164505Y-63462943D01*
X115164508Y-63462945D01*
X115363282Y-63523242D01*
X115570000Y-63543602D01*
X115776718Y-63523242D01*
X115975492Y-63462945D01*
X116158683Y-63365027D01*
X116319252Y-63233252D01*
X116451027Y-63072683D01*
X116548945Y-62889492D01*
X116609242Y-62690718D01*
X116629602Y-62484000D01*
X116609242Y-62277282D01*
X116548945Y-62078508D01*
X116548943Y-62078505D01*
X116548943Y-62078503D01*
X116451030Y-61895322D01*
X116451028Y-61895320D01*
X116451027Y-61895317D01*
X116377055Y-61805181D01*
X116319252Y-61734747D01*
X116158684Y-61602974D01*
X116158677Y-61602969D01*
X115975496Y-61505056D01*
X115776716Y-61444757D01*
X115570000Y-61424398D01*
X115363283Y-61444757D01*
X115164503Y-61505056D01*
X114981322Y-61602969D01*
X114981315Y-61602974D01*
X114820747Y-61734747D01*
X114688974Y-61895315D01*
X114688969Y-61895322D01*
X114591056Y-62078503D01*
X114530757Y-62277283D01*
X114510398Y-62484000D01*
X109977305Y-62484000D01*
X109884732Y-62391427D01*
X109884728Y-62391424D01*
X109740492Y-62302457D01*
X109740481Y-62302452D01*
X109579606Y-62249144D01*
X109480322Y-62239000D01*
X109457000Y-62239000D01*
X109457000Y-64188999D01*
X109480308Y-64188999D01*
X109480322Y-64188998D01*
X109579607Y-64178855D01*
X109740481Y-64125547D01*
X109740492Y-64125542D01*
X109884728Y-64036575D01*
X109884732Y-64036572D01*
X110004573Y-63916731D01*
X110022961Y-63886920D01*
X110074909Y-63840195D01*
X110143871Y-63828972D01*
X110207953Y-63856815D01*
X110246810Y-63914884D01*
X110252500Y-63952016D01*
X110252500Y-64980500D01*
X110232815Y-65047539D01*
X110180011Y-65093294D01*
X110128500Y-65104500D01*
X109568161Y-65104500D01*
X109473447Y-65119500D01*
X109431283Y-65140985D01*
X109374988Y-65154500D01*
X109280581Y-65154500D01*
X109203594Y-65175128D01*
X109152268Y-65188881D01*
X109152267Y-65188882D01*
X109037233Y-65255296D01*
X109037228Y-65255300D01*
X108688831Y-65603697D01*
X108630826Y-65636413D01*
X108482861Y-65672883D01*
X108342122Y-65746748D01*
X108223159Y-65852141D01*
X108223156Y-65852144D01*
X108131131Y-65985465D01*
X108076847Y-66029455D01*
X108007399Y-66037114D01*
X107944834Y-66006010D01*
X107941400Y-66002705D01*
X107929020Y-65990325D01*
X107929015Y-65990321D01*
X107842485Y-65940363D01*
X107842482Y-65940362D01*
X107822084Y-65934896D01*
X107745962Y-65914499D01*
X107646038Y-65914499D01*
X107638442Y-65914499D01*
X107638426Y-65914500D01*
X107006618Y-65914500D01*
X106987887Y-65909000D01*
X105699378Y-65909000D01*
X105694496Y-65911666D01*
X105668138Y-65914500D01*
X105281862Y-65914500D01*
X105263131Y-65909000D01*
X103977049Y-65909000D01*
X103974478Y-65910538D01*
X103943382Y-65914500D01*
X101904952Y-65914500D01*
X101837913Y-65894815D01*
X101817271Y-65878181D01*
X101375379Y-65436289D01*
X101360477Y-65408998D01*
X104002704Y-65408998D01*
X104002705Y-65409000D01*
X105225000Y-65409000D01*
X105725000Y-65409000D01*
X106947295Y-65409000D01*
X106947295Y-65408998D01*
X106947100Y-65406513D01*
X106901281Y-65248801D01*
X106817685Y-65107447D01*
X106817678Y-65107438D01*
X106701561Y-64991321D01*
X106701552Y-64991314D01*
X106560196Y-64907717D01*
X106560193Y-64907716D01*
X106402495Y-64861900D01*
X106402489Y-64861899D01*
X106365649Y-64859000D01*
X105725000Y-64859000D01*
X105725000Y-65409000D01*
X105225000Y-65409000D01*
X105225000Y-64859000D01*
X104584350Y-64859000D01*
X104547510Y-64861899D01*
X104547504Y-64861900D01*
X104389806Y-64907716D01*
X104389803Y-64907717D01*
X104248447Y-64991314D01*
X104248438Y-64991321D01*
X104132321Y-65107438D01*
X104132314Y-65107447D01*
X104048718Y-65248801D01*
X104002899Y-65406513D01*
X104002704Y-65408998D01*
X101360477Y-65408998D01*
X101341894Y-65374966D01*
X101344398Y-65312615D01*
X101369242Y-65230718D01*
X101389602Y-65024000D01*
X101369242Y-64817282D01*
X101308945Y-64618508D01*
X101308943Y-64618505D01*
X101308943Y-64618503D01*
X101211030Y-64435322D01*
X101211028Y-64435319D01*
X101211027Y-64435317D01*
X101137055Y-64345181D01*
X101089726Y-64287510D01*
X101062414Y-64223200D01*
X101074205Y-64154333D01*
X101121358Y-64102773D01*
X101123535Y-64101484D01*
X101199415Y-64057676D01*
X101270072Y-63987019D01*
X101270072Y-63987017D01*
X101280276Y-63976814D01*
X101280279Y-63976809D01*
X101744766Y-63512322D01*
X108257001Y-63512322D01*
X108267144Y-63611607D01*
X108320452Y-63772481D01*
X108320457Y-63772492D01*
X108409424Y-63916728D01*
X108409427Y-63916732D01*
X108529267Y-64036572D01*
X108529271Y-64036575D01*
X108673507Y-64125542D01*
X108673518Y-64125547D01*
X108834393Y-64178855D01*
X108933683Y-64188999D01*
X108957000Y-64188998D01*
X108957000Y-63464000D01*
X108257001Y-63464000D01*
X108257001Y-63512322D01*
X101744766Y-63512322D01*
X102341412Y-62915677D01*
X108257000Y-62915677D01*
X108257000Y-62964000D01*
X108957000Y-62964000D01*
X108957000Y-62238999D01*
X108933693Y-62239000D01*
X108933674Y-62239001D01*
X108834392Y-62249144D01*
X108673518Y-62302452D01*
X108673507Y-62302457D01*
X108529271Y-62391424D01*
X108529267Y-62391427D01*
X108409427Y-62511267D01*
X108409424Y-62511271D01*
X108320457Y-62655507D01*
X108320452Y-62655518D01*
X108267144Y-62816393D01*
X108257000Y-62915677D01*
X102341412Y-62915677D01*
X104897271Y-60359819D01*
X104958594Y-60326334D01*
X104984952Y-60323500D01*
X114502839Y-60323500D01*
X114569878Y-60343185D01*
X114612197Y-60389047D01*
X114688969Y-60532677D01*
X114688974Y-60532684D01*
X114820747Y-60693252D01*
X114904531Y-60762011D01*
X114981317Y-60825027D01*
X114981320Y-60825028D01*
X114981322Y-60825030D01*
X115164503Y-60922943D01*
X115164505Y-60922943D01*
X115164508Y-60922945D01*
X115363282Y-60983242D01*
X115570000Y-61003602D01*
X115776718Y-60983242D01*
X115975492Y-60922945D01*
X116158683Y-60825027D01*
X116319252Y-60693252D01*
X116451027Y-60532683D01*
X116509777Y-60422768D01*
X116548943Y-60349496D01*
X116548943Y-60349495D01*
X116548945Y-60349492D01*
X116609242Y-60150718D01*
X116629602Y-59944000D01*
X116609242Y-59737282D01*
X116548945Y-59538508D01*
X116548943Y-59538505D01*
X116548943Y-59538503D01*
X116451030Y-59355322D01*
X116451028Y-59355320D01*
X116451027Y-59355317D01*
X116319252Y-59194748D01*
X116198548Y-59095689D01*
X116159213Y-59037943D01*
X116157342Y-58968098D01*
X116189532Y-58912153D01*
X116194667Y-58907019D01*
X116194667Y-58907017D01*
X116204871Y-58896814D01*
X116204875Y-58896809D01*
X117047819Y-58053865D01*
X117109142Y-58020380D01*
X117178834Y-58025364D01*
G37*
%TD.AperFunction*%
%TA.AperFunction,Conductor*%
G36*
X90038483Y-80673185D02*
G01*
X90059125Y-80689819D01*
X93671983Y-84302677D01*
X93671993Y-84302688D01*
X93676323Y-84307018D01*
X93676324Y-84307019D01*
X93746981Y-84377676D01*
X93796944Y-84406522D01*
X93833519Y-84427639D01*
X93930038Y-84453501D01*
X93930040Y-84453501D01*
X94037558Y-84453501D01*
X94037574Y-84453500D01*
X99128326Y-84453500D01*
X99195365Y-84473185D01*
X99241120Y-84525989D01*
X99251064Y-84595147D01*
X99229900Y-84648624D01*
X99199869Y-84691510D01*
X99199866Y-84691516D01*
X99103734Y-84897673D01*
X99103730Y-84897682D01*
X99051127Y-85093999D01*
X99051128Y-85094000D01*
X100014314Y-85094000D01*
X100009920Y-85098394D01*
X99957259Y-85189606D01*
X99930000Y-85291339D01*
X99930000Y-85396661D01*
X99957259Y-85498394D01*
X100009920Y-85589606D01*
X100014314Y-85594000D01*
X99051128Y-85594000D01*
X99103730Y-85790317D01*
X99103734Y-85790326D01*
X99160982Y-85913095D01*
X99171474Y-85982173D01*
X99142954Y-86045957D01*
X99084478Y-86084196D01*
X99048600Y-86089500D01*
X93449369Y-86089500D01*
X93382330Y-86069815D01*
X93336575Y-86017011D01*
X93326631Y-85947853D01*
X93340527Y-85909514D01*
X93339493Y-85909032D01*
X93342547Y-85902481D01*
X93395855Y-85741606D01*
X93405999Y-85642322D01*
X93406000Y-85642309D01*
X93406000Y-85594000D01*
X92580000Y-85594000D01*
X92512961Y-85574315D01*
X92467206Y-85521511D01*
X92456000Y-85470000D01*
X92456000Y-85344000D01*
X92330000Y-85344000D01*
X92262961Y-85324315D01*
X92217206Y-85271511D01*
X92206000Y-85220000D01*
X92206000Y-85094000D01*
X92706000Y-85094000D01*
X93405999Y-85094000D01*
X93405999Y-85045692D01*
X93405998Y-85045677D01*
X93395855Y-84946392D01*
X93342547Y-84785518D01*
X93342542Y-84785507D01*
X93253575Y-84641271D01*
X93253572Y-84641267D01*
X93133732Y-84521427D01*
X93133728Y-84521424D01*
X92989492Y-84432457D01*
X92989481Y-84432452D01*
X92828606Y-84379144D01*
X92729322Y-84369000D01*
X92706000Y-84369000D01*
X92706000Y-85094000D01*
X92206000Y-85094000D01*
X92206000Y-84368999D01*
X92182693Y-84369000D01*
X92182674Y-84369001D01*
X92083392Y-84379144D01*
X91922518Y-84432452D01*
X91922507Y-84432457D01*
X91778271Y-84521424D01*
X91778267Y-84521427D01*
X91658427Y-84641267D01*
X91658424Y-84641271D01*
X91624757Y-84695852D01*
X91572808Y-84742576D01*
X91503845Y-84753796D01*
X91444909Y-84730020D01*
X91393466Y-84691510D01*
X91363163Y-84668825D01*
X91363161Y-84668824D01*
X91363160Y-84668823D01*
X91233977Y-84620641D01*
X91233978Y-84620641D01*
X91233974Y-84620640D01*
X91233973Y-84620640D01*
X91176864Y-84614500D01*
X90635136Y-84614500D01*
X90578027Y-84620640D01*
X90578025Y-84620640D01*
X90578021Y-84620641D01*
X90448839Y-84668823D01*
X90448837Y-84668824D01*
X90338455Y-84751457D01*
X90338453Y-84751459D01*
X90309742Y-84789812D01*
X90253808Y-84831682D01*
X90210476Y-84839500D01*
X90126561Y-84839500D01*
X90059522Y-84819815D01*
X90044335Y-84808316D01*
X90036530Y-84801401D01*
X89895791Y-84727536D01*
X89741472Y-84689500D01*
X89741471Y-84689500D01*
X89582529Y-84689500D01*
X89582528Y-84689500D01*
X89428208Y-84727536D01*
X89287469Y-84801401D01*
X89168506Y-84906794D01*
X89168500Y-84906801D01*
X89078214Y-85037602D01*
X89021850Y-85186218D01*
X89002693Y-85343999D01*
X89002693Y-85344000D01*
X89021850Y-85501781D01*
X89056825Y-85594000D01*
X89075146Y-85642309D01*
X89078214Y-85650397D01*
X89142261Y-85743185D01*
X89168502Y-85781201D01*
X89168504Y-85781203D01*
X89168506Y-85781205D01*
X89271765Y-85872685D01*
X89308892Y-85931874D01*
X89308124Y-86001740D01*
X89269706Y-86060099D01*
X89205835Y-86088424D01*
X89189538Y-86089500D01*
X81343556Y-86089500D01*
X81276517Y-86069815D01*
X81255875Y-86053181D01*
X80565819Y-85363125D01*
X80532334Y-85301802D01*
X80529500Y-85275444D01*
X80529500Y-84095400D01*
X80549185Y-84028361D01*
X80601989Y-83982606D01*
X80671147Y-83972662D01*
X80705905Y-83983018D01*
X80828673Y-84040265D01*
X80828682Y-84040269D01*
X81024999Y-84092872D01*
X81025000Y-84092871D01*
X81025000Y-83129686D01*
X81029394Y-83134080D01*
X81120606Y-83186741D01*
X81222339Y-83214000D01*
X81327661Y-83214000D01*
X81429394Y-83186741D01*
X81520606Y-83134080D01*
X81525000Y-83129686D01*
X81525000Y-84092872D01*
X81721317Y-84040269D01*
X81721326Y-84040265D01*
X81927482Y-83944134D01*
X82113820Y-83813657D01*
X82274657Y-83652820D01*
X82405134Y-83466482D01*
X82501265Y-83260326D01*
X82501269Y-83260317D01*
X82553872Y-83064000D01*
X81590686Y-83064000D01*
X81595080Y-83059606D01*
X81647741Y-82968394D01*
X81675000Y-82866661D01*
X81675000Y-82761339D01*
X81647741Y-82659606D01*
X81595080Y-82568394D01*
X81590686Y-82564000D01*
X82553872Y-82564000D01*
X82553872Y-82563999D01*
X82501269Y-82367682D01*
X82501265Y-82367673D01*
X82405134Y-82161517D01*
X82274657Y-81975179D01*
X82113820Y-81814342D01*
X81927482Y-81683865D01*
X81721326Y-81587734D01*
X81721320Y-81587731D01*
X81533058Y-81537287D01*
X81473398Y-81500922D01*
X81442869Y-81438075D01*
X81451164Y-81368699D01*
X81495649Y-81314822D01*
X81529153Y-81298852D01*
X81680492Y-81252945D01*
X81699205Y-81242943D01*
X81826511Y-81174896D01*
X81863683Y-81155027D01*
X82024252Y-81023252D01*
X82156027Y-80862683D01*
X82174197Y-80828687D01*
X82232803Y-80719047D01*
X82281765Y-80669203D01*
X82342161Y-80653500D01*
X89971444Y-80653500D01*
X90038483Y-80673185D01*
G37*
%TD.AperFunction*%
%TA.AperFunction,Conductor*%
G36*
X90038483Y-78133185D02*
G01*
X90059125Y-78149819D01*
X93671983Y-81762677D01*
X93671993Y-81762688D01*
X93676323Y-81767018D01*
X93676324Y-81767019D01*
X93746981Y-81837676D01*
X93796944Y-81866522D01*
X93833519Y-81887639D01*
X93930038Y-81913501D01*
X93930040Y-81913501D01*
X94037558Y-81913501D01*
X94037574Y-81913500D01*
X95627698Y-81913500D01*
X95694737Y-81933185D01*
X95740492Y-81985989D01*
X95750436Y-82055147D01*
X95723551Y-82116165D01*
X95633974Y-82225315D01*
X95633969Y-82225322D01*
X95536056Y-82408503D01*
X95475757Y-82607283D01*
X95455398Y-82814000D01*
X95475757Y-83020716D01*
X95536056Y-83219496D01*
X95633969Y-83402677D01*
X95633973Y-83402683D01*
X95707138Y-83491836D01*
X95734450Y-83556146D01*
X95722659Y-83625013D01*
X95675506Y-83676573D01*
X95611284Y-83694500D01*
X94188556Y-83694500D01*
X94121517Y-83674815D01*
X94100875Y-83658181D01*
X90490746Y-80048052D01*
X90490744Y-80048049D01*
X90413020Y-79970325D01*
X90413015Y-79970321D01*
X90326485Y-79920363D01*
X90326482Y-79920362D01*
X90306084Y-79914896D01*
X90229962Y-79894499D01*
X90130038Y-79894499D01*
X90122442Y-79894499D01*
X90122426Y-79894500D01*
X82342161Y-79894500D01*
X82275122Y-79874815D01*
X82232803Y-79828953D01*
X82156030Y-79685322D01*
X82156028Y-79685320D01*
X82156027Y-79685317D01*
X82066448Y-79576164D01*
X82024252Y-79524747D01*
X81884210Y-79409819D01*
X81863683Y-79392973D01*
X81863681Y-79392972D01*
X81863677Y-79392969D01*
X81680496Y-79295056D01*
X81481716Y-79234757D01*
X81275000Y-79214398D01*
X81068283Y-79234757D01*
X80869503Y-79295056D01*
X80711953Y-79379269D01*
X80643550Y-79393511D01*
X80578306Y-79368511D01*
X80536936Y-79312206D01*
X80529500Y-79269911D01*
X80529500Y-78738088D01*
X80549185Y-78671049D01*
X80601989Y-78625294D01*
X80671147Y-78615350D01*
X80711952Y-78628729D01*
X80869508Y-78712945D01*
X81068282Y-78773242D01*
X81275000Y-78793602D01*
X81481718Y-78773242D01*
X81680492Y-78712945D01*
X81699205Y-78702943D01*
X81826511Y-78634896D01*
X81863683Y-78615027D01*
X82024252Y-78483252D01*
X82156027Y-78322683D01*
X82180618Y-78276676D01*
X82232803Y-78179047D01*
X82281765Y-78129203D01*
X82342161Y-78113500D01*
X89971444Y-78113500D01*
X90038483Y-78133185D01*
G37*
%TD.AperFunction*%
%TA.AperFunction,Conductor*%
G36*
X90038483Y-75593185D02*
G01*
X90059125Y-75609819D01*
X93671983Y-79222677D01*
X93671993Y-79222688D01*
X93676323Y-79227018D01*
X93676324Y-79227019D01*
X93746981Y-79297676D01*
X93796944Y-79326522D01*
X93833519Y-79347639D01*
X93930038Y-79373501D01*
X93930040Y-79373501D01*
X94037558Y-79373501D01*
X94037574Y-79373500D01*
X95627698Y-79373500D01*
X95694737Y-79393185D01*
X95740492Y-79445989D01*
X95750436Y-79515147D01*
X95723551Y-79576165D01*
X95633974Y-79685315D01*
X95633969Y-79685322D01*
X95536056Y-79868503D01*
X95475757Y-80067283D01*
X95455398Y-80274000D01*
X95475757Y-80480716D01*
X95536056Y-80679496D01*
X95633969Y-80862677D01*
X95633973Y-80862683D01*
X95707138Y-80951836D01*
X95734450Y-81016146D01*
X95722659Y-81085013D01*
X95675506Y-81136573D01*
X95611284Y-81154500D01*
X94188556Y-81154500D01*
X94121517Y-81134815D01*
X94100875Y-81118181D01*
X90490746Y-77508052D01*
X90490744Y-77508049D01*
X90413020Y-77430325D01*
X90413015Y-77430321D01*
X90326484Y-77380363D01*
X90326477Y-77380360D01*
X90297074Y-77372481D01*
X90297074Y-77372482D01*
X90259750Y-77362481D01*
X90229962Y-77354499D01*
X90130038Y-77354499D01*
X90122442Y-77354499D01*
X90122426Y-77354500D01*
X82342161Y-77354500D01*
X82275122Y-77334815D01*
X82232803Y-77288953D01*
X82156030Y-77145322D01*
X82156028Y-77145320D01*
X82156027Y-77145317D01*
X82093678Y-77069344D01*
X82024252Y-76984747D01*
X81884210Y-76869819D01*
X81863683Y-76852973D01*
X81863681Y-76852972D01*
X81863677Y-76852969D01*
X81680496Y-76755056D01*
X81481716Y-76694757D01*
X81275000Y-76674398D01*
X81068283Y-76694757D01*
X80869503Y-76755056D01*
X80711953Y-76839269D01*
X80643550Y-76853511D01*
X80578306Y-76828511D01*
X80536936Y-76772206D01*
X80529500Y-76729911D01*
X80529500Y-76198088D01*
X80549185Y-76131049D01*
X80601989Y-76085294D01*
X80671147Y-76075350D01*
X80711952Y-76088729D01*
X80869508Y-76172945D01*
X81068282Y-76233242D01*
X81275000Y-76253602D01*
X81481718Y-76233242D01*
X81680492Y-76172945D01*
X81699205Y-76162943D01*
X81826511Y-76094896D01*
X81863683Y-76075027D01*
X82024252Y-75943252D01*
X82156027Y-75782683D01*
X82174197Y-75748687D01*
X82232803Y-75639047D01*
X82281765Y-75589203D01*
X82342161Y-75573500D01*
X89971444Y-75573500D01*
X90038483Y-75593185D01*
G37*
%TD.AperFunction*%
%TA.AperFunction,Conductor*%
G36*
X90038483Y-73053185D02*
G01*
X90059125Y-73069819D01*
X93671983Y-76682677D01*
X93671993Y-76682688D01*
X93676323Y-76687018D01*
X93676324Y-76687019D01*
X93746981Y-76757676D01*
X93757954Y-76764011D01*
X93783567Y-76778799D01*
X93783568Y-76778800D01*
X93833513Y-76807636D01*
X93833514Y-76807636D01*
X93833519Y-76807639D01*
X93930038Y-76833501D01*
X93930040Y-76833501D01*
X94037558Y-76833501D01*
X94037574Y-76833500D01*
X95627698Y-76833500D01*
X95694737Y-76853185D01*
X95740492Y-76905989D01*
X95750436Y-76975147D01*
X95723551Y-77036165D01*
X95633974Y-77145315D01*
X95633969Y-77145322D01*
X95536056Y-77328503D01*
X95475757Y-77527283D01*
X95455398Y-77734000D01*
X95475757Y-77940716D01*
X95536056Y-78139496D01*
X95633969Y-78322677D01*
X95633973Y-78322683D01*
X95707138Y-78411836D01*
X95734450Y-78476146D01*
X95722659Y-78545013D01*
X95675506Y-78596573D01*
X95611284Y-78614500D01*
X94188556Y-78614500D01*
X94121517Y-78594815D01*
X94100875Y-78578181D01*
X90490746Y-74968052D01*
X90490744Y-74968049D01*
X90413020Y-74890325D01*
X90413015Y-74890321D01*
X90326485Y-74840363D01*
X90326482Y-74840362D01*
X90306084Y-74834896D01*
X90229962Y-74814499D01*
X90130038Y-74814499D01*
X90122442Y-74814499D01*
X90122426Y-74814500D01*
X82342161Y-74814500D01*
X82275122Y-74794815D01*
X82232803Y-74748953D01*
X82156030Y-74605322D01*
X82156028Y-74605320D01*
X82156027Y-74605317D01*
X82066448Y-74496164D01*
X82024252Y-74444747D01*
X81875961Y-74323049D01*
X81863683Y-74312973D01*
X81863681Y-74312972D01*
X81863677Y-74312969D01*
X81680496Y-74215056D01*
X81481716Y-74154757D01*
X81275000Y-74134398D01*
X81068283Y-74154757D01*
X80869503Y-74215056D01*
X80711953Y-74299269D01*
X80643550Y-74313511D01*
X80578306Y-74288511D01*
X80536936Y-74232206D01*
X80529500Y-74189911D01*
X80529500Y-73658088D01*
X80549185Y-73591049D01*
X80601989Y-73545294D01*
X80671147Y-73535350D01*
X80711952Y-73548729D01*
X80869508Y-73632945D01*
X81068282Y-73693242D01*
X81275000Y-73713602D01*
X81481718Y-73693242D01*
X81680492Y-73632945D01*
X81699205Y-73622943D01*
X81826511Y-73554896D01*
X81863683Y-73535027D01*
X82024252Y-73403252D01*
X82156027Y-73242683D01*
X82184721Y-73189000D01*
X82232803Y-73099047D01*
X82281765Y-73049203D01*
X82342161Y-73033500D01*
X89971444Y-73033500D01*
X90038483Y-73053185D01*
G37*
%TD.AperFunction*%
%TA.AperFunction,Conductor*%
G36*
X90038483Y-70513185D02*
G01*
X90059125Y-70529819D01*
X93671983Y-74142677D01*
X93671993Y-74142688D01*
X93676323Y-74147018D01*
X93676324Y-74147019D01*
X93746981Y-74217676D01*
X93794869Y-74245324D01*
X93833519Y-74267639D01*
X93930038Y-74293501D01*
X93930040Y-74293501D01*
X94037558Y-74293501D01*
X94037574Y-74293500D01*
X95627698Y-74293500D01*
X95694737Y-74313185D01*
X95740492Y-74365989D01*
X95750436Y-74435147D01*
X95723551Y-74496165D01*
X95633974Y-74605315D01*
X95633969Y-74605322D01*
X95536056Y-74788503D01*
X95475757Y-74987283D01*
X95455398Y-75194000D01*
X95475757Y-75400716D01*
X95536056Y-75599496D01*
X95633969Y-75782677D01*
X95633973Y-75782683D01*
X95707138Y-75871836D01*
X95734450Y-75936146D01*
X95722659Y-76005013D01*
X95675506Y-76056573D01*
X95611284Y-76074500D01*
X94188556Y-76074500D01*
X94121517Y-76054815D01*
X94100875Y-76038181D01*
X90490746Y-72428052D01*
X90490744Y-72428049D01*
X90413020Y-72350325D01*
X90413015Y-72350321D01*
X90326485Y-72300363D01*
X90326482Y-72300362D01*
X90316988Y-72297818D01*
X90306084Y-72294896D01*
X90229962Y-72274499D01*
X90130038Y-72274499D01*
X90122442Y-72274499D01*
X90122426Y-72274500D01*
X82342161Y-72274500D01*
X82275122Y-72254815D01*
X82232803Y-72208953D01*
X82156030Y-72065322D01*
X82156028Y-72065320D01*
X82156027Y-72065317D01*
X82066448Y-71956164D01*
X82024252Y-71904747D01*
X81884210Y-71789819D01*
X81863683Y-71772973D01*
X81863681Y-71772972D01*
X81863677Y-71772969D01*
X81680496Y-71675056D01*
X81481716Y-71614757D01*
X81275000Y-71594398D01*
X81068283Y-71614757D01*
X80869503Y-71675056D01*
X80711953Y-71759269D01*
X80643550Y-71773511D01*
X80578306Y-71748511D01*
X80536936Y-71692206D01*
X80529500Y-71649911D01*
X80529500Y-71118088D01*
X80549185Y-71051049D01*
X80601989Y-71005294D01*
X80671147Y-70995350D01*
X80711952Y-71008729D01*
X80869508Y-71092945D01*
X81068282Y-71153242D01*
X81275000Y-71173602D01*
X81481718Y-71153242D01*
X81680492Y-71092945D01*
X81699205Y-71082943D01*
X81825278Y-71015555D01*
X81863683Y-70995027D01*
X82024252Y-70863252D01*
X82156027Y-70702683D01*
X82174197Y-70668687D01*
X82232803Y-70559047D01*
X82281765Y-70509203D01*
X82342161Y-70493500D01*
X89971444Y-70493500D01*
X90038483Y-70513185D01*
G37*
%TD.AperFunction*%
%TA.AperFunction,Conductor*%
G36*
X90038483Y-67973185D02*
G01*
X90059125Y-67989819D01*
X93671983Y-71602677D01*
X93671993Y-71602688D01*
X93676323Y-71607018D01*
X93676324Y-71607019D01*
X93746981Y-71677676D01*
X93746983Y-71677677D01*
X93746984Y-71677678D01*
X93784950Y-71699597D01*
X93784952Y-71699599D01*
X93784953Y-71699599D01*
X93833519Y-71727639D01*
X93930038Y-71753501D01*
X93930040Y-71753501D01*
X94037558Y-71753501D01*
X94037574Y-71753500D01*
X95627698Y-71753500D01*
X95694737Y-71773185D01*
X95740492Y-71825989D01*
X95750436Y-71895147D01*
X95723551Y-71956165D01*
X95633974Y-72065315D01*
X95633969Y-72065322D01*
X95536056Y-72248503D01*
X95475757Y-72447283D01*
X95455398Y-72654000D01*
X95475757Y-72860716D01*
X95536056Y-73059496D01*
X95633969Y-73242677D01*
X95633973Y-73242683D01*
X95707138Y-73331836D01*
X95734450Y-73396146D01*
X95722659Y-73465013D01*
X95675506Y-73516573D01*
X95611284Y-73534500D01*
X94188556Y-73534500D01*
X94121517Y-73514815D01*
X94100875Y-73498181D01*
X90490746Y-69888052D01*
X90490744Y-69888049D01*
X90413020Y-69810325D01*
X90413015Y-69810321D01*
X90326484Y-69760363D01*
X90326483Y-69760362D01*
X90326482Y-69760362D01*
X90301925Y-69753782D01*
X90229962Y-69734499D01*
X90130038Y-69734499D01*
X90122442Y-69734499D01*
X90122426Y-69734500D01*
X82342161Y-69734500D01*
X82275122Y-69714815D01*
X82232803Y-69668953D01*
X82156030Y-69525322D01*
X82156028Y-69525320D01*
X82156027Y-69525317D01*
X82066448Y-69416164D01*
X82024252Y-69364747D01*
X81884210Y-69249819D01*
X81863683Y-69232973D01*
X81863681Y-69232972D01*
X81863677Y-69232969D01*
X81680496Y-69135056D01*
X81481716Y-69074757D01*
X81275000Y-69054398D01*
X81068283Y-69074757D01*
X80869503Y-69135056D01*
X80711953Y-69219269D01*
X80643550Y-69233511D01*
X80578306Y-69208511D01*
X80536936Y-69152206D01*
X80529500Y-69109911D01*
X80529500Y-68578088D01*
X80549185Y-68511049D01*
X80601989Y-68465294D01*
X80671147Y-68455350D01*
X80711952Y-68468729D01*
X80869508Y-68552945D01*
X81068282Y-68613242D01*
X81275000Y-68633602D01*
X81481718Y-68613242D01*
X81680492Y-68552945D01*
X81681067Y-68552638D01*
X81826511Y-68474896D01*
X81863683Y-68455027D01*
X82024252Y-68323252D01*
X82156027Y-68162683D01*
X82190735Y-68097750D01*
X82232803Y-68019047D01*
X82281765Y-67969203D01*
X82342161Y-67953500D01*
X89971444Y-67953500D01*
X90038483Y-67973185D01*
G37*
%TD.AperFunction*%
%TA.AperFunction,Conductor*%
G36*
X90038483Y-65433185D02*
G01*
X90059125Y-65449819D01*
X93671983Y-69062677D01*
X93671993Y-69062688D01*
X93676323Y-69067018D01*
X93676324Y-69067019D01*
X93746981Y-69137676D01*
X93772148Y-69152206D01*
X93783567Y-69158799D01*
X93783568Y-69158800D01*
X93833513Y-69187636D01*
X93833514Y-69187636D01*
X93833519Y-69187639D01*
X93930038Y-69213501D01*
X93930040Y-69213501D01*
X94037558Y-69213501D01*
X94037574Y-69213500D01*
X95627698Y-69213500D01*
X95694737Y-69233185D01*
X95740492Y-69285989D01*
X95750436Y-69355147D01*
X95723551Y-69416165D01*
X95633974Y-69525315D01*
X95633969Y-69525322D01*
X95536056Y-69708503D01*
X95475757Y-69907283D01*
X95455398Y-70114000D01*
X95475757Y-70320716D01*
X95536056Y-70519496D01*
X95633969Y-70702677D01*
X95633973Y-70702683D01*
X95707138Y-70791836D01*
X95734450Y-70856146D01*
X95722659Y-70925013D01*
X95675506Y-70976573D01*
X95611284Y-70994500D01*
X94188556Y-70994500D01*
X94121517Y-70974815D01*
X94100875Y-70958181D01*
X90490746Y-67348052D01*
X90490744Y-67348049D01*
X90413020Y-67270325D01*
X90413015Y-67270321D01*
X90326485Y-67220363D01*
X90326482Y-67220362D01*
X90306084Y-67214896D01*
X90229962Y-67194499D01*
X90130038Y-67194499D01*
X90122442Y-67194499D01*
X90122426Y-67194500D01*
X82342161Y-67194500D01*
X82275122Y-67174815D01*
X82232803Y-67128953D01*
X82156030Y-66985322D01*
X82156028Y-66985320D01*
X82156027Y-66985317D01*
X82066448Y-66876164D01*
X82024252Y-66824747D01*
X81870092Y-66698233D01*
X81863683Y-66692973D01*
X81863681Y-66692972D01*
X81863677Y-66692969D01*
X81680496Y-66595056D01*
X81481716Y-66534757D01*
X81275000Y-66514398D01*
X81068283Y-66534757D01*
X80869503Y-66595056D01*
X80711953Y-66679269D01*
X80643550Y-66693511D01*
X80578306Y-66668511D01*
X80536936Y-66612206D01*
X80529500Y-66569911D01*
X80529500Y-66038088D01*
X80549185Y-65971049D01*
X80601989Y-65925294D01*
X80671147Y-65915350D01*
X80711952Y-65928729D01*
X80869508Y-66012945D01*
X81068282Y-66073242D01*
X81275000Y-66093602D01*
X81481718Y-66073242D01*
X81680492Y-66012945D01*
X81693467Y-66006010D01*
X81825278Y-65935555D01*
X81863683Y-65915027D01*
X82024252Y-65783252D01*
X82156027Y-65622683D01*
X82216125Y-65510248D01*
X82232803Y-65479047D01*
X82281765Y-65429203D01*
X82342161Y-65413500D01*
X89971444Y-65413500D01*
X90038483Y-65433185D01*
G37*
%TD.AperFunction*%
%TA.AperFunction,Conductor*%
G36*
X90038483Y-62893185D02*
G01*
X90059125Y-62909819D01*
X93671983Y-66522677D01*
X93671993Y-66522688D01*
X93676323Y-66527018D01*
X93676324Y-66527019D01*
X93746981Y-66597676D01*
X93794869Y-66625324D01*
X93833519Y-66647639D01*
X93930038Y-66673501D01*
X93930040Y-66673501D01*
X94037558Y-66673501D01*
X94037574Y-66673500D01*
X95627698Y-66673500D01*
X95694737Y-66693185D01*
X95740492Y-66745989D01*
X95750436Y-66815147D01*
X95723551Y-66876165D01*
X95633974Y-66985315D01*
X95633969Y-66985322D01*
X95536056Y-67168503D01*
X95475757Y-67367283D01*
X95455398Y-67574000D01*
X95475757Y-67780716D01*
X95536056Y-67979496D01*
X95633969Y-68162677D01*
X95633973Y-68162683D01*
X95707138Y-68251836D01*
X95734450Y-68316146D01*
X95722659Y-68385013D01*
X95675506Y-68436573D01*
X95611284Y-68454500D01*
X94188556Y-68454500D01*
X94121517Y-68434815D01*
X94100875Y-68418181D01*
X90490746Y-64808052D01*
X90490744Y-64808049D01*
X90413020Y-64730325D01*
X90413015Y-64730321D01*
X90326485Y-64680363D01*
X90326482Y-64680362D01*
X90306084Y-64674896D01*
X90229962Y-64654499D01*
X90130038Y-64654499D01*
X90122442Y-64654499D01*
X90122426Y-64654500D01*
X82342161Y-64654500D01*
X82275122Y-64634815D01*
X82232803Y-64588953D01*
X82156030Y-64445322D01*
X82156028Y-64445320D01*
X82156027Y-64445317D01*
X82066448Y-64336164D01*
X82024252Y-64284747D01*
X81865340Y-64154333D01*
X81863683Y-64152973D01*
X81863681Y-64152972D01*
X81863677Y-64152969D01*
X81680496Y-64055056D01*
X81481716Y-63994757D01*
X81275000Y-63974398D01*
X81068283Y-63994757D01*
X80869503Y-64055056D01*
X80711953Y-64139269D01*
X80643550Y-64153511D01*
X80578306Y-64128511D01*
X80536936Y-64072206D01*
X80529500Y-64029911D01*
X80529500Y-63498088D01*
X80549185Y-63431049D01*
X80601989Y-63385294D01*
X80671147Y-63375350D01*
X80711952Y-63388729D01*
X80869508Y-63472945D01*
X81068282Y-63533242D01*
X81275000Y-63553602D01*
X81481718Y-63533242D01*
X81680492Y-63472945D01*
X81699205Y-63462943D01*
X81830539Y-63392743D01*
X81863683Y-63375027D01*
X82024252Y-63243252D01*
X82156027Y-63082683D01*
X82219465Y-62964000D01*
X82232803Y-62939047D01*
X82281765Y-62889203D01*
X82342161Y-62873500D01*
X89971444Y-62873500D01*
X90038483Y-62893185D01*
G37*
%TD.AperFunction*%
%TA.AperFunction,Conductor*%
G36*
X103962113Y-66679000D02*
G01*
X105250622Y-66679000D01*
X105255504Y-66676334D01*
X105281862Y-66673500D01*
X105668138Y-66673500D01*
X105686869Y-66679000D01*
X106972951Y-66679000D01*
X106975522Y-66677462D01*
X107006618Y-66673500D01*
X107487444Y-66673500D01*
X107554483Y-66693185D01*
X107575125Y-66709819D01*
X109108125Y-68242819D01*
X109141610Y-68304142D01*
X109136626Y-68373834D01*
X109094754Y-68429767D01*
X109029290Y-68454184D01*
X109020444Y-68454500D01*
X108028556Y-68454500D01*
X107961517Y-68434815D01*
X107940875Y-68418181D01*
X106944269Y-67421575D01*
X106910784Y-67360252D01*
X106912874Y-67299299D01*
X106947099Y-67181494D01*
X106947100Y-67181488D01*
X106947295Y-67179001D01*
X106947295Y-67179000D01*
X104089058Y-67179000D01*
X104022019Y-67159315D01*
X104001377Y-67142681D01*
X103743877Y-66885181D01*
X103710392Y-66823858D01*
X103715376Y-66754166D01*
X103757248Y-66698233D01*
X103822712Y-66673816D01*
X103831558Y-66673500D01*
X103943382Y-66673500D01*
X103962113Y-66679000D01*
G37*
%TD.AperFunction*%
%TA.AperFunction,Conductor*%
G36*
X90038483Y-60353185D02*
G01*
X90059125Y-60369819D01*
X93671983Y-63982677D01*
X93671993Y-63982688D01*
X93676323Y-63987018D01*
X93676324Y-63987019D01*
X93746981Y-64057676D01*
X93796944Y-64086522D01*
X93833519Y-64107639D01*
X93930038Y-64133501D01*
X93930040Y-64133501D01*
X94037558Y-64133501D01*
X94037574Y-64133500D01*
X95627698Y-64133500D01*
X95694737Y-64153185D01*
X95740492Y-64205989D01*
X95750436Y-64275147D01*
X95723551Y-64336165D01*
X95633974Y-64445315D01*
X95633969Y-64445322D01*
X95536056Y-64628503D01*
X95475757Y-64827283D01*
X95455398Y-65034000D01*
X95475757Y-65240716D01*
X95536056Y-65439496D01*
X95633969Y-65622677D01*
X95633973Y-65622683D01*
X95707138Y-65711836D01*
X95734450Y-65776146D01*
X95722659Y-65845013D01*
X95675506Y-65896573D01*
X95611284Y-65914500D01*
X94188556Y-65914500D01*
X94121517Y-65894815D01*
X94100875Y-65878181D01*
X90490746Y-62268052D01*
X90490744Y-62268049D01*
X90413020Y-62190325D01*
X90413015Y-62190321D01*
X90326485Y-62140363D01*
X90326482Y-62140362D01*
X90306084Y-62134896D01*
X90229962Y-62114499D01*
X90130038Y-62114499D01*
X90122442Y-62114499D01*
X90122426Y-62114500D01*
X82342161Y-62114500D01*
X82275122Y-62094815D01*
X82232803Y-62048953D01*
X82156030Y-61905322D01*
X82156028Y-61905320D01*
X82156027Y-61905317D01*
X82066448Y-61796164D01*
X82024252Y-61744747D01*
X81888099Y-61633011D01*
X81863683Y-61612973D01*
X81863681Y-61612972D01*
X81863677Y-61612969D01*
X81680496Y-61515056D01*
X81481716Y-61454757D01*
X81275000Y-61434398D01*
X81068283Y-61454757D01*
X80869503Y-61515056D01*
X80711953Y-61599269D01*
X80643550Y-61613511D01*
X80578306Y-61588511D01*
X80536936Y-61532206D01*
X80529500Y-61489911D01*
X80529500Y-60958088D01*
X80549185Y-60891049D01*
X80601989Y-60845294D01*
X80671147Y-60835350D01*
X80711952Y-60848729D01*
X80869508Y-60932945D01*
X81068282Y-60993242D01*
X81275000Y-61013602D01*
X81481718Y-60993242D01*
X81680492Y-60932945D01*
X81699205Y-60922943D01*
X81758874Y-60891049D01*
X81863683Y-60835027D01*
X82024252Y-60703252D01*
X82156027Y-60542683D01*
X82174197Y-60508687D01*
X82232803Y-60399047D01*
X82281765Y-60349203D01*
X82342161Y-60333500D01*
X89971444Y-60333500D01*
X90038483Y-60353185D01*
G37*
%TD.AperFunction*%
%TA.AperFunction,Conductor*%
G36*
X117202539Y-35034185D02*
G01*
X117248294Y-35086989D01*
X117259500Y-35138500D01*
X117259500Y-53177444D01*
X117239815Y-53244483D01*
X117187011Y-53290238D01*
X117117853Y-53300182D01*
X117054297Y-53271157D01*
X117047819Y-53265125D01*
X116592943Y-52810249D01*
X116559458Y-52748926D01*
X116561963Y-52686574D01*
X116609242Y-52530718D01*
X116629602Y-52324000D01*
X116609242Y-52117282D01*
X116548945Y-51918508D01*
X116548943Y-51918505D01*
X116548943Y-51918503D01*
X116451030Y-51735322D01*
X116451028Y-51735320D01*
X116451027Y-51735317D01*
X116385506Y-51655479D01*
X116319252Y-51574747D01*
X116168984Y-51451427D01*
X116158683Y-51442973D01*
X116158681Y-51442972D01*
X116158677Y-51442969D01*
X115975496Y-51345056D01*
X115776716Y-51284757D01*
X115570000Y-51264398D01*
X115363283Y-51284757D01*
X115164503Y-51345056D01*
X114981322Y-51442969D01*
X114981315Y-51442974D01*
X114820747Y-51574747D01*
X114688974Y-51735315D01*
X114688969Y-51735322D01*
X114591056Y-51918503D01*
X114530757Y-52117283D01*
X114510398Y-52324000D01*
X114530757Y-52530716D01*
X114591056Y-52729496D01*
X114688969Y-52912677D01*
X114688974Y-52912684D01*
X114820747Y-53073252D01*
X114904531Y-53142011D01*
X114981317Y-53205027D01*
X114981320Y-53205028D01*
X114981322Y-53205030D01*
X115164503Y-53302943D01*
X115164505Y-53302943D01*
X115164508Y-53302945D01*
X115363282Y-53363242D01*
X115570000Y-53383602D01*
X115776718Y-53363242D01*
X115932573Y-53315963D01*
X116002439Y-53315340D01*
X116056249Y-53346943D01*
X116424181Y-53714875D01*
X116457666Y-53776198D01*
X116460500Y-53802556D01*
X116460500Y-53968491D01*
X116440815Y-54035530D01*
X116388011Y-54081285D01*
X116318853Y-54091229D01*
X116257836Y-54064345D01*
X116158683Y-53982973D01*
X116158677Y-53982969D01*
X115975496Y-53885056D01*
X115776716Y-53824757D01*
X115570000Y-53804398D01*
X115363283Y-53824757D01*
X115164503Y-53885056D01*
X114981322Y-53982969D01*
X114981315Y-53982974D01*
X114820747Y-54114747D01*
X114688974Y-54275315D01*
X114688969Y-54275322D01*
X114591056Y-54458503D01*
X114530757Y-54657283D01*
X114510398Y-54864000D01*
X114530757Y-55070716D01*
X114530758Y-55070718D01*
X114578036Y-55226573D01*
X114578659Y-55296439D01*
X114547056Y-55350248D01*
X113826983Y-56070322D01*
X113756325Y-56140979D01*
X113756321Y-56140984D01*
X113706361Y-56227517D01*
X113706362Y-56227517D01*
X113706362Y-56227518D01*
X113680499Y-56324039D01*
X113680499Y-56433951D01*
X113680500Y-56433964D01*
X113680500Y-58005444D01*
X113660815Y-58072483D01*
X113644181Y-58093125D01*
X113109125Y-58628181D01*
X113047802Y-58661666D01*
X113021444Y-58664500D01*
X105659164Y-58664500D01*
X105592125Y-58644815D01*
X105571483Y-58628181D01*
X104831050Y-57887748D01*
X104831048Y-57887745D01*
X104753324Y-57810021D01*
X104753319Y-57810017D01*
X104666788Y-57760059D01*
X104666787Y-57760058D01*
X104649443Y-57755411D01*
X104632100Y-57750764D01*
X104632099Y-57750763D01*
X104632097Y-57750763D01*
X104570268Y-57734195D01*
X104570266Y-57734195D01*
X104470342Y-57734195D01*
X104462746Y-57734195D01*
X104462730Y-57734196D01*
X103487878Y-57734196D01*
X103487862Y-57734195D01*
X103480266Y-57734195D01*
X103380342Y-57734195D01*
X103283823Y-57760057D01*
X103270695Y-57767637D01*
X103270692Y-57767638D01*
X103197291Y-57810015D01*
X103197283Y-57810021D01*
X103160024Y-57847281D01*
X103126628Y-57880677D01*
X103126626Y-57880679D01*
X102924488Y-58082818D01*
X102749125Y-58258181D01*
X102687802Y-58291666D01*
X102661444Y-58294500D01*
X101225509Y-58294500D01*
X101158470Y-58274815D01*
X101112715Y-58222011D01*
X101102771Y-58152853D01*
X101129655Y-58091836D01*
X101181495Y-58028668D01*
X101211027Y-57992683D01*
X101275815Y-57871473D01*
X101308943Y-57809496D01*
X101308943Y-57809495D01*
X101308945Y-57809492D01*
X101369242Y-57610718D01*
X101389602Y-57404000D01*
X101369242Y-57197282D01*
X101308945Y-56998508D01*
X101308943Y-56998505D01*
X101308943Y-56998503D01*
X101211030Y-56815322D01*
X101211028Y-56815319D01*
X101211027Y-56815317D01*
X101186285Y-56785168D01*
X101129655Y-56716164D01*
X101102343Y-56651854D01*
X101114134Y-56582987D01*
X101161287Y-56531427D01*
X101225509Y-56513500D01*
X103436693Y-56513500D01*
X103503732Y-56533185D01*
X103549487Y-56585989D01*
X103560693Y-56637500D01*
X103560693Y-56642000D01*
X103579850Y-56799781D01*
X103636214Y-56948397D01*
X103695428Y-57034183D01*
X103726502Y-57079201D01*
X103726504Y-57079203D01*
X103726506Y-57079205D01*
X103845469Y-57184598D01*
X103845471Y-57184599D01*
X103986207Y-57258463D01*
X104063368Y-57277481D01*
X104140528Y-57296500D01*
X104140529Y-57296500D01*
X104299472Y-57296500D01*
X104350911Y-57283821D01*
X104453793Y-57258463D01*
X104594529Y-57184599D01*
X104713498Y-57079201D01*
X104803787Y-56948395D01*
X104860149Y-56799782D01*
X104879307Y-56642000D01*
X104860149Y-56484218D01*
X104803787Y-56335605D01*
X104713498Y-56204799D01*
X104713495Y-56204796D01*
X104713493Y-56204794D01*
X104594530Y-56099401D01*
X104453791Y-56025536D01*
X104299472Y-55987500D01*
X104299471Y-55987500D01*
X104153556Y-55987500D01*
X104086517Y-55967815D01*
X104065875Y-55951181D01*
X104022746Y-55908052D01*
X104022744Y-55908049D01*
X103945020Y-55830325D01*
X103945015Y-55830321D01*
X103858485Y-55780363D01*
X103858482Y-55780362D01*
X103838084Y-55774896D01*
X103761962Y-55754499D01*
X103662038Y-55754499D01*
X103654442Y-55754499D01*
X103654426Y-55754500D01*
X103013214Y-55754500D01*
X102946175Y-55734815D01*
X102900420Y-55682011D01*
X102890476Y-55612853D01*
X102919501Y-55549297D01*
X102978279Y-55511523D01*
X102983539Y-55510103D01*
X102987634Y-55509093D01*
X103103793Y-55480463D01*
X103244529Y-55406599D01*
X103363498Y-55301201D01*
X103453787Y-55170395D01*
X103510149Y-55021782D01*
X103529307Y-54864000D01*
X103523308Y-54814595D01*
X103534768Y-54745674D01*
X103558717Y-54711975D01*
X103810876Y-54459816D01*
X103872198Y-54426334D01*
X103898556Y-54423500D01*
X111188822Y-54423500D01*
X111188838Y-54423501D01*
X111196434Y-54423501D01*
X111296357Y-54423501D01*
X111296358Y-54423501D01*
X111372476Y-54403104D01*
X111372478Y-54403104D01*
X111385411Y-54399638D01*
X111392878Y-54397638D01*
X111479415Y-54347676D01*
X111550072Y-54277019D01*
X111550072Y-54277017D01*
X111560276Y-54266814D01*
X111560280Y-54266809D01*
X112782809Y-53044280D01*
X112782814Y-53044276D01*
X112793017Y-53034072D01*
X112793019Y-53034072D01*
X112863676Y-52963415D01*
X112913638Y-52876878D01*
X112913639Y-52876877D01*
X112939501Y-52780358D01*
X112939501Y-52680434D01*
X112939501Y-52672839D01*
X112939500Y-52672821D01*
X112939500Y-50922556D01*
X112959185Y-50855517D01*
X112975819Y-50834875D01*
X113610875Y-50199819D01*
X113672198Y-50166334D01*
X113698556Y-50163500D01*
X114502839Y-50163500D01*
X114569878Y-50183185D01*
X114612197Y-50229047D01*
X114688969Y-50372677D01*
X114688974Y-50372684D01*
X114820747Y-50533252D01*
X114925319Y-50619071D01*
X114981317Y-50665027D01*
X114981320Y-50665028D01*
X114981322Y-50665030D01*
X115164503Y-50762943D01*
X115164505Y-50762943D01*
X115164508Y-50762945D01*
X115363282Y-50823242D01*
X115570000Y-50843602D01*
X115776718Y-50823242D01*
X115975492Y-50762945D01*
X115976067Y-50762638D01*
X116105788Y-50693300D01*
X116158683Y-50665027D01*
X116319252Y-50533252D01*
X116451027Y-50372683D01*
X116548945Y-50189492D01*
X116609242Y-49990718D01*
X116629602Y-49784000D01*
X116609242Y-49577282D01*
X116548945Y-49378508D01*
X116548943Y-49378505D01*
X116548943Y-49378503D01*
X116451030Y-49195322D01*
X116451028Y-49195320D01*
X116451027Y-49195317D01*
X116369655Y-49096164D01*
X116319252Y-49034747D01*
X116158684Y-48902974D01*
X116158677Y-48902969D01*
X115975496Y-48805056D01*
X115776716Y-48744757D01*
X115570000Y-48724398D01*
X115363283Y-48744757D01*
X115164503Y-48805056D01*
X114981322Y-48902969D01*
X114981315Y-48902974D01*
X114820747Y-49034747D01*
X114688974Y-49195315D01*
X114688969Y-49195322D01*
X114612197Y-49338953D01*
X114563235Y-49388797D01*
X114502839Y-49404500D01*
X113547574Y-49404500D01*
X113547558Y-49404499D01*
X113539962Y-49404499D01*
X113440038Y-49404499D01*
X113343517Y-49430361D01*
X113326197Y-49440362D01*
X113256981Y-49480324D01*
X113256978Y-49480326D01*
X112651181Y-50086124D01*
X112589858Y-50119609D01*
X112520166Y-50114625D01*
X112464233Y-50072753D01*
X112439816Y-50007289D01*
X112439500Y-49998443D01*
X112439500Y-48922555D01*
X112459185Y-48855516D01*
X112475814Y-48834879D01*
X114066692Y-47244000D01*
X114510398Y-47244000D01*
X114530757Y-47450716D01*
X114591056Y-47649496D01*
X114688969Y-47832677D01*
X114688974Y-47832684D01*
X114820747Y-47993252D01*
X114904531Y-48062011D01*
X114981317Y-48125027D01*
X114981320Y-48125028D01*
X114981322Y-48125030D01*
X115164503Y-48222943D01*
X115164505Y-48222943D01*
X115164508Y-48222945D01*
X115363282Y-48283242D01*
X115570000Y-48303602D01*
X115776718Y-48283242D01*
X115975492Y-48222945D01*
X116014399Y-48202149D01*
X116140962Y-48134499D01*
X116158683Y-48125027D01*
X116319252Y-47993252D01*
X116451027Y-47832683D01*
X116548945Y-47649492D01*
X116609242Y-47450718D01*
X116629602Y-47244000D01*
X116609242Y-47037282D01*
X116548945Y-46838508D01*
X116548943Y-46838505D01*
X116548943Y-46838503D01*
X116451030Y-46655322D01*
X116451028Y-46655320D01*
X116451027Y-46655317D01*
X116369655Y-46556164D01*
X116319252Y-46494747D01*
X116158684Y-46362974D01*
X116158677Y-46362969D01*
X115975496Y-46265056D01*
X115776716Y-46204757D01*
X115570000Y-46184398D01*
X115363283Y-46204757D01*
X115164503Y-46265056D01*
X114981322Y-46362969D01*
X114981315Y-46362974D01*
X114820747Y-46494747D01*
X114688974Y-46655315D01*
X114688969Y-46655322D01*
X114591056Y-46838503D01*
X114530757Y-47037283D01*
X114510398Y-47244000D01*
X114066692Y-47244000D01*
X114072809Y-47237883D01*
X114072814Y-47237880D01*
X114083017Y-47227676D01*
X114083019Y-47227676D01*
X114153676Y-47157019D01*
X114203638Y-47070482D01*
X114229500Y-46973962D01*
X114229500Y-44704000D01*
X114510398Y-44704000D01*
X114530757Y-44910716D01*
X114591056Y-45109496D01*
X114688969Y-45292677D01*
X114688974Y-45292684D01*
X114820747Y-45453252D01*
X114908189Y-45525013D01*
X114981317Y-45585027D01*
X114981320Y-45585028D01*
X114981322Y-45585030D01*
X115164503Y-45682943D01*
X115164505Y-45682943D01*
X115164508Y-45682945D01*
X115363282Y-45743242D01*
X115570000Y-45763602D01*
X115776718Y-45743242D01*
X115975492Y-45682945D01*
X116158683Y-45585027D01*
X116319252Y-45453252D01*
X116451027Y-45292683D01*
X116548945Y-45109492D01*
X116609242Y-44910718D01*
X116629602Y-44704000D01*
X116609242Y-44497282D01*
X116548945Y-44298508D01*
X116548943Y-44298505D01*
X116548943Y-44298503D01*
X116451030Y-44115322D01*
X116451028Y-44115320D01*
X116451027Y-44115317D01*
X116390196Y-44041194D01*
X116319252Y-43954747D01*
X116158684Y-43822974D01*
X116158677Y-43822969D01*
X115975496Y-43725056D01*
X115776716Y-43664757D01*
X115570000Y-43644398D01*
X115363283Y-43664757D01*
X115164503Y-43725056D01*
X114981322Y-43822969D01*
X114981315Y-43822974D01*
X114820747Y-43954747D01*
X114688974Y-44115315D01*
X114688969Y-44115322D01*
X114591056Y-44298503D01*
X114530757Y-44497283D01*
X114510398Y-44704000D01*
X114229500Y-44704000D01*
X114229500Y-44092555D01*
X114249185Y-44025516D01*
X114265815Y-44004878D01*
X115083751Y-43186941D01*
X115145072Y-43153458D01*
X115207422Y-43155962D01*
X115363282Y-43203242D01*
X115570000Y-43223602D01*
X115776718Y-43203242D01*
X115975492Y-43142945D01*
X115982875Y-43138999D01*
X116101584Y-43075547D01*
X116158683Y-43045027D01*
X116319252Y-42913252D01*
X116451027Y-42752683D01*
X116509777Y-42642768D01*
X116548943Y-42569496D01*
X116548943Y-42569495D01*
X116548945Y-42569492D01*
X116609242Y-42370718D01*
X116629602Y-42164000D01*
X116609242Y-41957282D01*
X116548945Y-41758508D01*
X116548943Y-41758505D01*
X116548943Y-41758503D01*
X116451030Y-41575322D01*
X116451028Y-41575320D01*
X116451027Y-41575317D01*
X116381896Y-41491080D01*
X116319252Y-41414747D01*
X116158684Y-41282974D01*
X116158677Y-41282969D01*
X115975496Y-41185056D01*
X115776716Y-41124757D01*
X115570000Y-41104398D01*
X115363283Y-41124757D01*
X115164503Y-41185056D01*
X114981322Y-41282969D01*
X114981315Y-41282974D01*
X114820747Y-41414747D01*
X114688974Y-41575315D01*
X114688969Y-41575322D01*
X114591056Y-41758503D01*
X114530757Y-41957283D01*
X114510398Y-42164000D01*
X114530757Y-42370716D01*
X114530758Y-42370718D01*
X114578036Y-42526573D01*
X114578659Y-42596439D01*
X114547056Y-42650248D01*
X113616983Y-43580322D01*
X113546325Y-43650979D01*
X113546321Y-43650984D01*
X113496361Y-43737517D01*
X113496362Y-43737517D01*
X113496362Y-43737518D01*
X113496362Y-43737519D01*
X113472068Y-43828185D01*
X113470499Y-43834039D01*
X113470499Y-43943951D01*
X113470500Y-43943964D01*
X113470500Y-44210795D01*
X113450815Y-44277834D01*
X113398011Y-44323589D01*
X113328853Y-44333533D01*
X113316825Y-44331192D01*
X113204472Y-44303500D01*
X113204471Y-44303500D01*
X113045529Y-44303500D01*
X113045528Y-44303500D01*
X112891208Y-44341536D01*
X112750469Y-44415401D01*
X112631506Y-44520794D01*
X112631499Y-44520802D01*
X112628642Y-44524942D01*
X112574358Y-44568931D01*
X112526594Y-44578499D01*
X112472038Y-44578499D01*
X112375519Y-44604361D01*
X112375516Y-44604362D01*
X112375515Y-44604363D01*
X112338942Y-44625478D01*
X112288982Y-44654322D01*
X112253653Y-44689651D01*
X112218324Y-44724981D01*
X112218322Y-44724983D01*
X112097806Y-44845500D01*
X112010125Y-44933181D01*
X111948802Y-44966666D01*
X111922444Y-44969500D01*
X111778500Y-44969500D01*
X111711461Y-44949815D01*
X111665706Y-44897011D01*
X111654500Y-44845500D01*
X111654500Y-44522160D01*
X111639499Y-44427447D01*
X111625598Y-44400165D01*
X111581326Y-44313277D01*
X111581322Y-44313273D01*
X111581321Y-44313271D01*
X111490728Y-44222678D01*
X111490725Y-44222676D01*
X111490723Y-44222674D01*
X111376555Y-44164502D01*
X111376553Y-44164501D01*
X111376552Y-44164501D01*
X111366098Y-44162845D01*
X111302964Y-44132913D01*
X111266035Y-44073600D01*
X111261500Y-44040372D01*
X111261500Y-42865808D01*
X111281185Y-42798769D01*
X111311192Y-42766539D01*
X111324544Y-42756544D01*
X111407175Y-42646163D01*
X111455360Y-42516973D01*
X111461500Y-42459864D01*
X111461500Y-41868136D01*
X111455360Y-41811027D01*
X111433352Y-41752020D01*
X111407176Y-41681839D01*
X111407175Y-41681837D01*
X111324544Y-41571456D01*
X111324541Y-41571454D01*
X111324540Y-41571452D01*
X111311188Y-41561457D01*
X111269317Y-41505522D01*
X111261500Y-41462191D01*
X111261500Y-41141332D01*
X111281185Y-41074293D01*
X111297819Y-41053651D01*
X111310989Y-41040481D01*
X111335700Y-41015770D01*
X111402119Y-40900730D01*
X111436500Y-40772419D01*
X111436500Y-39838751D01*
X111456185Y-39771712D01*
X111486189Y-39739484D01*
X111542404Y-39697404D01*
X111597353Y-39624000D01*
X114510398Y-39624000D01*
X114530757Y-39830716D01*
X114591056Y-40029496D01*
X114688969Y-40212677D01*
X114688974Y-40212684D01*
X114820747Y-40373252D01*
X114908985Y-40445666D01*
X114981317Y-40505027D01*
X114981320Y-40505028D01*
X114981322Y-40505030D01*
X115164503Y-40602943D01*
X115164505Y-40602943D01*
X115164508Y-40602945D01*
X115363282Y-40663242D01*
X115570000Y-40683602D01*
X115776718Y-40663242D01*
X115975492Y-40602945D01*
X115976572Y-40602368D01*
X116105700Y-40533347D01*
X116158683Y-40505027D01*
X116319252Y-40373252D01*
X116451027Y-40212683D01*
X116528275Y-40068162D01*
X116548943Y-40029496D01*
X116548943Y-40029495D01*
X116548945Y-40029492D01*
X116609242Y-39830718D01*
X116629602Y-39624000D01*
X116609242Y-39417282D01*
X116548945Y-39218508D01*
X116548943Y-39218505D01*
X116548943Y-39218503D01*
X116451030Y-39035322D01*
X116451028Y-39035320D01*
X116451027Y-39035317D01*
X116389893Y-38960825D01*
X116319252Y-38874747D01*
X116158684Y-38742974D01*
X116158677Y-38742969D01*
X115975496Y-38645056D01*
X115776716Y-38584757D01*
X115570000Y-38564398D01*
X115363283Y-38584757D01*
X115164503Y-38645056D01*
X114981322Y-38742969D01*
X114981315Y-38742974D01*
X114820747Y-38874747D01*
X114688974Y-39035315D01*
X114688969Y-39035322D01*
X114591056Y-39218503D01*
X114530757Y-39417283D01*
X114510398Y-39624000D01*
X111597353Y-39624000D01*
X111629342Y-39581267D01*
X111680040Y-39445342D01*
X111683057Y-39417282D01*
X111686499Y-39385271D01*
X111686499Y-39385264D01*
X111686500Y-39385255D01*
X111686499Y-38338746D01*
X111680040Y-38278658D01*
X111665159Y-38238761D01*
X111629344Y-38142738D01*
X111629343Y-38142737D01*
X111629342Y-38142733D01*
X111542404Y-38026596D01*
X111542403Y-38026595D01*
X111542402Y-38026594D01*
X111486190Y-37984515D01*
X111444318Y-37928582D01*
X111436500Y-37885248D01*
X111436500Y-37712500D01*
X111456185Y-37645461D01*
X111508989Y-37599706D01*
X111560500Y-37588500D01*
X114569653Y-37588500D01*
X114636692Y-37608185D01*
X114679011Y-37654047D01*
X114688969Y-37672677D01*
X114688974Y-37672684D01*
X114820747Y-37833252D01*
X114924811Y-37918654D01*
X114981317Y-37965027D01*
X114981320Y-37965028D01*
X114981322Y-37965030D01*
X115164503Y-38062943D01*
X115164505Y-38062943D01*
X115164508Y-38062945D01*
X115363282Y-38123242D01*
X115570000Y-38143602D01*
X115776718Y-38123242D01*
X115975492Y-38062945D01*
X116158683Y-37965027D01*
X116319252Y-37833252D01*
X116451027Y-37672683D01*
X116548945Y-37489492D01*
X116609242Y-37290718D01*
X116629602Y-37084000D01*
X116609242Y-36877282D01*
X116548945Y-36678508D01*
X116548943Y-36678505D01*
X116548943Y-36678503D01*
X116451030Y-36495322D01*
X116451028Y-36495320D01*
X116451027Y-36495317D01*
X116380091Y-36408881D01*
X116319252Y-36334747D01*
X116158684Y-36202974D01*
X116158677Y-36202969D01*
X115975496Y-36105056D01*
X115776716Y-36044757D01*
X115570000Y-36024398D01*
X115363283Y-36044757D01*
X115164503Y-36105056D01*
X114981322Y-36202969D01*
X114981315Y-36202974D01*
X114820747Y-36334747D01*
X114688974Y-36495315D01*
X114688969Y-36495322D01*
X114679011Y-36513953D01*
X114630049Y-36563797D01*
X114569653Y-36579500D01*
X110998419Y-36579500D01*
X104073581Y-36579500D01*
X103996594Y-36600128D01*
X103945268Y-36613881D01*
X103945267Y-36613882D01*
X103830233Y-36680296D01*
X103830228Y-36680300D01*
X102702348Y-37808181D01*
X102641025Y-37841666D01*
X102614667Y-37844500D01*
X101508500Y-37844500D01*
X101441461Y-37824815D01*
X101395706Y-37772011D01*
X101384500Y-37720500D01*
X101384499Y-36258936D01*
X101384499Y-36258934D01*
X101369734Y-36184699D01*
X101316518Y-36105056D01*
X101313484Y-36100515D01*
X101263019Y-36066796D01*
X101229301Y-36044266D01*
X101229299Y-36044265D01*
X101229296Y-36044264D01*
X101155069Y-36029500D01*
X99504936Y-36029500D01*
X99430698Y-36044266D01*
X99346515Y-36100515D01*
X99290266Y-36184699D01*
X99290264Y-36184703D01*
X99275500Y-36258928D01*
X99275500Y-36258931D01*
X99275501Y-37720500D01*
X99255816Y-37787539D01*
X99203013Y-37833294D01*
X99151501Y-37844500D01*
X95684902Y-37844500D01*
X95617863Y-37824815D01*
X95597221Y-37808181D01*
X93814341Y-36025301D01*
X93814339Y-36025299D01*
X93788889Y-36010605D01*
X93741407Y-35983191D01*
X93741406Y-35983191D01*
X93699299Y-35958881D01*
X93699300Y-35958881D01*
X93667221Y-35950285D01*
X93570988Y-35924500D01*
X89542581Y-35924500D01*
X89465594Y-35945128D01*
X89414268Y-35958881D01*
X89414267Y-35958882D01*
X89299233Y-36025296D01*
X89299228Y-36025300D01*
X88986348Y-36338181D01*
X88925025Y-36371666D01*
X88898667Y-36374500D01*
X86319011Y-36374500D01*
X86284632Y-36383711D01*
X86284633Y-36383712D01*
X86190703Y-36408880D01*
X86190700Y-36408881D01*
X86075665Y-36475297D01*
X86075659Y-36475301D01*
X84686298Y-37864662D01*
X84645930Y-37934585D01*
X84645929Y-37934586D01*
X84619881Y-37979701D01*
X84619881Y-37979702D01*
X84585500Y-38108013D01*
X84585500Y-38108015D01*
X84585500Y-38638987D01*
X84571985Y-38695281D01*
X84550501Y-38737444D01*
X84550500Y-38737447D01*
X84535500Y-38832160D01*
X84535500Y-38982500D01*
X84515815Y-39049539D01*
X84463011Y-39095294D01*
X84411500Y-39106500D01*
X83505808Y-39106500D01*
X83438769Y-39086815D01*
X83406540Y-39056809D01*
X83396546Y-39043459D01*
X83396544Y-39043456D01*
X83308337Y-38977424D01*
X83286162Y-38960824D01*
X83286160Y-38960823D01*
X83156977Y-38912641D01*
X83156978Y-38912641D01*
X83156974Y-38912640D01*
X83156973Y-38912640D01*
X83099864Y-38906500D01*
X82508136Y-38906500D01*
X82451027Y-38912640D01*
X82451025Y-38912640D01*
X82451021Y-38912641D01*
X82321839Y-38960823D01*
X82321837Y-38960824D01*
X82211456Y-39043456D01*
X82128824Y-39153837D01*
X82128823Y-39153839D01*
X82080641Y-39283021D01*
X82080640Y-39283025D01*
X82080640Y-39283027D01*
X82074500Y-39340136D01*
X82074500Y-39881864D01*
X82079602Y-39929315D01*
X82080641Y-39938978D01*
X82128823Y-40068160D01*
X82128824Y-40068161D01*
X82128825Y-40068163D01*
X82168521Y-40121190D01*
X82190020Y-40149909D01*
X82214437Y-40215373D01*
X82199586Y-40283646D01*
X82155852Y-40329757D01*
X82101271Y-40363424D01*
X82101267Y-40363427D01*
X81981427Y-40483267D01*
X81981424Y-40483271D01*
X81892457Y-40627507D01*
X81892452Y-40627518D01*
X81839144Y-40788393D01*
X81829000Y-40887677D01*
X81829000Y-40911000D01*
X83778999Y-40911000D01*
X83778999Y-40887692D01*
X83778998Y-40887677D01*
X83768855Y-40788392D01*
X83715547Y-40627518D01*
X83715542Y-40627507D01*
X83626575Y-40483271D01*
X83626572Y-40483267D01*
X83506732Y-40363427D01*
X83506728Y-40363424D01*
X83476920Y-40345038D01*
X83430195Y-40293090D01*
X83418974Y-40224127D01*
X83446817Y-40160046D01*
X83504886Y-40121190D01*
X83542017Y-40115500D01*
X84411500Y-40115500D01*
X84478539Y-40135185D01*
X84524294Y-40187989D01*
X84535500Y-40239500D01*
X84535500Y-40545839D01*
X84550500Y-40640552D01*
X84550502Y-40640555D01*
X84608674Y-40754723D01*
X84608676Y-40754725D01*
X84608678Y-40754728D01*
X84699271Y-40845321D01*
X84699273Y-40845322D01*
X84699277Y-40845326D01*
X84813445Y-40903498D01*
X84813446Y-40903498D01*
X84813448Y-40903499D01*
X84813447Y-40903499D01*
X84908161Y-40918500D01*
X85231500Y-40918500D01*
X85298539Y-40938185D01*
X85344294Y-40990989D01*
X85355500Y-41042500D01*
X85355500Y-41299047D01*
X85335815Y-41366086D01*
X85319181Y-41386728D01*
X84786325Y-41919583D01*
X84786321Y-41919588D01*
X84736361Y-42006121D01*
X84736362Y-42006121D01*
X84736362Y-42006122D01*
X84710499Y-42102643D01*
X84710499Y-42212555D01*
X84710500Y-42212568D01*
X84710500Y-43420088D01*
X84690815Y-43487127D01*
X84674181Y-43507769D01*
X84608678Y-43573271D01*
X84608675Y-43573276D01*
X84608674Y-43573277D01*
X84589283Y-43611333D01*
X84550500Y-43687447D01*
X84535500Y-43782160D01*
X84535500Y-45495839D01*
X84550500Y-45590552D01*
X84569138Y-45627130D01*
X84608674Y-45704723D01*
X84608676Y-45704725D01*
X84608678Y-45704728D01*
X84699271Y-45795321D01*
X84699273Y-45795322D01*
X84699277Y-45795326D01*
X84813445Y-45853498D01*
X84813446Y-45853498D01*
X84813448Y-45853499D01*
X84813447Y-45853499D01*
X84908161Y-45868500D01*
X84908166Y-45868500D01*
X85271837Y-45868500D01*
X85290470Y-45865548D01*
X85304444Y-45863335D01*
X85373736Y-45872289D01*
X85411524Y-45898127D01*
X85489046Y-45975649D01*
X85489052Y-45975654D01*
X85716075Y-46202677D01*
X85716085Y-46202688D01*
X85720415Y-46207018D01*
X85720416Y-46207019D01*
X85791073Y-46277676D01*
X85791075Y-46277677D01*
X85791076Y-46277678D01*
X85818506Y-46293514D01*
X85877610Y-46327638D01*
X85877609Y-46327638D01*
X85886889Y-46330124D01*
X85898007Y-46333103D01*
X85974130Y-46353501D01*
X85974131Y-46353501D01*
X86081650Y-46353501D01*
X86081666Y-46353500D01*
X86618334Y-46353500D01*
X86618350Y-46353501D01*
X86625946Y-46353501D01*
X86725869Y-46353501D01*
X86725870Y-46353501D01*
X86801988Y-46333104D01*
X86801990Y-46333104D01*
X86814923Y-46329638D01*
X86822390Y-46327638D01*
X86908927Y-46277676D01*
X86979584Y-46207019D01*
X86979584Y-46207017D01*
X86989789Y-46196813D01*
X86989793Y-46196808D01*
X87038820Y-46147781D01*
X87100143Y-46114297D01*
X87169835Y-46119282D01*
X87225768Y-46161154D01*
X87250184Y-46226618D01*
X87250500Y-46235463D01*
X87250500Y-48305444D01*
X87230815Y-48372483D01*
X87214181Y-48393125D01*
X86229125Y-49378181D01*
X86167802Y-49411666D01*
X86141444Y-49414500D01*
X82453499Y-49414500D01*
X82386460Y-49394815D01*
X82340705Y-49342011D01*
X82329499Y-49290500D01*
X82329499Y-48968936D01*
X82329499Y-48968934D01*
X82314734Y-48894699D01*
X82296068Y-48866765D01*
X82258484Y-48810515D01*
X82208019Y-48776796D01*
X82174301Y-48754266D01*
X82174299Y-48754265D01*
X82174296Y-48754264D01*
X82100069Y-48739500D01*
X80449936Y-48739500D01*
X80375698Y-48754266D01*
X80291515Y-48810515D01*
X80235266Y-48894699D01*
X80235264Y-48894703D01*
X80220500Y-48968928D01*
X80220500Y-50619063D01*
X80235266Y-50693301D01*
X80291515Y-50777484D01*
X80324773Y-50799706D01*
X80375699Y-50833734D01*
X80375702Y-50833734D01*
X80375703Y-50833735D01*
X80400666Y-50838700D01*
X80449933Y-50848500D01*
X82100066Y-50848499D01*
X82174301Y-50833734D01*
X82258484Y-50777484D01*
X82314734Y-50693301D01*
X82329500Y-50619067D01*
X82329500Y-50297500D01*
X82349185Y-50230461D01*
X82401989Y-50184706D01*
X82453500Y-50173500D01*
X86292426Y-50173500D01*
X86292442Y-50173501D01*
X86300038Y-50173501D01*
X86399961Y-50173501D01*
X86399962Y-50173501D01*
X86476080Y-50153104D01*
X86476082Y-50153104D01*
X86489015Y-50149638D01*
X86496482Y-50147638D01*
X86583019Y-50097676D01*
X86653676Y-50027019D01*
X86653676Y-50027017D01*
X86663880Y-50016814D01*
X86663884Y-50016809D01*
X87852809Y-48827884D01*
X87852814Y-48827880D01*
X87863017Y-48817676D01*
X87863019Y-48817676D01*
X87933676Y-48747019D01*
X87983638Y-48660482D01*
X88009500Y-48563962D01*
X88009500Y-45857912D01*
X88029185Y-45790873D01*
X88045819Y-45770231D01*
X88111321Y-45704728D01*
X88111326Y-45704723D01*
X88154516Y-45619957D01*
X88202490Y-45569163D01*
X88270311Y-45552368D01*
X88336446Y-45574906D01*
X88375483Y-45619956D01*
X88418674Y-45704723D01*
X88418676Y-45704725D01*
X88418678Y-45704728D01*
X88509271Y-45795321D01*
X88509273Y-45795322D01*
X88509277Y-45795326D01*
X88623445Y-45853498D01*
X88623446Y-45853498D01*
X88623448Y-45853499D01*
X88623447Y-45853499D01*
X88718161Y-45868500D01*
X88718166Y-45868500D01*
X89081839Y-45868500D01*
X89176552Y-45853499D01*
X89176553Y-45853498D01*
X89176555Y-45853498D01*
X89290723Y-45795326D01*
X89381326Y-45704723D01*
X89424516Y-45619957D01*
X89472490Y-45569163D01*
X89540311Y-45552368D01*
X89606446Y-45574906D01*
X89645483Y-45619956D01*
X89688674Y-45704723D01*
X89688676Y-45704725D01*
X89688678Y-45704728D01*
X89779271Y-45795321D01*
X89779273Y-45795322D01*
X89779277Y-45795326D01*
X89893445Y-45853498D01*
X89893446Y-45853498D01*
X89893448Y-45853499D01*
X89893447Y-45853499D01*
X89988161Y-45868500D01*
X89988166Y-45868500D01*
X90351839Y-45868500D01*
X90446552Y-45853499D01*
X90446553Y-45853498D01*
X90446555Y-45853498D01*
X90560723Y-45795326D01*
X90651326Y-45704723D01*
X90694516Y-45619957D01*
X90742490Y-45569163D01*
X90810311Y-45552368D01*
X90876446Y-45574906D01*
X90915483Y-45619956D01*
X90958674Y-45704723D01*
X90958676Y-45704725D01*
X90958678Y-45704728D01*
X91024181Y-45770231D01*
X91057666Y-45831554D01*
X91060500Y-45857912D01*
X91060500Y-50845444D01*
X91040815Y-50912483D01*
X91024181Y-50933125D01*
X90039125Y-51918181D01*
X89977802Y-51951666D01*
X89951444Y-51954500D01*
X82342161Y-51954500D01*
X82275122Y-51934815D01*
X82232803Y-51888953D01*
X82156030Y-51745322D01*
X82156028Y-51745320D01*
X82156027Y-51745317D01*
X82082990Y-51656321D01*
X82024252Y-51584747D01*
X81863684Y-51452974D01*
X81863677Y-51452969D01*
X81680496Y-51355056D01*
X81481716Y-51294757D01*
X81275000Y-51274398D01*
X81068283Y-51294757D01*
X80869503Y-51355056D01*
X80686322Y-51452969D01*
X80686315Y-51452974D01*
X80525747Y-51584747D01*
X80393974Y-51745315D01*
X80393969Y-51745322D01*
X80296056Y-51928503D01*
X80235757Y-52127283D01*
X80215398Y-52334000D01*
X80235757Y-52540716D01*
X80296056Y-52739496D01*
X80393969Y-52922677D01*
X80393974Y-52922684D01*
X80525747Y-53083252D01*
X80597346Y-53142011D01*
X80686317Y-53215027D01*
X80686320Y-53215028D01*
X80686322Y-53215030D01*
X80869503Y-53312943D01*
X80869505Y-53312943D01*
X80869508Y-53312945D01*
X81068282Y-53373242D01*
X81275000Y-53393602D01*
X81481718Y-53373242D01*
X81680492Y-53312945D01*
X81699205Y-53302943D01*
X81863677Y-53215030D01*
X81863675Y-53215030D01*
X81863683Y-53215027D01*
X82024252Y-53083252D01*
X82156027Y-52922683D01*
X82187645Y-52863530D01*
X82232803Y-52779047D01*
X82281765Y-52729203D01*
X82342161Y-52713500D01*
X90102426Y-52713500D01*
X90102442Y-52713501D01*
X90110038Y-52713501D01*
X90209961Y-52713501D01*
X90209962Y-52713501D01*
X90286080Y-52693104D01*
X90286082Y-52693104D01*
X90299015Y-52689638D01*
X90306482Y-52687638D01*
X90393019Y-52637676D01*
X90463676Y-52567019D01*
X90463676Y-52567017D01*
X90473880Y-52556814D01*
X90473884Y-52556809D01*
X91662809Y-51367884D01*
X91662814Y-51367880D01*
X91673017Y-51357676D01*
X91673019Y-51357676D01*
X91743676Y-51287019D01*
X91793638Y-51200482D01*
X91819500Y-51103962D01*
X91819500Y-45940476D01*
X91839185Y-45873437D01*
X91891989Y-45827682D01*
X91961147Y-45817738D01*
X92024703Y-45846763D01*
X92041484Y-45864482D01*
X92042320Y-45865560D01*
X92158438Y-45981678D01*
X92158447Y-45981685D01*
X92299801Y-46065281D01*
X92457514Y-46111100D01*
X92457511Y-46111100D01*
X92459998Y-46111295D01*
X92460000Y-46111295D01*
X92960000Y-46111295D01*
X92960001Y-46111295D01*
X92962486Y-46111100D01*
X93120198Y-46065281D01*
X93261552Y-45981685D01*
X93261561Y-45981678D01*
X93377678Y-45865561D01*
X93377685Y-45865552D01*
X93461282Y-45724196D01*
X93461283Y-45724193D01*
X93507099Y-45566495D01*
X93507100Y-45566489D01*
X93509999Y-45529649D01*
X93510000Y-45529634D01*
X93510000Y-44889000D01*
X92960000Y-44889000D01*
X92960000Y-46111295D01*
X92460000Y-46111295D01*
X92460000Y-43166703D01*
X92457503Y-43166900D01*
X92299806Y-43212716D01*
X92299803Y-43212717D01*
X92158447Y-43296314D01*
X92158438Y-43296321D01*
X92042315Y-43412444D01*
X92041479Y-43413523D01*
X92040607Y-43414152D01*
X92036800Y-43417960D01*
X92036185Y-43417345D01*
X91984837Y-43454430D01*
X91915070Y-43458220D01*
X91854329Y-43423689D01*
X91821900Y-43361801D01*
X91819500Y-43337523D01*
X91819500Y-40907912D01*
X91839185Y-40840873D01*
X91855819Y-40820231D01*
X91921321Y-40754728D01*
X91921326Y-40754723D01*
X91964516Y-40669957D01*
X92012490Y-40619163D01*
X92080311Y-40602368D01*
X92146446Y-40624906D01*
X92185483Y-40669956D01*
X92228674Y-40754723D01*
X92228676Y-40754725D01*
X92228678Y-40754728D01*
X92319271Y-40845321D01*
X92319273Y-40845322D01*
X92319277Y-40845326D01*
X92433445Y-40903498D01*
X92433446Y-40903498D01*
X92433448Y-40903499D01*
X92433447Y-40903499D01*
X92528161Y-40918500D01*
X92528166Y-40918500D01*
X92891839Y-40918500D01*
X92986546Y-40903500D01*
X92986549Y-40903498D01*
X92986555Y-40903498D01*
X92986560Y-40903495D01*
X92988174Y-40902971D01*
X92990264Y-40902911D01*
X92996194Y-40901972D01*
X92996315Y-40902737D01*
X93058015Y-40900972D01*
X93117851Y-40937048D01*
X93148683Y-40999747D01*
X93150500Y-41020900D01*
X93150500Y-42929217D01*
X93150499Y-42929235D01*
X93150499Y-43036753D01*
X93151011Y-43040644D01*
X93150499Y-43043926D01*
X93150499Y-43044881D01*
X93150350Y-43044881D01*
X93140242Y-43109679D01*
X93093860Y-43161933D01*
X93026591Y-43180816D01*
X92993477Y-43175902D01*
X92962492Y-43166900D01*
X92960000Y-43166703D01*
X92960000Y-44389000D01*
X93510000Y-44389000D01*
X93510000Y-43802848D01*
X93529685Y-43735809D01*
X93582489Y-43690054D01*
X93651647Y-43680110D01*
X93715203Y-43709135D01*
X93721681Y-43715167D01*
X93860983Y-43854469D01*
X93894468Y-43915792D01*
X93897302Y-43942150D01*
X93897302Y-57643227D01*
X93897301Y-57643245D01*
X93897301Y-57650840D01*
X93897301Y-57750764D01*
X93903783Y-57774953D01*
X93915716Y-57819490D01*
X93923163Y-57847281D01*
X93923165Y-57847286D01*
X93973123Y-57933817D01*
X93973127Y-57933822D01*
X94050848Y-58011543D01*
X94050854Y-58011548D01*
X94941983Y-58902677D01*
X94941993Y-58902688D01*
X94946323Y-58907018D01*
X94946324Y-58907019D01*
X95016981Y-58977676D01*
X95103518Y-59027638D01*
X95103517Y-59027638D01*
X95112797Y-59030124D01*
X95123915Y-59033103D01*
X95200038Y-59053501D01*
X95200039Y-59053501D01*
X95307558Y-59053501D01*
X95307574Y-59053500D01*
X95627698Y-59053500D01*
X95694737Y-59073185D01*
X95740492Y-59125989D01*
X95750436Y-59195147D01*
X95723551Y-59256165D01*
X95633974Y-59365315D01*
X95633969Y-59365322D01*
X95536056Y-59548503D01*
X95475757Y-59747283D01*
X95455398Y-59954000D01*
X95475757Y-60160716D01*
X95536056Y-60359496D01*
X95633969Y-60542677D01*
X95633974Y-60542684D01*
X95765747Y-60703252D01*
X95837346Y-60762011D01*
X95926317Y-60835027D01*
X95926320Y-60835028D01*
X95926322Y-60835030D01*
X96109503Y-60932943D01*
X96109505Y-60932943D01*
X96109508Y-60932945D01*
X96308282Y-60993242D01*
X96515000Y-61013602D01*
X96721718Y-60993242D01*
X96920492Y-60932945D01*
X96939205Y-60922943D01*
X96998874Y-60891049D01*
X97103683Y-60835027D01*
X97264252Y-60703252D01*
X97396027Y-60542683D01*
X97414197Y-60508687D01*
X97472803Y-60399047D01*
X97521765Y-60349203D01*
X97582161Y-60333500D01*
X97591444Y-60333500D01*
X97658483Y-60353185D01*
X97679125Y-60369819D01*
X98751983Y-61442677D01*
X98751993Y-61442688D01*
X98756323Y-61447018D01*
X98756324Y-61447019D01*
X98826981Y-61517676D01*
X98913518Y-61567638D01*
X98913517Y-61567638D01*
X98922797Y-61570124D01*
X98933915Y-61573103D01*
X99010038Y-61593501D01*
X99010039Y-61593501D01*
X99117558Y-61593501D01*
X99117574Y-61593500D01*
X99434491Y-61593500D01*
X99501530Y-61613185D01*
X99547285Y-61665989D01*
X99557229Y-61735147D01*
X99530345Y-61796164D01*
X99448973Y-61895316D01*
X99448969Y-61895322D01*
X99351056Y-62078503D01*
X99290757Y-62277283D01*
X99270398Y-62484000D01*
X99290757Y-62690716D01*
X99351056Y-62889496D01*
X99448969Y-63072677D01*
X99448973Y-63072683D01*
X99530345Y-63171836D01*
X99557657Y-63236146D01*
X99545866Y-63305013D01*
X99498713Y-63356573D01*
X99434491Y-63374500D01*
X99014556Y-63374500D01*
X98947517Y-63354815D01*
X98926875Y-63338181D01*
X97856746Y-62268052D01*
X97856744Y-62268049D01*
X97779020Y-62190325D01*
X97779015Y-62190321D01*
X97692485Y-62140363D01*
X97692482Y-62140362D01*
X97672084Y-62134896D01*
X97595962Y-62114499D01*
X97595959Y-62114499D01*
X97582160Y-62114499D01*
X97515121Y-62094814D01*
X97472802Y-62048952D01*
X97396030Y-61905322D01*
X97396028Y-61905320D01*
X97396027Y-61905317D01*
X97306448Y-61796164D01*
X97264252Y-61744747D01*
X97128099Y-61633011D01*
X97103683Y-61612973D01*
X97103681Y-61612972D01*
X97103677Y-61612969D01*
X96920496Y-61515056D01*
X96721716Y-61454757D01*
X96515000Y-61434398D01*
X96308283Y-61454757D01*
X96109503Y-61515056D01*
X95926322Y-61612969D01*
X95926315Y-61612974D01*
X95765747Y-61744747D01*
X95633974Y-61905315D01*
X95633969Y-61905322D01*
X95536056Y-62088503D01*
X95475757Y-62287283D01*
X95455398Y-62494000D01*
X95475757Y-62700716D01*
X95536056Y-62899496D01*
X95633969Y-63082677D01*
X95633973Y-63082683D01*
X95707138Y-63171836D01*
X95734450Y-63236146D01*
X95722659Y-63305013D01*
X95675506Y-63356573D01*
X95611284Y-63374500D01*
X94188556Y-63374500D01*
X94121517Y-63354815D01*
X94100875Y-63338181D01*
X90490746Y-59728052D01*
X90490744Y-59728049D01*
X90413020Y-59650325D01*
X90413015Y-59650321D01*
X90326485Y-59600363D01*
X90326482Y-59600362D01*
X90306084Y-59594896D01*
X90229962Y-59574499D01*
X90130038Y-59574499D01*
X90122442Y-59574499D01*
X90122426Y-59574500D01*
X82342161Y-59574500D01*
X82275122Y-59554815D01*
X82232803Y-59508953D01*
X82156030Y-59365322D01*
X82156028Y-59365320D01*
X82156027Y-59365317D01*
X82066448Y-59256164D01*
X82024252Y-59204747D01*
X81884210Y-59089819D01*
X81863683Y-59072973D01*
X81863681Y-59072972D01*
X81863677Y-59072969D01*
X81680496Y-58975056D01*
X81481716Y-58914757D01*
X81275000Y-58894398D01*
X81068283Y-58914757D01*
X80869503Y-58975056D01*
X80711953Y-59059269D01*
X80643550Y-59073511D01*
X80578306Y-59048511D01*
X80536936Y-58992206D01*
X80529500Y-58949911D01*
X80529500Y-58418088D01*
X80549185Y-58351049D01*
X80601989Y-58305294D01*
X80671147Y-58295350D01*
X80711952Y-58308729D01*
X80869508Y-58392945D01*
X81068282Y-58453242D01*
X81275000Y-58473602D01*
X81481718Y-58453242D01*
X81680492Y-58392945D01*
X81863683Y-58295027D01*
X82024252Y-58163252D01*
X82156027Y-58002683D01*
X82221241Y-57880677D01*
X82253943Y-57819496D01*
X82253943Y-57819495D01*
X82253945Y-57819492D01*
X82314242Y-57620718D01*
X82334602Y-57414000D01*
X82314242Y-57207282D01*
X82253945Y-57008508D01*
X82253943Y-57008505D01*
X82253943Y-57008503D01*
X82156030Y-56825322D01*
X82156028Y-56825320D01*
X82156027Y-56825317D01*
X82066448Y-56716164D01*
X82024252Y-56664747D01*
X81884210Y-56549819D01*
X81863683Y-56532973D01*
X81863681Y-56532972D01*
X81863677Y-56532969D01*
X81680496Y-56435056D01*
X81481716Y-56374757D01*
X81275000Y-56354398D01*
X81068283Y-56374757D01*
X80869503Y-56435056D01*
X80711953Y-56519269D01*
X80643550Y-56533511D01*
X80578306Y-56508511D01*
X80536936Y-56452206D01*
X80529500Y-56409911D01*
X80529500Y-56207555D01*
X80549185Y-56140516D01*
X80565815Y-56119878D01*
X80788751Y-55896941D01*
X80850072Y-55863458D01*
X80912422Y-55865962D01*
X81068282Y-55913242D01*
X81275000Y-55933602D01*
X81481718Y-55913242D01*
X81680492Y-55852945D01*
X81699205Y-55842943D01*
X81826511Y-55774896D01*
X81863683Y-55755027D01*
X82024252Y-55623252D01*
X82156027Y-55462683D01*
X82232802Y-55319047D01*
X82253943Y-55279496D01*
X82253943Y-55279495D01*
X82253945Y-55279492D01*
X82314242Y-55080718D01*
X82334602Y-54874000D01*
X82314242Y-54667282D01*
X82253945Y-54468508D01*
X82253943Y-54468505D01*
X82253943Y-54468503D01*
X82156030Y-54285322D01*
X82156028Y-54285320D01*
X82156027Y-54285317D01*
X82066448Y-54176164D01*
X82024252Y-54124747D01*
X81863684Y-53992974D01*
X81863677Y-53992969D01*
X81680496Y-53895056D01*
X81481716Y-53834757D01*
X81275000Y-53814398D01*
X81068283Y-53834757D01*
X80869503Y-53895056D01*
X80686322Y-53992969D01*
X80686315Y-53992974D01*
X80525747Y-54124747D01*
X80393974Y-54285315D01*
X80393969Y-54285322D01*
X80296056Y-54468503D01*
X80235757Y-54667283D01*
X80215398Y-54874000D01*
X80235757Y-55080716D01*
X80235758Y-55080718D01*
X80283036Y-55236573D01*
X80283659Y-55306439D01*
X80252056Y-55360248D01*
X80072181Y-55540124D01*
X80010858Y-55573609D01*
X79941167Y-55568625D01*
X79885233Y-55526754D01*
X79860816Y-55461289D01*
X79860500Y-55452443D01*
X79860500Y-41434322D01*
X81829001Y-41434322D01*
X81839144Y-41533607D01*
X81892452Y-41694481D01*
X81892457Y-41694492D01*
X81981424Y-41838728D01*
X81981427Y-41838732D01*
X82101267Y-41958572D01*
X82101271Y-41958575D01*
X82245507Y-42047542D01*
X82245518Y-42047547D01*
X82406393Y-42100855D01*
X82505683Y-42110999D01*
X83054000Y-42110999D01*
X83102308Y-42110999D01*
X83102322Y-42110998D01*
X83201607Y-42100855D01*
X83362481Y-42047547D01*
X83362492Y-42047542D01*
X83506728Y-41958575D01*
X83506732Y-41958572D01*
X83626572Y-41838732D01*
X83626575Y-41838728D01*
X83715542Y-41694492D01*
X83715547Y-41694481D01*
X83768855Y-41533606D01*
X83778999Y-41434322D01*
X83779000Y-41434309D01*
X83779000Y-41411000D01*
X83054000Y-41411000D01*
X83054000Y-42110999D01*
X82505683Y-42110999D01*
X82553999Y-42110998D01*
X82554000Y-42110998D01*
X82554000Y-41411000D01*
X81829001Y-41411000D01*
X81829001Y-41434322D01*
X79860500Y-41434322D01*
X79860500Y-35138500D01*
X79880185Y-35071461D01*
X79932989Y-35025706D01*
X79984500Y-35014500D01*
X117135500Y-35014500D01*
X117202539Y-35034185D01*
G37*
%TD.AperFunction*%
%TA.AperFunction,Conductor*%
G36*
X95311505Y-51144645D02*
G01*
X95317983Y-51150677D01*
X95449983Y-51282677D01*
X95449993Y-51282688D01*
X95454323Y-51287018D01*
X95454324Y-51287019D01*
X95524981Y-51357676D01*
X95524983Y-51357677D01*
X95524984Y-51357678D01*
X95568249Y-51382657D01*
X95611518Y-51407638D01*
X95671330Y-51423664D01*
X95730991Y-51460029D01*
X95761520Y-51522876D01*
X95753225Y-51592251D01*
X95735091Y-51622103D01*
X95633973Y-51745316D01*
X95633969Y-51745322D01*
X95536056Y-51928503D01*
X95475757Y-52127283D01*
X95455398Y-52334000D01*
X95475757Y-52540716D01*
X95536056Y-52739496D01*
X95633969Y-52922677D01*
X95633974Y-52922684D01*
X95765747Y-53083252D01*
X95837346Y-53142011D01*
X95926317Y-53215027D01*
X95926320Y-53215028D01*
X95926322Y-53215030D01*
X96109503Y-53312943D01*
X96109505Y-53312943D01*
X96109508Y-53312945D01*
X96308282Y-53373242D01*
X96515000Y-53393602D01*
X96721718Y-53373242D01*
X96920492Y-53312945D01*
X96939205Y-53302943D01*
X97103677Y-53215030D01*
X97103675Y-53215030D01*
X97103683Y-53215027D01*
X97264252Y-53083252D01*
X97396027Y-52922683D01*
X97427645Y-52863530D01*
X97472803Y-52779047D01*
X97521765Y-52729203D01*
X97582161Y-52713500D01*
X97591444Y-52713500D01*
X97658483Y-52733185D01*
X97679125Y-52749819D01*
X98751983Y-53822677D01*
X98751993Y-53822688D01*
X98756323Y-53827018D01*
X98756324Y-53827019D01*
X98826981Y-53897676D01*
X98913518Y-53947638D01*
X98913517Y-53947638D01*
X98922797Y-53950124D01*
X98933915Y-53953103D01*
X99010038Y-53973501D01*
X99010039Y-53973501D01*
X99117558Y-53973501D01*
X99117574Y-53973500D01*
X99434491Y-53973500D01*
X99501530Y-53993185D01*
X99547285Y-54045989D01*
X99557229Y-54115147D01*
X99530345Y-54176164D01*
X99448973Y-54275316D01*
X99448969Y-54275322D01*
X99351056Y-54458503D01*
X99290757Y-54657283D01*
X99270398Y-54864000D01*
X99290757Y-55070716D01*
X99351056Y-55269496D01*
X99448969Y-55452677D01*
X99448973Y-55452683D01*
X99530345Y-55551836D01*
X99557657Y-55616146D01*
X99545866Y-55685013D01*
X99498713Y-55736573D01*
X99434491Y-55754500D01*
X99268556Y-55754500D01*
X99201517Y-55734815D01*
X99180875Y-55718181D01*
X98110746Y-54648052D01*
X98110744Y-54648049D01*
X98033020Y-54570325D01*
X98033015Y-54570321D01*
X97946485Y-54520363D01*
X97946482Y-54520362D01*
X97926084Y-54514896D01*
X97849962Y-54494499D01*
X97750038Y-54494499D01*
X97742442Y-54494499D01*
X97742426Y-54494500D01*
X97582161Y-54494500D01*
X97515122Y-54474815D01*
X97472803Y-54428953D01*
X97396030Y-54285322D01*
X97396028Y-54285320D01*
X97396027Y-54285317D01*
X97306448Y-54176164D01*
X97264252Y-54124747D01*
X97103684Y-53992974D01*
X97103677Y-53992969D01*
X96920496Y-53895056D01*
X96721716Y-53834757D01*
X96515000Y-53814398D01*
X96308283Y-53834757D01*
X96109503Y-53895056D01*
X95926322Y-53992969D01*
X95926315Y-53992974D01*
X95765747Y-54124747D01*
X95633974Y-54285315D01*
X95633969Y-54285322D01*
X95536056Y-54468503D01*
X95475757Y-54667283D01*
X95455398Y-54874000D01*
X95475757Y-55080716D01*
X95536056Y-55279496D01*
X95633969Y-55462677D01*
X95633969Y-55462678D01*
X95633972Y-55462682D01*
X95633973Y-55462683D01*
X95686554Y-55526754D01*
X95696742Y-55539167D01*
X95724054Y-55603478D01*
X95712263Y-55672345D01*
X95665110Y-55723905D01*
X95597568Y-55741788D01*
X95531080Y-55720315D01*
X95513207Y-55705513D01*
X95142621Y-55334927D01*
X95109136Y-55273604D01*
X95106302Y-55247246D01*
X95106302Y-51238358D01*
X95125987Y-51171319D01*
X95178791Y-51125564D01*
X95247949Y-51115620D01*
X95311505Y-51144645D01*
G37*
%TD.AperFunction*%
%TA.AperFunction,Conductor*%
G36*
X99501530Y-48913185D02*
G01*
X99547285Y-48965989D01*
X99557229Y-49035147D01*
X99530345Y-49096164D01*
X99448973Y-49195316D01*
X99448969Y-49195322D01*
X99351056Y-49378503D01*
X99290757Y-49577283D01*
X99270398Y-49784000D01*
X99290757Y-49990716D01*
X99351056Y-50189496D01*
X99448969Y-50372677D01*
X99448974Y-50372684D01*
X99580747Y-50533252D01*
X99685319Y-50619071D01*
X99741317Y-50665027D01*
X99741320Y-50665028D01*
X99741322Y-50665030D01*
X99924503Y-50762943D01*
X99924505Y-50762943D01*
X99924508Y-50762945D01*
X100123282Y-50823242D01*
X100330000Y-50843602D01*
X100536718Y-50823242D01*
X100735492Y-50762945D01*
X100736067Y-50762638D01*
X100865788Y-50693300D01*
X100918683Y-50665027D01*
X101079252Y-50533252D01*
X101211027Y-50372683D01*
X101251050Y-50297806D01*
X101287803Y-50229047D01*
X101336765Y-50179203D01*
X101397161Y-50163500D01*
X103169444Y-50163500D01*
X103236483Y-50183185D01*
X103257125Y-50199819D01*
X103520125Y-50462819D01*
X103553610Y-50524142D01*
X103548626Y-50593834D01*
X103506754Y-50649767D01*
X103441290Y-50674184D01*
X103432444Y-50674500D01*
X102566038Y-50674500D01*
X102469518Y-50700362D01*
X102469515Y-50700363D01*
X102382984Y-50750321D01*
X102382979Y-50750325D01*
X101804325Y-51328979D01*
X101804321Y-51328984D01*
X101754361Y-51415517D01*
X101754362Y-51415517D01*
X101754362Y-51415518D01*
X101746535Y-51444728D01*
X101730925Y-51502987D01*
X101728499Y-51512039D01*
X101728499Y-51621951D01*
X101728500Y-51621964D01*
X101728500Y-52877444D01*
X101708815Y-52944483D01*
X101692181Y-52965125D01*
X101479125Y-53178181D01*
X101417802Y-53211666D01*
X101391444Y-53214500D01*
X101225509Y-53214500D01*
X101158470Y-53194815D01*
X101112715Y-53142011D01*
X101102771Y-53072853D01*
X101129655Y-53011836D01*
X101167989Y-52965125D01*
X101211027Y-52912683D01*
X101269777Y-52802768D01*
X101308943Y-52729496D01*
X101308943Y-52729495D01*
X101308945Y-52729492D01*
X101369242Y-52530718D01*
X101389602Y-52324000D01*
X101369242Y-52117282D01*
X101308945Y-51918508D01*
X101308943Y-51918505D01*
X101308943Y-51918503D01*
X101211030Y-51735322D01*
X101211028Y-51735320D01*
X101211027Y-51735317D01*
X101145506Y-51655479D01*
X101079252Y-51574747D01*
X100928984Y-51451427D01*
X100918683Y-51442973D01*
X100918681Y-51442972D01*
X100918677Y-51442969D01*
X100735496Y-51345056D01*
X100536716Y-51284757D01*
X100330000Y-51264398D01*
X100123283Y-51284757D01*
X99924503Y-51345056D01*
X99741322Y-51442969D01*
X99741315Y-51442974D01*
X99580747Y-51574747D01*
X99448974Y-51735315D01*
X99448971Y-51735318D01*
X99374188Y-51875228D01*
X99325225Y-51925072D01*
X99257088Y-51940532D01*
X99191408Y-51916700D01*
X99177149Y-51904455D01*
X98100746Y-50828052D01*
X98100744Y-50828049D01*
X98023020Y-50750325D01*
X98023015Y-50750321D01*
X97936484Y-50700363D01*
X97936477Y-50700360D01*
X97907074Y-50692481D01*
X97907074Y-50692482D01*
X97873517Y-50683490D01*
X97839962Y-50674499D01*
X97740038Y-50674499D01*
X97732442Y-50674499D01*
X97732426Y-50674500D01*
X97418716Y-50674500D01*
X97351677Y-50654815D01*
X97305922Y-50602011D01*
X97295978Y-50532853D01*
X97322862Y-50471836D01*
X97361864Y-50424311D01*
X97396027Y-50382683D01*
X97477392Y-50230461D01*
X97493943Y-50199496D01*
X97493943Y-50199495D01*
X97493945Y-50199492D01*
X97554242Y-50000718D01*
X97574602Y-49794000D01*
X97554242Y-49587282D01*
X97506962Y-49431422D01*
X97506340Y-49361558D01*
X97537941Y-49307751D01*
X97915875Y-48929819D01*
X97977198Y-48896334D01*
X98003556Y-48893500D01*
X99434491Y-48893500D01*
X99501530Y-48913185D01*
G37*
%TD.AperFunction*%
%TA.AperFunction,Conductor*%
G36*
X109273127Y-50183185D02*
G01*
X109293769Y-50199819D01*
X109359271Y-50265321D01*
X109359274Y-50265323D01*
X109359277Y-50265326D01*
X109418912Y-50295712D01*
X109444041Y-50308516D01*
X109494836Y-50356490D01*
X109511631Y-50424311D01*
X109489093Y-50490446D01*
X109444041Y-50529484D01*
X109359278Y-50572673D01*
X109359271Y-50572678D01*
X109268678Y-50663271D01*
X109268675Y-50663276D01*
X109268674Y-50663277D01*
X109253376Y-50693300D01*
X109210500Y-50777447D01*
X109195500Y-50872160D01*
X109195500Y-51235839D01*
X109210500Y-51330552D01*
X109222985Y-51355055D01*
X109268674Y-51444723D01*
X109268676Y-51444725D01*
X109268678Y-51444728D01*
X109359271Y-51535321D01*
X109359274Y-51535323D01*
X109359277Y-51535326D01*
X109418912Y-51565712D01*
X109444041Y-51578516D01*
X109494836Y-51626490D01*
X109511631Y-51694311D01*
X109489093Y-51760446D01*
X109444041Y-51799484D01*
X109359278Y-51842673D01*
X109359271Y-51842678D01*
X109268678Y-51933271D01*
X109268675Y-51933276D01*
X109268674Y-51933277D01*
X109258022Y-51954183D01*
X109210500Y-52047447D01*
X109195500Y-52142160D01*
X109195500Y-52505839D01*
X109210499Y-52600546D01*
X109211029Y-52602174D01*
X109211088Y-52604264D01*
X109212028Y-52610194D01*
X109211262Y-52610315D01*
X109213028Y-52672015D01*
X109176952Y-52731851D01*
X109114253Y-52762683D01*
X109093100Y-52764500D01*
X107057631Y-52764500D01*
X106990592Y-52744815D01*
X106944837Y-52692011D01*
X106934893Y-52622853D01*
X106938554Y-52605906D01*
X106947100Y-52576488D01*
X106947295Y-52574001D01*
X106947295Y-52574000D01*
X104002705Y-52574000D01*
X104002704Y-52574001D01*
X104002899Y-52576488D01*
X104002900Y-52576494D01*
X104008912Y-52597187D01*
X104008711Y-52667056D01*
X103970767Y-52725726D01*
X103907128Y-52754567D01*
X103837999Y-52744424D01*
X103802154Y-52719460D01*
X103593726Y-52511032D01*
X103560241Y-52449709D01*
X103558311Y-52408407D01*
X103564310Y-52359003D01*
X103545152Y-52201221D01*
X103488790Y-52052608D01*
X103398501Y-51921802D01*
X103398498Y-51921799D01*
X103398496Y-51921797D01*
X103279533Y-51816404D01*
X103138794Y-51742539D01*
X102984475Y-51704503D01*
X102984474Y-51704503D01*
X102825532Y-51704503D01*
X102825530Y-51704503D01*
X102818084Y-51705407D01*
X102817835Y-51703359D01*
X102758498Y-51700746D01*
X102701439Y-51660421D01*
X102675238Y-51595650D01*
X102688216Y-51526996D01*
X102710948Y-51495745D01*
X102736878Y-51469815D01*
X102798200Y-51436333D01*
X102824556Y-51433500D01*
X104173523Y-51433500D01*
X104240562Y-51453185D01*
X104286317Y-51505989D01*
X104296261Y-51575147D01*
X104267236Y-51638703D01*
X104249523Y-51655479D01*
X104248444Y-51656315D01*
X104132321Y-51772438D01*
X104132314Y-51772447D01*
X104048718Y-51913801D01*
X104002899Y-52071513D01*
X104002704Y-52073998D01*
X104002705Y-52074000D01*
X106947295Y-52074000D01*
X106947295Y-52073998D01*
X106947100Y-52071513D01*
X106901281Y-51913801D01*
X106817685Y-51772447D01*
X106817678Y-51772438D01*
X106701561Y-51656321D01*
X106701552Y-51656314D01*
X106662062Y-51632960D01*
X106614378Y-51581891D01*
X106601875Y-51513149D01*
X106626555Y-51453325D01*
X106625587Y-51452622D01*
X106628498Y-51448614D01*
X106628521Y-51448560D01*
X106628610Y-51448460D01*
X106631318Y-51444730D01*
X106631326Y-51444723D01*
X106689498Y-51330555D01*
X106689498Y-51330553D01*
X106689499Y-51330552D01*
X106704500Y-51235839D01*
X106704500Y-50912500D01*
X106724185Y-50845461D01*
X106776989Y-50799706D01*
X106828500Y-50788500D01*
X107267426Y-50788500D01*
X107267442Y-50788501D01*
X107275038Y-50788501D01*
X107374961Y-50788501D01*
X107374962Y-50788501D01*
X107451080Y-50768104D01*
X107451082Y-50768104D01*
X107464015Y-50764638D01*
X107471482Y-50762638D01*
X107558019Y-50712676D01*
X107628676Y-50642019D01*
X107628676Y-50642017D01*
X107638880Y-50631814D01*
X107638883Y-50631809D01*
X108070875Y-50199819D01*
X108132198Y-50166334D01*
X108158556Y-50163500D01*
X109206088Y-50163500D01*
X109273127Y-50183185D01*
G37*
%TD.AperFunction*%
%TA.AperFunction,Conductor*%
G36*
X99501530Y-46373185D02*
G01*
X99547285Y-46425989D01*
X99557229Y-46495147D01*
X99530345Y-46556164D01*
X99448973Y-46655316D01*
X99448969Y-46655322D01*
X99351056Y-46838503D01*
X99290757Y-47037283D01*
X99270398Y-47244000D01*
X99290757Y-47450716D01*
X99351056Y-47649496D01*
X99448969Y-47832677D01*
X99448973Y-47832683D01*
X99530345Y-47931836D01*
X99557657Y-47996146D01*
X99545866Y-48065013D01*
X99498713Y-48116573D01*
X99434491Y-48134500D01*
X97745038Y-48134500D01*
X97648518Y-48160362D01*
X97648515Y-48160363D01*
X97561984Y-48210321D01*
X97561979Y-48210325D01*
X97491322Y-48280983D01*
X97001248Y-48771056D01*
X96939925Y-48804541D01*
X96877574Y-48802036D01*
X96752060Y-48763962D01*
X96721716Y-48754757D01*
X96515000Y-48734398D01*
X96308283Y-48754757D01*
X96109503Y-48815056D01*
X95926322Y-48912969D01*
X95926316Y-48912973D01*
X95832164Y-48990241D01*
X95767854Y-49017553D01*
X95698987Y-49005762D01*
X95647427Y-48958609D01*
X95629500Y-48894387D01*
X95629500Y-46944556D01*
X95649185Y-46877517D01*
X95665819Y-46856875D01*
X96132875Y-46389819D01*
X96194198Y-46356334D01*
X96220556Y-46353500D01*
X99434491Y-46353500D01*
X99501530Y-46373185D01*
G37*
%TD.AperFunction*%
%TA.AperFunction,Conductor*%
G36*
X106972995Y-45728185D02*
G01*
X106993637Y-45744819D01*
X108076495Y-46827677D01*
X108076505Y-46827688D01*
X108080835Y-46832018D01*
X108080836Y-46832019D01*
X108151493Y-46902676D01*
X108238030Y-46952638D01*
X108334550Y-46978501D01*
X108334552Y-46978501D01*
X108442070Y-46978501D01*
X108442086Y-46978500D01*
X108884138Y-46978500D01*
X108936925Y-46994000D01*
X110301000Y-46994000D01*
X110368039Y-47013685D01*
X110413794Y-47066489D01*
X110425000Y-47118000D01*
X110425000Y-47370000D01*
X110405315Y-47437039D01*
X110352511Y-47482794D01*
X110301000Y-47494000D01*
X108952705Y-47494000D01*
X108952704Y-47494001D01*
X108952899Y-47496486D01*
X108998718Y-47654198D01*
X109082314Y-47795552D01*
X109082321Y-47795561D01*
X109198444Y-47911684D01*
X109199523Y-47912521D01*
X109200152Y-47913392D01*
X109203960Y-47917200D01*
X109203345Y-47917814D01*
X109240430Y-47969163D01*
X109244220Y-48038930D01*
X109209689Y-48099671D01*
X109147801Y-48132100D01*
X109123523Y-48134500D01*
X108154038Y-48134500D01*
X108057518Y-48160362D01*
X108057515Y-48160363D01*
X107970984Y-48210321D01*
X107970979Y-48210325D01*
X107900322Y-48280983D01*
X107458125Y-48723181D01*
X107396802Y-48756666D01*
X107370444Y-48759500D01*
X106828500Y-48759500D01*
X106761461Y-48739815D01*
X106715706Y-48687011D01*
X106704500Y-48635500D01*
X106704500Y-48332160D01*
X106689499Y-48237447D01*
X106682109Y-48222943D01*
X106631326Y-48123277D01*
X106631322Y-48123273D01*
X106631321Y-48123271D01*
X106540728Y-48032678D01*
X106540725Y-48032676D01*
X106540723Y-48032674D01*
X106455957Y-47989483D01*
X106405163Y-47941510D01*
X106388368Y-47873689D01*
X106410906Y-47807554D01*
X106455956Y-47768516D01*
X106540723Y-47725326D01*
X106631326Y-47634723D01*
X106689498Y-47520555D01*
X106689498Y-47520553D01*
X106689499Y-47520552D01*
X106704500Y-47425839D01*
X106704500Y-47062160D01*
X106689499Y-46967447D01*
X106677835Y-46944556D01*
X106631326Y-46853277D01*
X106631322Y-46853273D01*
X106631321Y-46853271D01*
X106540728Y-46762678D01*
X106540725Y-46762676D01*
X106540723Y-46762674D01*
X106455957Y-46719483D01*
X106405163Y-46671510D01*
X106388368Y-46603689D01*
X106410906Y-46537554D01*
X106455956Y-46498516D01*
X106540723Y-46455326D01*
X106631326Y-46364723D01*
X106689498Y-46250555D01*
X106689498Y-46250553D01*
X106689499Y-46250552D01*
X106704500Y-46155839D01*
X106704500Y-45832500D01*
X106724185Y-45765461D01*
X106776989Y-45719706D01*
X106828500Y-45708500D01*
X106905956Y-45708500D01*
X106972995Y-45728185D01*
G37*
%TD.AperFunction*%
%TA.AperFunction,Conductor*%
G36*
X99505633Y-43828185D02*
G01*
X99551388Y-43880989D01*
X99561332Y-43950147D01*
X99534448Y-44011164D01*
X99448973Y-44115316D01*
X99448969Y-44115322D01*
X99351056Y-44298503D01*
X99290757Y-44497283D01*
X99270398Y-44704000D01*
X99290757Y-44910716D01*
X99351056Y-45109496D01*
X99448969Y-45292677D01*
X99448973Y-45292683D01*
X99530345Y-45391836D01*
X99557657Y-45456146D01*
X99545866Y-45525013D01*
X99498713Y-45576573D01*
X99434491Y-45594500D01*
X96069574Y-45594500D01*
X96069558Y-45594499D01*
X96061962Y-45594499D01*
X95962038Y-45594499D01*
X95885915Y-45614896D01*
X95885913Y-45614896D01*
X95865519Y-45620361D01*
X95778982Y-45670323D01*
X95778979Y-45670325D01*
X95317983Y-46131322D01*
X95256660Y-46164807D01*
X95186968Y-46159823D01*
X95131035Y-46117951D01*
X95106618Y-46052487D01*
X95106302Y-46043641D01*
X95106302Y-43932501D01*
X95125987Y-43865462D01*
X95178791Y-43819707D01*
X95230302Y-43808501D01*
X95302558Y-43808501D01*
X95302574Y-43808500D01*
X99438594Y-43808500D01*
X99505633Y-43828185D01*
G37*
%TD.AperFunction*%
%TA.AperFunction,Conductor*%
G36*
X108287516Y-37608185D02*
G01*
X108333271Y-37660989D01*
X108343215Y-37730147D01*
X108314190Y-37793703D01*
X108308158Y-37800181D01*
X108189684Y-37918654D01*
X108097643Y-38067875D01*
X108097641Y-38067880D01*
X108042494Y-38234302D01*
X108042493Y-38234309D01*
X108032000Y-38337013D01*
X108032000Y-38612000D01*
X108908000Y-38612000D01*
X108975039Y-38631685D01*
X109020794Y-38684489D01*
X109032000Y-38736000D01*
X109032000Y-38862000D01*
X109158000Y-38862000D01*
X109225039Y-38881685D01*
X109270794Y-38934489D01*
X109282000Y-38986000D01*
X109282000Y-40086999D01*
X109331972Y-40086999D01*
X109331986Y-40086998D01*
X109434697Y-40076505D01*
X109601119Y-40021358D01*
X109601124Y-40021356D01*
X109750345Y-39929315D01*
X109874315Y-39805345D01*
X109966356Y-39656124D01*
X109966359Y-39656117D01*
X109994922Y-39569918D01*
X110034694Y-39512473D01*
X110099209Y-39485649D01*
X110167985Y-39497963D01*
X110219186Y-39545506D01*
X110228808Y-39565583D01*
X110234658Y-39581267D01*
X110259578Y-39614557D01*
X110321594Y-39697403D01*
X110342310Y-39712910D01*
X110377809Y-39739483D01*
X110419681Y-39795415D01*
X110427500Y-39838751D01*
X110427500Y-40445666D01*
X110407815Y-40512705D01*
X110391181Y-40533347D01*
X110353300Y-40571227D01*
X110353297Y-40571232D01*
X110342277Y-40590321D01*
X110342275Y-40590325D01*
X110286881Y-40686270D01*
X110252500Y-40814581D01*
X110252500Y-40814583D01*
X110252500Y-41425983D01*
X110232815Y-41493022D01*
X110180011Y-41538777D01*
X110110853Y-41548721D01*
X110047297Y-41519696D01*
X110022962Y-41491080D01*
X110004575Y-41461271D01*
X110004572Y-41461267D01*
X109884732Y-41341427D01*
X109884728Y-41341424D01*
X109740492Y-41252457D01*
X109740481Y-41252452D01*
X109579606Y-41199144D01*
X109480322Y-41189000D01*
X109457000Y-41189000D01*
X109457000Y-43138999D01*
X109480308Y-43138999D01*
X109480322Y-43138998D01*
X109579607Y-43128855D01*
X109740481Y-43075547D01*
X109740492Y-43075542D01*
X109884728Y-42986575D01*
X109884732Y-42986572D01*
X110004573Y-42866731D01*
X110022961Y-42836920D01*
X110074909Y-42790195D01*
X110143871Y-42778972D01*
X110207953Y-42806815D01*
X110246810Y-42864884D01*
X110252500Y-42902016D01*
X110252500Y-44025500D01*
X110232815Y-44092539D01*
X110180011Y-44138294D01*
X110128500Y-44149500D01*
X109568161Y-44149500D01*
X109473447Y-44164500D01*
X109397333Y-44203283D01*
X109359277Y-44222674D01*
X109359276Y-44222675D01*
X109359271Y-44222678D01*
X109268678Y-44313271D01*
X109268675Y-44313276D01*
X109210500Y-44427447D01*
X109195500Y-44522160D01*
X109195500Y-44845500D01*
X109175815Y-44912539D01*
X109123011Y-44958294D01*
X109071500Y-44969500D01*
X108615860Y-44969500D01*
X108548821Y-44949815D01*
X108528179Y-44933181D01*
X106892096Y-43297098D01*
X106892094Y-43297095D01*
X106814370Y-43219371D01*
X106814365Y-43219367D01*
X106727835Y-43169409D01*
X106727832Y-43169408D01*
X106707434Y-43163942D01*
X106631312Y-43143545D01*
X106531388Y-43143545D01*
X106523792Y-43143545D01*
X106523776Y-43143546D01*
X102090196Y-43143546D01*
X102023157Y-43123861D01*
X102002515Y-43107227D01*
X101397768Y-42502480D01*
X101375840Y-42462322D01*
X108257001Y-42462322D01*
X108267144Y-42561607D01*
X108320452Y-42722481D01*
X108320457Y-42722492D01*
X108409424Y-42866728D01*
X108409427Y-42866732D01*
X108529267Y-42986572D01*
X108529271Y-42986575D01*
X108673507Y-43075542D01*
X108673518Y-43075547D01*
X108834393Y-43128855D01*
X108933683Y-43138999D01*
X108957000Y-43138998D01*
X108957000Y-42414000D01*
X108257001Y-42414000D01*
X108257001Y-42462322D01*
X101375840Y-42462322D01*
X101364283Y-42441157D01*
X101366790Y-42378797D01*
X101369242Y-42370718D01*
X101389602Y-42164000D01*
X101369242Y-41957282D01*
X101341454Y-41865677D01*
X108257000Y-41865677D01*
X108257000Y-41914000D01*
X108957000Y-41914000D01*
X108957000Y-41188999D01*
X108933693Y-41189000D01*
X108933674Y-41189001D01*
X108834392Y-41199144D01*
X108673518Y-41252452D01*
X108673507Y-41252457D01*
X108529271Y-41341424D01*
X108529267Y-41341427D01*
X108409427Y-41461267D01*
X108409424Y-41461271D01*
X108320457Y-41605507D01*
X108320452Y-41605518D01*
X108267144Y-41766393D01*
X108257000Y-41865677D01*
X101341454Y-41865677D01*
X101308945Y-41758508D01*
X101308943Y-41758505D01*
X101308943Y-41758503D01*
X101211030Y-41575322D01*
X101211028Y-41575320D01*
X101211027Y-41575317D01*
X101141896Y-41491080D01*
X101079252Y-41414747D01*
X100918684Y-41282974D01*
X100918677Y-41282969D01*
X100735496Y-41185056D01*
X100536716Y-41124757D01*
X100330000Y-41104398D01*
X100123283Y-41124757D01*
X99924503Y-41185056D01*
X99741322Y-41282969D01*
X99741315Y-41282974D01*
X99580747Y-41414747D01*
X99448974Y-41575315D01*
X99448969Y-41575322D01*
X99351056Y-41758503D01*
X99290757Y-41957283D01*
X99270398Y-42164000D01*
X99290757Y-42370716D01*
X99351056Y-42569496D01*
X99448969Y-42752677D01*
X99448974Y-42752684D01*
X99526241Y-42846835D01*
X99553554Y-42911145D01*
X99541763Y-42980013D01*
X99494611Y-43031573D01*
X99430388Y-43049500D01*
X95453556Y-43049500D01*
X95386517Y-43029815D01*
X95365875Y-43013181D01*
X94845819Y-42493125D01*
X94812334Y-42431802D01*
X94809500Y-42405444D01*
X94809500Y-38746764D01*
X94829185Y-38679725D01*
X94881989Y-38633970D01*
X94951147Y-38624026D01*
X95014703Y-38653051D01*
X95021181Y-38659083D01*
X95114799Y-38752701D01*
X95187731Y-38794808D01*
X95229839Y-38819119D01*
X95358150Y-38853500D01*
X99339274Y-38853500D01*
X99406313Y-38873185D01*
X99452068Y-38925989D01*
X99462012Y-38995147D01*
X99448632Y-39035953D01*
X99351056Y-39218503D01*
X99290757Y-39417283D01*
X99270398Y-39624000D01*
X99290757Y-39830716D01*
X99351056Y-40029496D01*
X99448969Y-40212677D01*
X99448974Y-40212684D01*
X99580747Y-40373252D01*
X99668985Y-40445666D01*
X99741317Y-40505027D01*
X99741320Y-40505028D01*
X99741322Y-40505030D01*
X99924503Y-40602943D01*
X99924505Y-40602943D01*
X99924508Y-40602945D01*
X100123282Y-40663242D01*
X100330000Y-40683602D01*
X100536718Y-40663242D01*
X100735492Y-40602945D01*
X100736572Y-40602368D01*
X100865700Y-40533347D01*
X100918683Y-40505027D01*
X101079252Y-40373252D01*
X101211027Y-40212683D01*
X101288275Y-40068162D01*
X101308943Y-40029496D01*
X101308943Y-40029495D01*
X101308945Y-40029492D01*
X101369242Y-39830718D01*
X101389602Y-39624000D01*
X101369242Y-39417282D01*
X101360052Y-39386986D01*
X108032001Y-39386986D01*
X108042494Y-39489697D01*
X108097641Y-39656119D01*
X108097643Y-39656124D01*
X108189684Y-39805345D01*
X108313654Y-39929315D01*
X108462875Y-40021356D01*
X108462880Y-40021358D01*
X108629302Y-40076505D01*
X108629309Y-40076506D01*
X108732019Y-40086999D01*
X108781999Y-40086998D01*
X108782000Y-40086998D01*
X108782000Y-39112000D01*
X108032001Y-39112000D01*
X108032001Y-39386986D01*
X101360052Y-39386986D01*
X101308945Y-39218508D01*
X101308943Y-39218505D01*
X101308943Y-39218503D01*
X101211368Y-39035953D01*
X101197126Y-38967550D01*
X101222126Y-38902307D01*
X101278431Y-38860936D01*
X101320726Y-38853500D01*
X102941416Y-38853500D01*
X102941419Y-38853500D01*
X103069730Y-38819119D01*
X103111837Y-38794808D01*
X103184770Y-38752701D01*
X104312652Y-37624819D01*
X104373975Y-37591334D01*
X104400333Y-37588500D01*
X108220477Y-37588500D01*
X108287516Y-37608185D01*
G37*
%TD.AperFunction*%
%TD*%
M02*
