M48
; DRILL file {KiCad 8.0.7} date 2025-01-07T22:56:58+0000
; FORMAT={-:-/ absolute / metric / decimal}
; #@! TF.CreationDate,2025-01-07T22:56:58+00:00
; #@! TF.GenerationSoftware,Kicad,Pcbnew,8.0.7
; #@! TF.FileFunction,MixedPlating,1,2
FMAT,2
METRIC
; #@! TA.AperFunction,Plated,PTH,ViaDrill
T1C0.400
; #@! TA.AperFunction,Plated,PTH,ComponentDrill
T2C0.800
%
G90
G05
T1
X82.804Y-42.418
X87.381Y-51.049
X87.381Y-53.589
X87.381Y-56.129
X87.381Y-58.669
X87.381Y-61.209
X87.381Y-63.749
X87.381Y-66.289
X87.381Y-68.829
X87.381Y-71.369
X87.381Y-73.909
X87.381Y-76.449
X87.381Y-78.989
X87.381Y-82.814
X89.662Y-85.344
X92.71Y-42.418
X97.795Y-44.699
X97.795Y-47.239
X98.303Y-49.779
X98.303Y-54.097
X101.092Y-68.834
X101.6Y-71.374
X101.6Y-84.074
X102.108Y-73.189
X102.18Y-44.704
X102.861Y-67.564
X102.87Y-53.594
X102.87Y-54.864
X102.905Y-52.359
X103.442Y-71.157
X103.558Y-72.644
X103.632Y-69.596
X104.22Y-58.839
X104.22Y-56.642
X107.437Y-67.061
X107.442Y-42.164
X107.442Y-47.244
X107.442Y-52.324
X107.442Y-65.532
X107.442Y-74.639
X108.717Y-66.289
X110.744Y-77.216
X111.765Y-76.195
X112.225Y-47.244
X112.225Y-66.929
X112.225Y-70.739
X112.675Y-45.974
X112.675Y-73.152
X113.03Y-78.994
X113.03Y-81.534
X113.125Y-44.958
T2
X81.275Y-49.794
X81.275Y-52.334
X81.275Y-54.874
X81.275Y-57.414
X81.275Y-59.954
X81.275Y-62.494
X81.275Y-65.034
X81.275Y-67.574
X81.275Y-70.114
X81.275Y-72.654
X81.275Y-75.194
X81.275Y-77.734
X81.275Y-80.274
X81.275Y-82.814
X96.515Y-49.794
X96.515Y-52.334
X96.515Y-54.874
X96.515Y-57.414
X96.515Y-59.954
X96.515Y-62.494
X96.515Y-65.034
X96.515Y-67.574
X96.515Y-70.114
X96.515Y-72.654
X96.515Y-75.194
X96.515Y-77.734
X96.515Y-80.274
X96.515Y-82.814
X100.33Y-37.084
X100.33Y-39.624
X100.33Y-42.164
X100.33Y-44.704
X100.33Y-47.244
X100.33Y-49.784
X100.33Y-52.324
X100.33Y-54.864
X100.33Y-57.404
X100.33Y-59.944
X100.33Y-62.484
X100.33Y-65.024
X100.33Y-67.564
X100.33Y-70.104
X100.33Y-72.644
X100.33Y-75.184
X100.33Y-77.724
X100.33Y-80.264
X100.33Y-82.804
X100.33Y-85.344
X115.57Y-37.084
X115.57Y-39.624
X115.57Y-42.164
X115.57Y-44.704
X115.57Y-47.244
X115.57Y-49.784
X115.57Y-52.324
X115.57Y-54.864
X115.57Y-57.404
X115.57Y-59.944
X115.57Y-62.484
X115.57Y-65.024
X115.57Y-67.564
X115.57Y-70.104
X115.57Y-72.644
X115.57Y-75.184
X115.57Y-77.724
X115.57Y-80.264
X115.57Y-82.804
X115.57Y-85.344
M30
